<?xml version="1.0" encoding="utf-8"?>
<!-- Generator: Adobe Illustrator 15.0.0, SVG Export Plug-In . SVG Version: 6.00 Build 0)  -->
<!DOCTYPE svg PUBLIC "-//W3C//DTD SVG 1.1//EN" "http://www.w3.org/Graphics/SVG/1.1/DTD/svg11.dtd">
<svg version="1.1" id="Layer_1" xmlns="http://www.w3.org/2000/svg" xmlns:xlink="http://www.w3.org/1999/xlink" x="0px" y="0px"
	 width="130px" height="130px" viewBox="0 0 130 130" enable-background="new 0 0 130 130" xml:space="preserve">
<g>
	<circle fill="#FF7058" cx="65.786" cy="11.471" r="1.708"/>
	<circle fill="#E6E9EE" cx="65.786" cy="-3.292" r="1.708"/>
	<g>
		<g>
			<path fill="#231F20" d="M90.278,19.279c-0.173,0-0.347-0.067-0.479-0.199c-0.265-0.265-0.265-0.693,0-0.958l1.152-1.152
				c0.264-0.263,0.692-0.263,0.957,0c0.264,0.265,0.264,0.693,0,0.958l-1.152,1.151C90.625,19.212,90.451,19.279,90.278,19.279z"/>
		</g>
		<g>
			<path fill="#231F20" d="M86.673,22.885c-0.174,0-0.347-0.066-0.479-0.199c-0.265-0.264-0.265-0.692,0-0.958l1.151-1.152
				c0.264-0.264,0.692-0.264,0.957,0c0.264,0.265,0.264,0.693,0,0.958l-1.151,1.152C87.02,22.818,86.847,22.885,86.673,22.885z"/>
		</g>
		<g>
			<path fill="#231F20" d="M91.431,22.885c-0.174,0-0.347-0.066-0.479-0.199L89.8,21.534c-0.265-0.265-0.265-0.693,0-0.958
				c0.265-0.264,0.692-0.264,0.957,0l1.152,1.152c0.264,0.265,0.264,0.693,0,0.958C91.776,22.818,91.604,22.885,91.431,22.885z"/>
		</g>
		<g>
			<path fill="#231F20" d="M87.825,19.279c-0.174,0-0.348-0.067-0.479-0.199l-1.151-1.151c-0.265-0.265-0.265-0.693,0-0.958
				c0.265-0.263,0.692-0.263,0.957,0l1.151,1.152c0.264,0.265,0.264,0.694,0,0.958C88.17,19.212,87.997,19.279,87.825,19.279z"/>
		</g>
	</g>
	<g>
		<g>
			<path fill="#231F20" d="M44.703,49.528c-0.173,0-0.346-0.067-0.479-0.199c-0.264-0.265-0.264-0.693,0-0.957l1.151-1.151
				c0.265-0.265,0.693-0.265,0.957,0c0.265,0.264,0.265,0.692,0,0.957l-1.151,1.151C45.049,49.461,44.876,49.528,44.703,49.528z"/>
		</g>
		<g>
			<path fill="#231F20" d="M41.097,53.133c-0.173,0-0.346-0.066-0.479-0.198c-0.264-0.265-0.264-0.693,0-0.957l1.151-1.152
				c0.265-0.265,0.693-0.265,0.957,0c0.265,0.263,0.265,0.692,0,0.957l-1.151,1.152C41.443,53.067,41.271,53.133,41.097,53.133z"/>
		</g>
		<g>
			<path fill="#231F20" d="M45.854,53.133c-0.173,0-0.346-0.066-0.479-0.198l-1.152-1.152c-0.264-0.265-0.264-0.693,0-0.957
				c0.265-0.265,0.693-0.265,0.957,0l1.152,1.152c0.265,0.264,0.265,0.692,0,0.957C46.201,53.067,46.028,53.133,45.854,53.133z"/>
		</g>
		<g>
			<path fill="#231F20" d="M42.249,49.528c-0.173,0-0.346-0.067-0.479-0.199l-1.152-1.151c-0.264-0.265-0.264-0.693,0-0.958
				c0.265-0.264,0.693-0.264,0.957,0l1.152,1.152c0.265,0.264,0.265,0.692,0,0.957C42.595,49.461,42.422,49.528,42.249,49.528z"/>
		</g>
	</g>
	<g>
		<g>
			<path fill="#231F20" d="M90.278,117.871c-0.173,0-0.347-0.066-0.479-0.199c-0.265-0.264-0.265-0.691,0-0.957l1.152-1.152
				c0.264-0.264,0.692-0.264,0.957,0c0.264,0.266,0.264,0.693,0,0.957l-1.152,1.152C90.625,117.805,90.451,117.871,90.278,117.871z"
				/>
		</g>
		<g>
			<path fill="#231F20" d="M86.673,121.477c-0.174,0-0.347-0.066-0.479-0.199c-0.265-0.264-0.265-0.691,0-0.957l1.151-1.152
				c0.264-0.264,0.692-0.264,0.957,0c0.264,0.264,0.264,0.693,0,0.957l-1.151,1.152C87.02,121.41,86.847,121.477,86.673,121.477z"/>
		</g>
		<g>
			<path fill="#231F20" d="M91.431,121.477c-0.174,0-0.347-0.066-0.479-0.199l-1.152-1.152c-0.265-0.264-0.265-0.691,0-0.957
				c0.265-0.264,0.692-0.264,0.957,0l1.152,1.152c0.264,0.266,0.264,0.693,0,0.957C91.776,121.41,91.604,121.477,91.431,121.477z"/>
		</g>
		<g>
			<path fill="#231F20" d="M87.825,117.871c-0.174,0-0.348-0.066-0.479-0.199l-1.151-1.152c-0.265-0.264-0.265-0.693,0-0.957
				s0.692-0.264,0.957,0l1.151,1.152c0.264,0.266,0.264,0.693,0,0.957C88.17,117.805,87.997,117.871,87.825,117.871z"/>
		</g>
	</g>
	<g>
		<rect x="21.861" y="63.162" fill="#84DBFF" width="7.76" height="7.762"/>
	</g>
	<g>
		<path fill="#231F20" d="M27.077,61.471l-1.339-0.195c0.044-0.305,0.092-0.606,0.144-0.907l1.334,0.227
			C27.166,60.885,27.12,61.178,27.077,61.471z M27.552,58.853l-1.323-0.287c0.064-0.299,0.133-0.597,0.204-0.894l1.316,0.315
			C27.681,58.275,27.615,58.564,27.552,58.853z M28.205,56.27l-1.301-0.375c0.086-0.295,0.174-0.591,0.267-0.883l1.291,0.407
			C28.372,55.701,28.286,55.984,28.205,56.27z M29.032,53.734l-1.273-0.463c0.105-0.289,0.213-0.576,0.325-0.862l1.261,0.494
			C29.237,53.178,29.132,53.456,29.032,53.734z M30.027,51.262l-1.238-0.548c0.125-0.28,0.251-0.559,0.382-0.836l1.225,0.576
			C30.27,50.721,30.147,50.991,30.027,51.262z M31.188,48.864l-1.198-0.631c0.143-0.271,0.289-0.54,0.437-0.808l1.184,0.658
			C31.467,48.341,31.327,48.603,31.188,48.864z M32.508,46.551l-1.152-0.71c0.161-0.261,0.324-0.52,0.491-0.776l1.136,0.736
			C32.822,46.048,32.664,46.299,32.508,46.551z M33.98,44.332l-1.102-0.786c0.178-0.249,0.358-0.496,0.541-0.741l1.085,0.809
			C34.327,43.851,34.152,44.09,33.98,44.332z M35.598,42.216l-1.047-0.858c0.194-0.236,0.39-0.471,0.588-0.702l1.029,0.878
			C35.976,41.76,35.786,41.987,35.598,42.216z M37.352,40.214l-0.987-0.926c0.209-0.223,0.421-0.444,0.635-0.662l0.966,0.948
			C37.759,39.785,37.554,39.998,37.352,40.214z M39.236,38.334l-0.924-0.99c0.224-0.208,0.45-0.414,0.678-0.619l0.901,1.01
			C39.67,37.933,39.452,38.132,39.236,38.334z M41.24,36.584l-0.855-1.048c0.236-0.193,0.476-0.384,0.717-0.572l0.832,1.068
			C41.7,36.214,41.469,36.398,41.24,36.584z M43.357,34.973l-0.784-1.104c0.249-0.177,0.5-0.351,0.753-0.522l0.76,1.121
			C43.84,34.633,43.598,34.802,43.357,34.973z M45.575,33.508l-0.707-1.154c0.26-0.16,0.522-0.316,0.786-0.47l0.683,1.168
			C46.081,33.201,45.827,33.354,45.575,33.508z M47.885,32.195l-0.628-1.199c0.27-0.141,0.542-0.28,0.815-0.416l0.602,1.212
			C48.41,31.923,48.146,32.058,47.885,32.195z M50.278,31.04l-0.547-1.237c0.279-0.125,0.56-0.244,0.842-0.361l0.518,1.251
			C50.818,30.805,50.547,30.921,50.278,31.04z M52.742,30.05l-0.462-1.272c0.287-0.104,0.574-0.205,0.863-0.303l0.434,1.283
			C53.297,29.852,53.019,29.95,52.742,30.05z M55.266,29.229l-0.375-1.301c0.293-0.085,0.588-0.167,0.885-0.245l0.346,1.309
			C55.834,29.068,55.549,29.146,55.266,29.229z M57.845,28.578l-0.286-1.323c0.298-0.065,0.598-0.126,0.898-0.184l0.257,1.329
			C58.424,28.456,58.134,28.515,57.845,28.578z M60.461,28.103l-0.193-1.34l0.229-0.033l0.192,1.34L60.461,28.103z"/>
	</g>
	<g>
		<path fill="#231F20" d="M60.5,107.832c-0.305-0.041-0.606-0.088-0.908-0.137l0.219-1.338c0.291,0.049,0.584,0.094,0.877,0.135
			L60.5,107.832z M57.788,107.357c-0.3-0.064-0.598-0.129-0.895-0.199l0.308-1.318c0.288,0.066,0.577,0.131,0.867,0.193
			L57.788,107.357z M55.116,106.699c-0.296-0.084-0.591-0.17-0.884-0.26l0.399-1.293c0.283,0.086,0.567,0.17,0.853,0.25
			L55.116,106.699z M52.488,105.861c-0.289-0.104-0.577-0.209-0.864-0.32l0.485-1.264c0.277,0.105,0.554,0.209,0.833,0.309
			L52.488,105.861z M49.924,104.846c-0.282-0.121-0.562-0.248-0.84-0.377l0.57-1.227c0.269,0.123,0.538,0.246,0.81,0.363
			L49.924,104.846z M47.435,103.66c-0.271-0.141-0.542-0.285-0.81-0.432l0.649-1.188c0.26,0.143,0.521,0.281,0.784,0.418
			L47.435,103.66z M45.034,102.311c-0.262-0.158-0.521-0.322-0.78-0.486l0.729-1.141c0.25,0.16,0.501,0.316,0.754,0.469
			L45.034,102.311z M42.729,100.803c-0.251-0.176-0.499-0.354-0.745-0.535l0.803-1.09c0.238,0.174,0.479,0.348,0.721,0.518
			L42.729,100.803z M40.532,99.145c-0.238-0.191-0.474-0.387-0.707-0.584l0.874-1.033c0.226,0.191,0.454,0.379,0.684,0.564
			L40.532,99.145z M38.45,97.344c-0.224-0.207-0.447-0.418-0.667-0.631l0.942-0.973c0.212,0.207,0.427,0.41,0.644,0.609
			L38.45,97.344z M36.494,95.408c-0.21-0.223-0.418-0.447-0.623-0.674l1.004-0.908c0.199,0.219,0.399,0.436,0.602,0.652
			L36.494,95.408z M34.672,93.348c-0.194-0.236-0.386-0.475-0.575-0.713l1.062-0.84c0.184,0.232,0.37,0.461,0.558,0.689
			L34.672,93.348z M32.993,91.168c-0.179-0.246-0.354-0.498-0.527-0.748l1.117-0.768c0.167,0.246,0.337,0.486,0.509,0.727
			L32.993,91.168z M31.463,88.885c-0.161-0.26-0.319-0.521-0.475-0.783l1.166-0.689c0.15,0.254,0.303,0.506,0.459,0.756
			L31.463,88.885z M30.091,86.502c-0.143-0.27-0.284-0.541-0.421-0.814l1.209-0.605c0.133,0.262,0.268,0.523,0.407,0.785
			L30.091,86.502z M28.882,84.033c-0.124-0.277-0.246-0.557-0.365-0.84l1.247-0.525c0.115,0.271,0.233,0.543,0.354,0.812
			L28.882,84.033z M27.845,81.492c-0.106-0.287-0.209-0.574-0.308-0.863l1.281-0.439c0.096,0.279,0.195,0.557,0.296,0.832
			L27.845,81.492z M26.98,78.885c-0.086-0.293-0.168-0.588-0.249-0.881l1.306-0.355c0.078,0.287,0.158,0.57,0.242,0.855
			L26.98,78.885z M26.293,76.221c-0.066-0.299-0.129-0.598-0.189-0.898l1.328-0.264c0.058,0.291,0.118,0.58,0.182,0.867
			L26.293,76.221z M25.789,73.514c-0.036-0.236-0.069-0.473-0.101-0.711l1.341-0.18c0.031,0.23,0.064,0.459,0.099,0.689
			L25.789,73.514z"/>
	</g>
	<g>
		<path fill="#231F20" d="M72.027,107.816l-0.188-1.34c0.229-0.033,0.455-0.066,0.683-0.102l0.21,1.336
			C72.498,107.748,72.264,107.783,72.027,107.816z M74.539,107.385l-0.271-1.326c0.29-0.059,0.579-0.121,0.867-0.186l0.3,1.318
			C75.139,107.26,74.84,107.324,74.539,107.385z M77.215,106.744l-0.361-1.305c0.286-0.08,0.57-0.162,0.854-0.246l0.39,1.297
			C77.805,106.578,77.51,106.662,77.215,106.744z M79.838,105.924l-0.447-1.277c0.278-0.098,0.557-0.199,0.832-0.301l0.476,1.268
			C80.413,105.719,80.125,105.822,79.838,105.924z M82.397,104.93l-0.532-1.244c0.271-0.115,0.541-0.234,0.81-0.357l0.561,1.232
			C82.958,104.688,82.678,104.809,82.397,104.93z M84.885,103.764l-0.613-1.205c0.263-0.135,0.523-0.271,0.782-0.412l0.643,1.191
			C85.428,103.484,85.157,103.625,84.885,103.764z M87.29,102.432l-0.695-1.16c0.254-0.152,0.506-0.307,0.755-0.465l0.721,1.146
			C87.812,102.115,87.552,102.277,87.29,102.432z M89.6,100.941l-0.771-1.111c0.242-0.17,0.483-0.34,0.722-0.514l0.796,1.096
			C90.101,100.592,89.852,100.768,89.6,100.941z M91.807,99.299l-0.846-1.057c0.231-0.186,0.461-0.373,0.688-0.561l0.867,1.037
			C92.281,98.916,92.046,99.107,91.807,99.299z M93.897,97.512l-0.913-0.998c0.218-0.199,0.434-0.402,0.647-0.605l0.936,0.977
			C94.347,97.098,94.123,97.307,93.897,97.512z M95.864,95.59l-0.977-0.938c0.204-0.213,0.405-0.43,0.605-0.646l0.999,0.914
			C96.285,95.145,96.076,95.369,95.864,95.59z M97.698,93.539l-1.036-0.871c0.189-0.225,0.376-0.455,0.561-0.686l1.059,0.844
			C98.09,93.066,97.896,93.305,97.698,93.539z M99.395,91.367l-1.096-0.797c0.174-0.238,0.347-0.48,0.516-0.725l1.111,0.773
			C99.751,90.871,99.574,91.119,99.395,91.367z M100.938,89.088l-1.146-0.723c0.159-0.25,0.313-0.5,0.466-0.756l1.161,0.695
			C101.263,88.568,101.103,88.83,100.938,89.088z M102.329,86.707l-1.192-0.641c0.141-0.262,0.278-0.523,0.413-0.787l1.205,0.615
			C102.616,86.166,102.474,86.438,102.329,86.707z M103.553,84.24l-1.232-0.562c0.124-0.27,0.244-0.539,0.36-0.811l1.244,0.531
			C103.803,83.68,103.68,83.961,103.553,84.24z M104.608,81.693l-1.267-0.477c0.104-0.277,0.204-0.555,0.303-0.836l1.278,0.447
			C104.82,81.117,104.716,81.404,104.608,81.693z M105.49,79.078l-1.298-0.387c0.085-0.285,0.168-0.57,0.246-0.857l1.306,0.361
			C105.663,78.49,105.578,78.785,105.49,79.078z M106.189,76.414l-1.32-0.299c0.065-0.289,0.128-0.576,0.188-0.867l1.326,0.27
			C106.322,75.818,106.257,76.117,106.189,76.414z M106.708,73.711l-1.338-0.207c0.046-0.293,0.088-0.586,0.129-0.881l1.341,0.18
			C106.8,73.107,106.756,73.41,106.708,73.711z"/>
	</g>
	<g>
		<path fill="#231F20" d="M105.449,61.47l-0.031-0.218l1.339-0.2l0.032,0.224L105.449,61.47z M105.109,59.508
			c-0.057-0.291-0.118-0.58-0.182-0.868l1.32-0.294c0.066,0.299,0.13,0.599,0.19,0.899L105.109,59.508z M104.503,56.917
			c-0.077-0.285-0.158-0.57-0.241-0.854l1.298-0.383c0.086,0.293,0.17,0.588,0.249,0.882L104.503,56.917z M103.722,54.377
			c-0.096-0.279-0.195-0.556-0.298-0.833l1.27-0.471c0.105,0.286,0.209,0.573,0.309,0.862L103.722,54.377z M102.772,51.898
			c-0.115-0.271-0.233-0.541-0.353-0.811l1.233-0.555c0.125,0.278,0.248,0.558,0.366,0.84L102.772,51.898z M101.656,49.488
			c-0.132-0.264-0.268-0.525-0.407-0.786l1.195-0.637c0.143,0.271,0.283,0.542,0.421,0.813L101.656,49.488z M100.38,47.157
			c-0.149-0.254-0.303-0.506-0.459-0.757l1.149-0.715c0.161,0.259,0.319,0.52,0.475,0.783L100.38,47.157z M98.95,44.917
			c-0.167-0.243-0.336-0.485-0.509-0.725l1.098-0.791c0.179,0.248,0.354,0.497,0.527,0.749L98.95,44.917z M97.374,42.776
			c-0.184-0.232-0.369-0.462-0.558-0.69l1.043-0.863c0.195,0.235,0.387,0.473,0.576,0.713L97.374,42.776z M95.656,40.745
			c-0.199-0.22-0.399-0.437-0.603-0.652l0.983-0.93c0.21,0.221,0.418,0.446,0.622,0.672L95.656,40.745z M93.805,38.83
			c-0.213-0.205-0.428-0.409-0.645-0.61l0.92-0.992c0.225,0.208,0.447,0.418,0.667,0.631L93.805,38.83z M91.832,37.045
			c-0.227-0.19-0.454-0.379-0.685-0.565l0.852-1.053c0.237,0.192,0.473,0.387,0.706,0.585L91.832,37.045z M89.742,35.395
			c-0.237-0.175-0.479-0.348-0.721-0.519l0.779-1.107c0.25,0.176,0.499,0.355,0.745,0.537L89.742,35.395z M87.547,33.888
			c-0.249-0.159-0.501-0.315-0.755-0.469l0.703-1.157c0.262,0.16,0.521,0.321,0.779,0.485L87.547,33.888z M85.254,32.532
			c-0.26-0.142-0.521-0.281-0.785-0.418l0.624-1.201c0.271,0.141,0.542,0.285,0.811,0.432L85.254,32.532z M82.875,31.333
			c-0.268-0.125-0.538-0.246-0.811-0.363l0.539-1.242c0.282,0.122,0.562,0.248,0.84,0.376L82.875,31.333z M80.42,30.297
			c-0.277-0.106-0.555-0.208-0.836-0.309l0.455-1.274c0.289,0.103,0.576,0.209,0.864,0.318L80.42,30.297z M77.897,29.43
			c-0.282-0.086-0.567-0.17-0.853-0.25l0.367-1.303c0.295,0.083,0.59,0.17,0.884,0.26L77.897,29.43z M75.326,28.737
			c-0.287-0.067-0.574-0.131-0.865-0.192l0.277-1.324c0.301,0.062,0.598,0.128,0.896,0.197L75.326,28.737z M72.717,28.221
			c-0.291-0.048-0.584-0.093-0.877-0.133l0.188-1.34c0.304,0.042,0.605,0.088,0.908,0.137L72.717,28.221z"/>
	</g>
	<g>
		<rect x="62.383" y="22.641" fill="#84DBFF" width="7.761" height="7.76"/>
	</g>
	<g>
		<rect x="62.383" y="103.686" fill="#84DBFF" width="7.761" height="7.76"/>
	</g>
	<g>
		<rect x="102.906" y="63.162" fill="#84DBFF" width="7.744" height="7.762"/>
	</g>
	<g>
		<path fill="#E6E9EE" d="M119.468,28.807c-1.261,0-2.288-1.026-2.288-2.287c0-1.26,1.027-2.286,2.288-2.286
			c1.26,0,2.286,1.026,2.286,2.286C121.754,27.781,120.728,28.807,119.468,28.807z"/>
	</g>
	<g>
		<path fill="#E6E9EE" d="M106.778,16.125c-1.261,0-2.288-1.025-2.288-2.286s1.027-2.287,2.288-2.287s2.286,1.026,2.286,2.287
			S108.039,16.125,106.778,16.125z"/>
	</g>
	<g>
		<circle fill="#E6E9EE" cx="25.741" cy="13.839" r="2.286"/>
	</g>
	<g>
		<path fill="#E6E9EE" d="M106.778,122.533c-1.261,0-2.288-1.025-2.288-2.287c0-1.26,1.027-2.287,2.288-2.287
			s2.286,1.027,2.286,2.287C109.064,121.508,108.039,122.533,106.778,122.533z"/>
	</g>
	<g>
		<path fill="#E6E9EE" d="M25.741,122.533c-1.261,0-2.287-1.025-2.287-2.287c0-1.26,1.026-2.287,2.287-2.287
			s2.287,1.027,2.287,2.287C28.028,121.508,27.001,122.533,25.741,122.533z"/>
	</g>
	<g>
		<circle fill="#E6E9EE" cx="13.06" cy="26.521" r="2.287"/>
	</g>
	<g>
		<path fill="#E6E9EE" d="M119.468,109.449c-1.261,0-2.288-1.025-2.288-2.287c0-1.26,1.027-2.287,2.288-2.287
			c1.26,0,2.286,1.027,2.286,2.287C121.754,108.424,120.728,109.449,119.468,109.449z"/>
	</g>
	<path fill="#231F20" d="M119.467,102.408c-2.39,0-4.353,1.777-4.685,4.076h-7.327V73.391h5.662V60.696h-5.662V27.197h7.327
		c0.332,2.299,2.295,4.077,4.685,4.077c2.622,0,4.754-2.133,4.754-4.754s-2.132-4.754-4.754-4.754c-2.39,0-4.353,1.779-4.685,4.077
		h-7.327v-7.318c2.299-0.333,4.077-2.296,4.077-4.686c0-2.621-2.133-4.753-4.754-4.753c-2.622,0-4.754,2.132-4.754,4.753
		c0,2.39,1.778,4.354,4.077,4.686v7.318H72.61v-5.67H59.916v5.67H26.417v-7.318c2.299-0.333,4.077-2.296,4.077-4.686
		c0-2.621-2.132-4.753-4.754-4.753c-2.621,0-4.753,2.132-4.753,4.753c0,2.39,1.777,4.354,4.077,4.686v7.318h-7.319
		c-0.332-2.298-2.295-4.077-4.685-4.077c-2.621,0-4.754,2.133-4.754,4.754s2.133,4.754,4.754,4.754c2.39,0,4.353-1.778,4.685-4.077
		h7.319v33.499h-5.67v12.695h5.67v33.094h-7.319c-0.332-2.299-2.295-4.076-4.685-4.076c-2.621,0-4.754,2.133-4.754,4.754
		s2.133,4.754,4.754,4.754c2.39,0,4.353-1.777,4.685-4.078h7.319v7.725c-2.299,0.33-4.077,2.295-4.077,4.684
		c0,2.621,2.132,4.754,4.753,4.754c2.622,0,4.754-2.133,4.754-4.754c0-2.389-1.778-4.354-4.077-4.684v-7.725h33.499v6.074H72.61
		v-6.074h33.491v7.725c-2.299,0.33-4.077,2.295-4.077,4.684c0,2.621,2.132,4.754,4.754,4.754c2.621,0,4.754-2.133,4.754-4.754
		c0-2.389-1.778-4.354-4.077-4.684v-7.725h7.327c0.332,2.301,2.295,4.078,4.685,4.078c2.622,0,4.754-2.133,4.754-4.754
		S122.089,102.408,119.467,102.408z M119.467,23.12c1.875,0,3.4,1.525,3.4,3.4s-1.525,3.4-3.4,3.4s-3.399-1.525-3.399-3.4
		S117.592,23.12,119.467,23.12z M103.378,13.839c0-1.875,1.525-3.399,3.4-3.399s3.4,1.525,3.4,3.399c0,1.875-1.525,3.4-3.4,3.4
		S103.378,15.714,103.378,13.839z M22.341,13.839c0-1.875,1.525-3.399,3.4-3.399c1.875,0,3.4,1.525,3.4,3.399
		c0,1.875-1.525,3.4-3.4,3.4C23.866,17.239,22.341,15.714,22.341,13.839z M13.06,29.92c-1.875,0-3.4-1.525-3.4-3.4
		s1.525-3.4,3.4-3.4c1.875,0,3.4,1.525,3.4,3.4S14.935,29.92,13.06,29.92z M13.06,110.562c-1.875,0-3.4-1.525-3.4-3.4
		s1.525-3.4,3.4-3.4c1.875,0,3.4,1.525,3.4,3.4S14.935,110.562,13.06,110.562z M29.141,120.246c0,1.875-1.525,3.4-3.4,3.4
		c-1.875,0-3.4-1.525-3.4-3.4s1.525-3.4,3.4-3.4C27.616,116.846,29.141,118.371,29.141,120.246z M110.179,120.246
		c0,1.875-1.525,3.4-3.4,3.4s-3.4-1.525-3.4-3.4s1.525-3.4,3.4-3.4S110.179,118.371,110.179,120.246z M111.764,72.037h-9.971v-9.988
		h9.971V72.037z M61.27,21.526h9.987v9.987H61.27V21.526z M20.748,62.049h9.987v9.988h-9.987V62.049z M71.257,112.559H61.27v-9.986
		h9.987V112.559z M72.61,106.484v-5.266H59.916v5.266H26.417V73.391h5.67V60.696h-5.67V27.197h33.499v5.67H72.61v-5.67h33.491
		v33.499h-5.662v12.695h5.662v33.094H72.61z M119.467,110.562c-1.875,0-3.399-1.525-3.399-3.4s1.524-3.4,3.399-3.4
		s3.4,1.525,3.4,3.4S121.342,110.562,119.467,110.562z"/>
	<g>
		<path fill="#E6E9EE" d="M13.06,109.449c-1.261,0-2.287-1.025-2.287-2.287c0-1.26,1.026-2.287,2.287-2.287
			c1.261,0,2.287,1.027,2.287,2.287C15.347,108.424,14.321,109.449,13.06,109.449z"/>
	</g>
	<path fill="#231F20" d="M85.089,67.268l-18.825-29.75L47.438,67.266l6.668,11.475H50.3v9.793h1.354v-8.439h29.219v8.439h1.354
		V78.74h-3.805L85.089,67.268z M66.264,62.049c2.021,0,3.666,1.646,3.666,3.667c0,2.022-1.645,3.667-3.666,3.667
		s-3.666-1.645-3.666-3.667C62.598,63.694,64.242,62.049,66.264,62.049z M55.671,78.74l-6.651-11.445l16.565-26.178v19.63
		c-2.447,0.332-4.342,2.431-4.342,4.969c0,2.769,2.252,5.021,5.02,5.021s5.02-2.252,5.02-5.021c0-2.538-1.895-4.637-4.344-4.969
		v-19.63l16.566,26.18l-6.65,11.443H55.671z"/>
	<g>
		<g>
			<path fill="#231F20" d="M14.74,49.482H8.027c-0.374,0-0.677-0.303-0.677-0.677s0.303-0.677,0.677-0.677h6.713
				c0.374,0,0.677,0.303,0.677,0.677S15.114,49.482,14.74,49.482z"/>
		</g>
		<g>
			<path fill="#231F20" d="M19.162,49.482h-1.856c-0.374,0-0.677-0.303-0.677-0.677s0.303-0.677,0.677-0.677h1.856
				c0.374,0,0.677,0.303,0.677,0.677S19.535,49.482,19.162,49.482z"/>
		</g>
		<g>
			<path fill="#231F20" d="M16.597,51.892H14.74c-0.374,0-0.677-0.303-0.677-0.677c0-0.375,0.303-0.677,0.677-0.677h1.857
				c0.374,0,0.677,0.302,0.677,0.677C17.274,51.588,16.971,51.892,16.597,51.892z"/>
		</g>
	</g>
	<g>
		<circle fill="#84DBFF" cx="89.627" cy="50.078" r="2.379"/>
	</g>
	<g>
		<circle fill="#FFD05B" cx="19.161" cy="89.418" r="2.379"/>
	</g>
</g>
</svg>
