<?xml version="1.0" encoding="utf-8"?>
<!-- Generator: Adobe Illustrator 15.0.0, SVG Export Plug-In . SVG Version: 6.00 Build 0)  -->
<!DOCTYPE svg PUBLIC "-//W3C//DTD SVG 1.1//EN" "http://www.w3.org/Graphics/SVG/1.1/DTD/svg11.dtd">
<svg version="1.1" id="Layer_1" xmlns="http://www.w3.org/2000/svg" xmlns:xlink="http://www.w3.org/1999/xlink" x="0px" y="0px"
	 width="130px" height="130px" viewBox="0 0 130 130" enable-background="new 0 0 130 130" xml:space="preserve">
<g>
	<g>
		<circle fill="#FF7058" cx="67.747" cy="45.211" r="24.507"/>
	</g>
	<g>
		<g>
			<path fill="#231F20" d="M7.778,32.55c-0.192,0-0.384-0.073-0.53-0.22c-0.293-0.293-0.293-0.768,0-1.061l1.287-1.286
				c0.293-0.293,0.768-0.293,1.061,0s0.293,0.768,0,1.061L8.309,32.33C8.162,32.477,7.97,32.55,7.778,32.55z"/>
		</g>
		<g>
			<path fill="#231F20" d="M3.75,36.579c-0.192,0-0.384-0.073-0.53-0.22c-0.293-0.293-0.293-0.768,0-1.061l1.287-1.287
				c0.293-0.293,0.768-0.293,1.061,0s0.293,0.768,0,1.061L4.28,36.359C4.134,36.506,3.942,36.579,3.75,36.579z"/>
		</g>
		<g>
			<path fill="#231F20" d="M9.065,36.579c-0.192,0-0.384-0.073-0.53-0.22l-1.287-1.287c-0.293-0.293-0.293-0.768,0-1.061
				s0.768-0.293,1.061,0l1.287,1.287c0.293,0.293,0.293,0.768,0,1.061C9.449,36.506,9.257,36.579,9.065,36.579z"/>
		</g>
		<g>
			<path fill="#231F20" d="M5.037,32.55c-0.192,0-0.384-0.073-0.53-0.22L3.22,31.044c-0.293-0.293-0.293-0.768,0-1.061
				s0.768-0.293,1.061,0l1.287,1.286c0.293,0.293,0.293,0.768,0,1.061C5.42,32.477,5.229,32.55,5.037,32.55z"/>
		</g>
	</g>
	<g>
		<g>
			<path fill="#231F20" d="M124.136,18.068c-0.192,0-0.384-0.073-0.53-0.22c-0.293-0.293-0.293-0.768,0-1.061l1.287-1.286
				c0.293-0.293,0.768-0.293,1.061,0s0.293,0.768,0,1.061l-1.287,1.286C124.52,17.995,124.328,18.068,124.136,18.068z"/>
		</g>
		<g>
			<path fill="#231F20" d="M120.107,22.098c-0.192,0-0.385-0.073-0.531-0.22c-0.293-0.293-0.293-0.768,0-1.061l1.287-1.287
				c0.293-0.293,0.768-0.293,1.061,0s0.293,0.768,0,1.061l-1.287,1.287C120.49,22.024,120.299,22.098,120.107,22.098z"/>
		</g>
		<g>
			<path fill="#231F20" d="M125.423,22.098c-0.192,0-0.384-0.073-0.53-0.22l-1.287-1.287c-0.293-0.293-0.293-0.768,0-1.061
				s0.768-0.293,1.061,0l1.287,1.287c0.293,0.293,0.293,0.768,0,1.061C125.807,22.024,125.615,22.098,125.423,22.098z"/>
		</g>
		<g>
			<path fill="#231F20" d="M121.395,18.068c-0.192,0-0.385-0.073-0.531-0.22l-1.287-1.286c-0.293-0.293-0.293-0.768,0-1.061
				s0.768-0.293,1.061,0l1.287,1.286c0.293,0.293,0.293,0.768,0.001,1.061C121.778,17.995,121.586,18.068,121.395,18.068z"/>
		</g>
	</g>
	<g>
		<g>
			<path fill="#231F20" d="M19.038,94.839c-0.192,0-0.384-0.073-0.53-0.22c-0.293-0.293-0.293-0.768,0-1.061l1.287-1.287
				c0.293-0.293,0.768-0.293,1.061,0s0.293,0.768,0,1.061l-1.287,1.287C19.422,94.766,19.23,94.839,19.038,94.839z"/>
		</g>
		<g>
			<path fill="#231F20" d="M15.009,98.867c-0.192,0-0.384-0.073-0.53-0.22c-0.293-0.293-0.293-0.768,0-1.061l1.287-1.287
				c0.293-0.293,0.768-0.293,1.061,0s0.293,0.768,0,1.061l-1.287,1.287C15.393,98.794,15.201,98.867,15.009,98.867z"/>
		</g>
		<g>
			<path fill="#231F20" d="M20.325,98.867c-0.192,0-0.384-0.073-0.53-0.22l-1.287-1.287c-0.293-0.293-0.293-0.768,0-1.061
				s0.768-0.293,1.061,0l1.287,1.287c0.293,0.293,0.293,0.768,0,1.061C20.708,98.794,20.517,98.867,20.325,98.867z"/>
		</g>
		<g>
			<path fill="#231F20" d="M16.296,94.839c-0.192,0-0.384-0.073-0.53-0.22l-1.287-1.287c-0.293-0.293-0.293-0.768,0-1.061
				s0.768-0.293,1.061,0l1.287,1.287c0.293,0.293,0.293,0.768,0,1.061C16.68,94.766,16.488,94.839,16.296,94.839z"/>
		</g>
	</g>
	<g>
		<g>
			<path fill="#231F20" d="M108.012,102.435H99.92c-0.414,0-0.75-0.336-0.75-0.75s0.336-0.75,0.75-0.75h8.092
				c0.414,0,0.75,0.336,0.75,0.75S108.426,102.435,108.012,102.435z"/>
		</g>
		<g>
			<path fill="#231F20" d="M111.193,105.38h-3.958c-0.414,0-0.75-0.336-0.75-0.75s0.336-0.75,0.75-0.75h3.958
				c0.414,0,0.75,0.336,0.75,0.75S111.607,105.38,111.193,105.38z"/>
		</g>
		<g>
			<path fill="#231F20" d="M115.454,102.435h-3.772c-0.414,0-0.75-0.336-0.75-0.75s0.336-0.75,0.75-0.75h3.772
				c0.414,0,0.75,0.336,0.75,0.75S115.868,102.435,115.454,102.435z"/>
		</g>
		<g>
			<path fill="#231F20" d="M104.349,105.38h-0.771c-0.414,0-0.75-0.336-0.75-0.75s0.336-0.75,0.75-0.75h0.771
				c0.414,0,0.75,0.336,0.75,0.75S104.763,105.38,104.349,105.38z"/>
		</g>
	</g>
	<g>
		<g>
			<path fill="#231F20" d="M23.614,117.033h-8.092c-0.414,0-0.75-0.336-0.75-0.75s0.336-0.75,0.75-0.75h8.092
				c0.414,0,0.75,0.336,0.75,0.75S24.028,117.033,23.614,117.033z"/>
		</g>
		<g>
			<path fill="#231F20" d="M26.796,119.979h-3.958c-0.414,0-0.75-0.336-0.75-0.75s0.336-0.75,0.75-0.75h3.958
				c0.414,0,0.75,0.336,0.75,0.75S27.21,119.979,26.796,119.979z"/>
		</g>
		<g>
			<path fill="#231F20" d="M31.057,117.033h-3.772c-0.414,0-0.75-0.336-0.75-0.75s0.336-0.75,0.75-0.75h3.772
				c0.414,0,0.75,0.336,0.75,0.75S31.471,117.033,31.057,117.033z"/>
		</g>
		<g>
			<path fill="#231F20" d="M19.951,119.979H19.18c-0.414,0-0.75-0.336-0.75-0.75s0.336-0.75,0.75-0.75h0.771
				c0.414,0,0.75,0.336,0.75,0.75S20.365,119.979,19.951,119.979z"/>
		</g>
	</g>
	<rect x="103.188" y="40.7" fill="#FFFFFF" width="9.022" height="9.021"/>
	<rect x="23.289" y="40.7" fill="#FFFFFF" width="9.022" height="9.021"/>
	<rect x="63.239" y="0.75" fill="#FFFFFF" width="9.022" height="9.022"/>
	<circle fill="#FFFFFF" cx="100.059" cy="5.262" r="3.129"/>
	<circle fill="#FFFFFF" cx="107.699" cy="77.066" r="3.129"/>
	<circle fill="#FFFFFF" cx="107.695" cy="12.903" r="3.129"/>
	<circle fill="#FFFFFF" cx="27.803" cy="77.066" r="3.129"/>
	<circle fill="#FFFFFF" cx="27.798" cy="12.903" r="3.129"/>
	<circle fill="#FFFFFF" cx="35.441" cy="5.262" r="3.129"/>
	<rect x="50.731" y="103.157" fill="#FFFFFF" width="34.015" height="4.902"/>
	<path fill="#FFFFFF" d="M88.925,95.461H46.553c-1.337,0-2.421,1.084-2.421,2.421v2.854c0,1.337,1.084,2.421,2.421,2.421h42.372
		c1.337,0,2.421-1.084,2.421-2.421v-2.854C91.346,96.545,90.262,95.461,88.925,95.461z"/>
	<g>
		<path fill="#84DBFF" d="M46.553,101.157c-0.232,0-0.421-0.188-0.421-0.421v-2.855c0-0.232,0.189-0.421,0.421-0.421h42.372
			c0.231,0,0.421,0.188,0.421,0.421v2.855c0,0.232-0.189,0.421-0.421,0.421H46.553z"/>
	</g>
	<path fill="#FFFFFF" d="M88.925,108.06H46.553c-1.337,0-2.421,1.083-2.421,2.42v2.855c0,1.337,1.084,2.421,2.421,2.421h42.372
		c1.337,0,2.421-1.084,2.421-2.421v-2.855C91.346,109.143,90.262,108.06,88.925,108.06z"/>
	<g>
		<path fill="#84DBFF" d="M46.553,113.756c-0.232,0-0.421-0.188-0.421-0.421v-2.855c0-0.232,0.189-0.421,0.421-0.421h42.372
			c0.231,0,0.421,0.188,0.421,0.421v2.855c0,0.232-0.189,0.421-0.421,0.421H46.553z"/>
	</g>
	<path fill="#FFFFFF" d="M67.738,128.75L67.738,128.75c-7.176,0-12.994-5.817-12.994-12.994l0,0h25.989l0,0
		C80.733,122.933,74.915,128.75,67.738,128.75z"/>
	<g>
		<path fill="#FFD05B" d="M67.738,126.75c-5.379,0-9.869-3.883-10.812-8.994h21.625C77.608,122.867,73.118,126.75,67.738,126.75z"/>
	</g>
	<rect x="58.741" y="41.693" fill="#FFFFFF" width="18.011" height="53.767"/>
	<polygon fill="#FFFFFF" points="58.741,41.693 67.746,26.688 76.752,41.693 	"/>
	<polygon fill="#FFFFFF" points="63.855,33.171 71.637,33.171 67.746,26.688 	"/>
	<path fill="#231F20" d="M112.211,39.95h-3.761l-0.001-23.244c1.779-0.353,3.125-1.923,3.125-3.804c0-2.139-1.74-3.879-3.879-3.879
		c-2.14,0-3.88,1.74-3.88,3.879c0,1.885,1.351,3.456,3.134,3.805l0.001,17.665C103.154,20.656,92.348,9.832,78.64,6.017h17.616
		c0.354,1.778,1.923,3.124,3.803,3.124c2.14,0,3.88-1.74,3.88-3.879c0-2.14-1.74-3.88-3.88-3.88c-1.883,0-3.454,1.351-3.803,3.135
		H73.011V0.75c0-0.414-0.336-0.75-0.75-0.75h-9.022c-0.199,0-0.39,0.079-0.53,0.22s-0.22,0.331-0.22,0.53v3.767H39.245
		c-0.349-1.784-1.92-3.135-3.804-3.135c-2.139,0-3.879,1.74-3.879,3.88c0,2.139,1.74,3.879,3.879,3.879
		c1.88,0,3.451-1.346,3.803-3.124h17.598C43.153,9.831,32.358,20.639,28.553,34.332l0-17.626c1.779-0.353,3.125-1.923,3.125-3.804
		c0-2.139-1.74-3.879-3.879-3.879s-3.879,1.74-3.879,3.879c0,1.885,1.351,3.456,3.134,3.805l0,23.243h-3.764
		c-0.414,0-0.75,0.336-0.75,0.75v9.021c0,0.414,0.336,0.75,0.75,0.75h3.759v22.792c-1.779,0.353-3.125,1.923-3.125,3.803
		c0,2.139,1.74,3.879,3.879,3.879s3.879-1.74,3.879-3.879c0-1.884-1.351-3.455-3.134-3.804V55.906
		c3.063,11.151,10.783,20.738,21.434,25.913v12.892h-3.429c-1.749,0-3.171,1.423-3.171,3.171v2.854c0,1.748,1.422,3.171,3.171,3.171
		h3.429v3.401h-3.429c-1.749,0-3.171,1.423-3.171,3.171v2.855c0,1.748,1.422,3.171,3.171,3.171h7.479
		c0.393,7.229,6.381,12.994,13.706,12.994s13.313-5.766,13.707-12.994h7.479c1.749,0,3.171-1.423,3.171-3.171v-2.855
		c0-1.748-1.422-3.171-3.171-3.171h-3.429v-3.401h3.429c1.749,0,3.171-1.423,3.171-3.171v-2.854c0-1.748-1.422-3.171-3.171-3.171
		h-3.429V81.834c10.654-5.188,18.381-14.776,21.449-25.921v17.351c-1.779,0.353-3.125,1.923-3.125,3.803
		c0,2.139,1.74,3.879,3.879,3.879c2.14,0,3.88-1.74,3.88-3.879c0-1.884-1.351-3.455-3.134-3.804V50.472h3.766
		c0.414,0,0.75-0.336,0.75-0.75V40.7C112.961,40.286,112.625,39.95,112.211,39.95z M100.059,2.882c1.312,0,2.38,1.067,2.38,2.38
		c0,1.312-1.067,2.379-2.38,2.379c-1.311,0-2.379-1.067-2.379-2.379C97.68,3.949,98.748,2.882,100.059,2.882z M35.441,7.641
		c-1.312,0-2.379-1.067-2.379-2.379c0-1.312,1.067-2.38,2.379-2.38s2.379,1.067,2.379,2.38C37.82,6.573,36.753,7.641,35.441,7.641z
		 M105.315,12.902c0-1.312,1.067-2.379,2.38-2.379c1.312,0,2.379,1.067,2.379,2.379c0,1.312-1.067,2.38-2.379,2.38
		C106.383,15.282,105.315,14.215,105.315,12.902z M71.511,1.5v7.522h-7.522l0-7.522H71.511z M25.418,12.902
		c0-1.312,1.067-2.379,2.379-2.379s2.379,1.067,2.379,2.379c0,1.312-1.067,2.38-2.379,2.38S25.418,14.215,25.418,12.902z
		 M24.039,41.45h7.522v7.521h-7.522V41.45z M30.182,77.066c0,1.312-1.067,2.379-2.379,2.379s-2.379-1.067-2.379-2.379
		s1.067-2.379,2.379-2.379S30.182,75.755,30.182,77.066z M67.738,128c-6.5,0-11.833-5.091-12.221-11.494H79.96
		C79.571,122.909,74.238,128,67.738,128z M88.925,108.809c0.921,0,1.671,0.75,1.671,1.671v2.855c0,0.921-0.75,1.671-1.671,1.671
		H46.553c-0.921,0-1.671-0.75-1.671-1.671v-2.855c0-0.921,0.75-1.671,1.671-1.671H88.925z M51.481,107.309v-3.401h32.515v3.401
		H51.481z M88.925,96.211c0.921,0,1.671,0.75,1.671,1.671v2.854c0,0.921-0.75,1.671-1.671,1.671H46.553
		c-0.921,0-1.671-0.75-1.671-1.671v-2.854c0-0.921,0.75-1.671,1.671-1.671H88.925z M71.213,33.921l4.214,7.022H60.065l4.214-7.022
		H71.213z M65.18,32.421l2.566-4.275l2.566,4.275H65.18z M76.002,42.443V94.71h-4.596V42.443H76.002z M69.906,42.443V94.71h-4.32
		V42.443H69.906z M64.086,42.443V94.71h-4.596V42.443H64.086z M110.079,77.066c0,1.312-1.067,2.379-2.38,2.379
		c-1.312,0-2.379-1.067-2.379-2.379s1.067-2.379,2.379-2.379C109.012,74.688,110.079,75.755,110.079,77.066z M84.426,80.685
		c-0.263,0.124-0.43,0.388-0.43,0.678V94.71h-6.494V41.693c0-0.002-0.001-0.004-0.001-0.006c0-0.009-0.005-0.017-0.006-0.026
		c-0.005-0.114-0.038-0.219-0.089-0.314c-0.007-0.012-0.004-0.027-0.012-0.039l-9.006-15.005c-0.271-0.451-1.014-0.451-1.285,0
		l-9.006,15.005c-0.007,0.012-0.005,0.027-0.011,0.039c-0.051,0.096-0.084,0.2-0.089,0.314c0,0.01-0.005,0.018-0.005,0.026
		c0,0.002-0.001,0.004-0.001,0.006V94.71h-6.509V81.347c0-0.29-0.167-0.555-0.43-0.679c-12.058-5.683-20.31-17.195-22.094-30.196
		h3.354c0.414,0,0.75-0.336,0.75-0.75V40.7c0-0.414-0.336-0.75-0.75-0.75h-3.385C31.275,22.545,45.082,8.736,62.489,6.39v3.383
		c0,0.414,0.336,0.75,0.75,0.75h9.022c0.414,0,0.75-0.336,0.75-0.75V6.391c17.404,2.35,31.21,16.156,33.558,33.56h-3.38
		c-0.414,0-0.75,0.336-0.75,0.75v9.021c0,0.414,0.336,0.75,0.75,0.75h3.355C104.758,63.466,96.491,74.984,84.426,80.685z
		 M111.461,48.972h-7.522V41.45h7.522V48.972z"/>
	<g>
		<path fill="#231F20" d="M67.605,75.145v-1.5h0.141c0.278-0.001,0.559-0.005,0.838-0.013l0.041,1.5
			c-0.291,0.008-0.583,0.012-0.877,0.013H67.605z M65.553,75.065c-0.342-0.025-0.682-0.055-1.021-0.091l0.159-1.492
			c0.322,0.034,0.646,0.063,0.971,0.087L65.553,75.065z M70.672,75.003l-0.145-1.492c0.325-0.032,0.647-0.069,0.969-0.111
			l0.194,1.488C71.353,74.932,71.014,74.971,70.672,75.003z M62.502,74.687c-0.337-0.06-0.673-0.125-1.006-0.196l0.312-1.467
			c0.317,0.067,0.636,0.129,0.957,0.187L62.502,74.687z M73.714,74.549l-0.298-1.471c0.319-0.064,0.636-0.134,0.951-0.209
			l0.349,1.459C74.384,74.407,74.05,74.48,73.714,74.549z M59.506,73.995c-0.33-0.094-0.657-0.193-0.982-0.298l0.463-1.428
			c0.308,0.101,0.618,0.194,0.931,0.284L59.506,73.995z M76.692,73.785l-0.448-1.432c0.311-0.097,0.618-0.199,0.925-0.308
			l0.497,1.416C77.344,73.574,77.02,73.683,76.692,73.785z M56.594,72.997c-0.318-0.128-0.633-0.261-0.946-0.398l0.605-1.373
			c0.298,0.132,0.598,0.259,0.901,0.381L56.594,72.997z M79.574,72.717L78.98,71.34c0.298-0.129,0.593-0.262,0.886-0.4l0.64,1.357
			C80.198,72.441,79.888,72.582,79.574,72.717z M53.799,71.703c-0.302-0.16-0.602-0.325-0.898-0.493l0.742-1.304
			c0.283,0.161,0.569,0.318,0.857,0.471L53.799,71.703z M82.329,71.359l-0.734-1.309c0.283-0.159,0.563-0.321,0.841-0.489
			l0.776,1.283C82.921,71.021,82.626,71.192,82.329,71.359z M51.154,70.13c-0.285-0.19-0.566-0.385-0.844-0.584l0.875-1.219
			c0.264,0.189,0.531,0.374,0.802,0.555L51.154,70.13z M84.928,69.726l-0.861-1.229c0.267-0.187,0.528-0.378,0.787-0.572
			l0.902,1.197C85.483,69.328,85.208,69.529,84.928,69.726z M48.686,68.292c-0.263-0.218-0.522-0.439-0.778-0.666l0.994-1.123
			c0.243,0.215,0.491,0.427,0.741,0.635L48.686,68.292z M87.35,67.833l-0.982-1.135c0.245-0.212,0.487-0.429,0.725-0.649l1.021,1.1
			C87.862,67.381,87.607,67.609,87.35,67.833z M46.419,66.216c-0.24-0.243-0.476-0.491-0.707-0.743l1.104-1.014
			c0.219,0.238,0.443,0.473,0.671,0.704L46.419,66.216z M89.565,65.704l-1.091-1.029c0.223-0.235,0.439-0.476,0.653-0.72
			l1.129,0.988C90.031,65.201,89.801,65.455,89.565,65.704z M44.376,63.917c-0.213-0.266-0.421-0.536-0.626-0.81l1.2-0.898
			c0.195,0.26,0.394,0.517,0.597,0.771L44.376,63.917z M91.555,63.357l-1.191-0.912c0.197-0.258,0.39-0.519,0.578-0.783l1.223,0.867
			C91.966,62.81,91.763,63.086,91.555,63.357z M42.58,61.424c-0.185-0.286-0.365-0.576-0.541-0.869l1.288-0.77
			c0.167,0.279,0.337,0.554,0.513,0.826L42.58,61.424z M93.293,60.819l-1.277-0.787c0.17-0.275,0.334-0.555,0.494-0.838l1.307,0.738
			C93.646,60.231,93.473,60.528,93.293,60.819z M41.048,58.762c-0.154-0.304-0.303-0.609-0.448-0.919l1.358-0.635
			c0.138,0.294,0.28,0.586,0.426,0.874L41.048,58.762z M94.766,58.112l-1.355-0.645c0.141-0.294,0.276-0.591,0.406-0.89l1.375,0.6
			C95.055,57.492,94.912,57.803,94.766,58.112z M39.8,55.957c-0.123-0.318-0.24-0.641-0.352-0.964l1.418-0.49
			c0.106,0.308,0.217,0.612,0.333,0.915L39.8,55.957z M95.947,55.27l-1.412-0.504c0.109-0.307,0.213-0.614,0.312-0.926l1.43,0.455
			C96.172,54.622,96.062,54.947,95.947,55.27z M38.846,53.033c-0.089-0.33-0.173-0.662-0.25-0.996l1.461-0.34
			c0.074,0.316,0.153,0.631,0.238,0.943L38.846,53.033z M96.83,52.321l-1.457-0.357c0.077-0.314,0.148-0.631,0.215-0.949
			l1.469,0.305C96.986,51.655,96.911,51.989,96.83,52.321z M38.199,50.027c-0.055-0.337-0.104-0.676-0.146-1.017l1.488-0.188
			c0.041,0.323,0.087,0.645,0.139,0.964L38.199,50.027z M97.403,49.299l-1.486-0.203c0.044-0.32,0.083-0.643,0.115-0.967l1.492,0.15
			C97.49,48.621,97.449,48.961,97.403,49.299z M37.864,46.971c-0.02-0.339-0.034-0.681-0.042-1.023l1.5-0.037
			c0.008,0.327,0.021,0.651,0.04,0.975L37.864,46.971z M97.662,46.236l-1.498-0.051c0.01-0.323,0.016-0.648,0.016-0.975
			l-0.002-0.427l1.5-0.02l0.002,0.446C97.68,45.555,97.674,45.896,97.662,46.236z M39.34,43.963l-1.499-0.066
			c0.015-0.342,0.036-0.684,0.062-1.023l1.495,0.117C39.374,43.312,39.354,43.637,39.34,43.963z M96.082,42.838
			c-0.026-0.323-0.059-0.647-0.097-0.969l1.49-0.174c0.04,0.339,0.073,0.679,0.102,1.02L96.082,42.838z M39.615,41.054l-1.484-0.217
			c0.05-0.34,0.105-0.678,0.167-1.013l1.476,0.27C39.714,40.411,39.662,40.731,39.615,41.054z M95.694,39.945
			c-0.061-0.32-0.126-0.639-0.196-0.955l1.464-0.326c0.074,0.332,0.143,0.666,0.206,1.004L95.694,39.945z M40.187,38.19
			l-1.454-0.369c0.084-0.332,0.174-0.662,0.27-0.989l1.439,0.42C40.352,37.563,40.266,37.876,40.187,38.19z M95.01,37.106
			c-0.094-0.312-0.191-0.622-0.295-0.929l1.424-0.477c0.107,0.324,0.211,0.649,0.309,0.978L95.01,37.106z M41.05,35.401
			l-1.407-0.518c0.119-0.323,0.242-0.643,0.372-0.959l1.389,0.566C41.281,34.792,41.163,35.096,41.05,35.401z M94.033,34.353
			c-0.124-0.3-0.253-0.596-0.387-0.89l1.365-0.621c0.142,0.31,0.277,0.623,0.408,0.938L94.033,34.353z M42.2,32.712l-1.347-0.66
			c0.15-0.308,0.307-0.612,0.468-0.914l1.323,0.705C42.492,32.131,42.344,32.42,42.2,32.712z M92.782,31.721
			c-0.153-0.285-0.313-0.568-0.477-0.848l1.295-0.758c0.173,0.295,0.339,0.592,0.502,0.893L92.782,31.721z M43.621,30.156
			l-1.271-0.795c0.182-0.291,0.368-0.578,0.56-0.862l1.243,0.84C43.971,29.607,43.794,29.881,43.621,30.156z M91.266,29.228
			c-0.183-0.269-0.369-0.533-0.561-0.794l1.21-0.887c0.202,0.276,0.399,0.555,0.592,0.839L91.266,29.228z M45.296,27.76
			l-1.184-0.922c0.21-0.27,0.425-0.536,0.644-0.799L45.909,27C45.701,27.249,45.497,27.502,45.296,27.76z M89.5,26.901
			c-0.209-0.249-0.422-0.493-0.639-0.733l1.113-1.006c0.229,0.254,0.453,0.512,0.674,0.774L89.5,26.901z M47.206,25.55l-1.082-1.039
			c0.236-0.246,0.476-0.487,0.72-0.727l1.049,1.072C47.66,25.084,47.431,25.315,47.206,25.55z M87.507,24.767
			c-0.233-0.226-0.471-0.447-0.712-0.665l1.006-1.113c0.254,0.229,0.504,0.463,0.749,0.7L87.507,24.767z M49.333,23.545
			l-0.973-1.143c0.26-0.222,0.524-0.438,0.792-0.651l0.932,1.176C49.83,23.128,49.579,23.335,49.333,23.545z M85.304,22.846
			c-0.255-0.202-0.514-0.397-0.775-0.59l0.887-1.209c0.276,0.202,0.549,0.409,0.818,0.621L85.304,22.846z M51.65,21.77L50.8,20.533
			c0.281-0.193,0.565-0.381,0.854-0.565l0.808,1.264C52.188,21.406,51.917,21.586,51.65,21.77z M82.92,21.16
			c-0.275-0.174-0.554-0.344-0.835-0.509l0.759-1.293c0.295,0.173,0.587,0.351,0.876,0.532L82.92,21.16z M54.136,20.24l-0.719-1.316
			c0.299-0.163,0.601-0.321,0.907-0.475l0.673,1.34C54.707,19.935,54.42,20.085,54.136,20.24z M80.37,19.728
			c-0.292-0.145-0.586-0.285-0.883-0.42l0.621-1.365c0.312,0.143,0.622,0.289,0.929,0.441L80.37,19.728z M56.763,18.977
			l-0.578-1.385c0.313-0.131,0.63-0.257,0.949-0.378l0.532,1.402C57.363,18.731,57.062,18.852,56.763,18.977z M77.687,18.563
			c-0.305-0.113-0.612-0.222-0.922-0.326l0.477-1.422c0.325,0.108,0.647,0.223,0.968,0.342L77.687,18.563z M59.509,17.988
			l-0.436-1.436c0.327-0.099,0.656-0.192,0.987-0.28l0.386,1.449C60.132,17.806,59.819,17.894,59.509,17.988z M74.896,17.684
			c-0.312-0.082-0.627-0.157-0.944-0.228l0.324-1.465c0.336,0.074,0.669,0.155,0.999,0.241L74.896,17.684z M62.343,17.289
			l-0.282-1.473c0.334-0.064,0.671-0.123,1.01-0.177l0.232,1.482C62.981,17.172,62.661,17.229,62.343,17.289z M72.037,17.099
			c-0.32-0.048-0.643-0.091-0.966-0.129l0.175-1.49c0.34,0.04,0.679,0.085,1.016,0.137L72.037,17.099z M65.237,16.887l-0.132-1.494
			c0.34-0.03,0.681-0.054,1.024-0.072l0.079,1.498C65.883,16.835,65.559,16.858,65.237,16.887z M69.132,16.811
			c-0.324-0.015-0.649-0.025-0.976-0.03l0.021-1.5c0.344,0.005,0.685,0.016,1.024,0.032L69.132,16.811z"/>
	</g>
	<g>
		<circle fill="#FFD05B" cx="12.037" cy="13.544" r="2.972"/>
	</g>
	<g>
		<circle fill="#84DBFF" cx="121.394" cy="58.629" r="2.972"/>
	</g>
	<g>
		<circle fill="#E6E9EE" cx="32.312" cy="92.802" r="2.972"/>
	</g>
</g>
</svg>
