<?xml version="1.0" encoding="utf-8"?>
<!-- Generator: Adobe Illustrator 15.0.0, SVG Export Plug-In . SVG Version: 6.00 Build 0)  -->
<!DOCTYPE svg PUBLIC "-//W3C//DTD SVG 1.1//EN" "http://www.w3.org/Graphics/SVG/1.1/DTD/svg11.dtd">
<svg version="1.1" id="Layer_1" xmlns="http://www.w3.org/2000/svg" xmlns:xlink="http://www.w3.org/1999/xlink" x="0px" y="0px"
	 width="130px" height="130px" viewBox="0 0 130 130" enable-background="new 0 0 130 130" xml:space="preserve">
<g>
	<g>
		<g>
			<path fill="#231F20" d="M117.979,13.183c-0.192,0-0.384-0.073-0.53-0.22c-0.293-0.293-0.293-0.768,0-1.061l1.268-1.267
				c0.294-0.294,0.769-0.292,1.061,0c0.293,0.293,0.293,0.768,0,1.061l-1.268,1.267C118.363,13.11,118.171,13.183,117.979,13.183z"
				/>
		</g>
		<g>
			<path fill="#231F20" d="M114.012,17.151c-0.192,0-0.384-0.073-0.53-0.22c-0.293-0.293-0.293-0.768,0-1.061l1.268-1.268
				c0.293-0.293,0.768-0.293,1.061,0s0.293,0.768,0,1.061l-1.268,1.268C114.396,17.078,114.204,17.151,114.012,17.151z"/>
		</g>
		<g>
			<path fill="#231F20" d="M119.247,17.151c-0.192,0-0.384-0.073-0.53-0.22l-1.268-1.268c-0.293-0.293-0.293-0.768,0-1.061
				s0.768-0.293,1.061,0l1.268,1.268c0.293,0.293,0.293,0.768,0,1.061C119.631,17.078,119.439,17.151,119.247,17.151z"/>
		</g>
		<g>
			<path fill="#231F20" d="M115.279,13.183c-0.192,0-0.384-0.073-0.53-0.22l-1.268-1.267c-0.293-0.292-0.293-0.768,0-1.061
				s0.768-0.293,1.061,0l1.268,1.267c0.293,0.292,0.293,0.768,0,1.061C115.663,13.11,115.472,13.183,115.279,13.183z"/>
		</g>
	</g>
	<g>
		<g>
			<path fill="#231F20" d="M121.947,103.705c-0.192,0-0.384-0.073-0.53-0.22c-0.293-0.293-0.293-0.769,0-1.061l1.268-1.267
				c0.293-0.295,0.768-0.293,1.061,0s0.293,0.768,0,1.061l-1.268,1.267C122.331,103.632,122.139,103.705,121.947,103.705z"/>
		</g>
		<g>
			<path fill="#231F20" d="M117.979,107.673c-0.192,0-0.384-0.073-0.53-0.22c-0.293-0.293-0.293-0.768,0-1.061l1.268-1.268
				c0.293-0.293,0.768-0.293,1.061,0s0.293,0.768,0,1.061l-1.268,1.268C118.363,107.6,118.172,107.673,117.979,107.673z"/>
		</g>
		<g>
			<path fill="#231F20" d="M123.215,107.673c-0.192,0-0.384-0.073-0.53-0.22l-1.268-1.268c-0.293-0.293-0.293-0.768,0-1.061
				s0.768-0.293,1.061,0l1.268,1.268c0.293,0.293,0.293,0.768,0,1.061C123.599,107.6,123.407,107.673,123.215,107.673z"/>
		</g>
		<g>
			<path fill="#231F20" d="M119.247,103.705c-0.192,0-0.384-0.073-0.53-0.22l-1.268-1.268c-0.293-0.293-0.293-0.768,0-1.061
				s0.768-0.293,1.061,0l1.268,1.268c0.293,0.293,0.293,0.768,0,1.061C119.631,103.632,119.439,103.705,119.247,103.705z"/>
		</g>
	</g>
	<g>
		<g>
			<path fill="#231F20" d="M13.981,23.789c-0.192,0-0.384-0.073-0.53-0.22c-0.293-0.293-0.293-0.768,0-1.061l1.268-1.267
				c0.294-0.293,0.769-0.292,1.061,0c0.293,0.293,0.293,0.768,0,1.061l-1.268,1.267C14.365,23.716,14.173,23.789,13.981,23.789z"/>
		</g>
		<g>
			<path fill="#231F20" d="M10.014,27.757c-0.192,0-0.384-0.073-0.53-0.22c-0.293-0.293-0.293-0.768,0-1.061l1.268-1.268
				c0.293-0.293,0.768-0.293,1.061,0s0.293,0.768,0,1.061l-1.268,1.268C10.397,27.684,10.206,27.757,10.014,27.757z"/>
		</g>
		<g>
			<path fill="#231F20" d="M15.249,27.757c-0.192,0-0.384-0.073-0.53-0.22l-1.268-1.268c-0.293-0.293-0.293-0.768,0-1.061
				s0.768-0.293,1.061,0l1.268,1.268c0.293,0.293,0.293,0.768,0,1.061C15.633,27.684,15.441,27.757,15.249,27.757z"/>
		</g>
		<g>
			<path fill="#231F20" d="M11.281,23.789c-0.192,0-0.384-0.073-0.53-0.22l-1.268-1.268c-0.293-0.293-0.293-0.768,0-1.061
				s0.768-0.293,1.061,0l1.268,1.268c0.293,0.293,0.293,0.768,0,1.061C11.665,23.716,11.474,23.789,11.281,23.789z"/>
		</g>
	</g>
	<path fill="#E6E9EE" d="M72.687,54.994V39.448c0-1.203-0.976-2.179-2.179-2.179H2.928c-1.203,0-2.179,0.976-2.179,2.179v15.545
		H72.687z"/>
	<path fill="#54C0EB" d="M72.688,39.445v6.246H22.64l-1.532-4.212H8.485L6.953,45.69H0.75v-6.246c0-1.203,0.976-2.179,2.179-2.179
		h67.579C71.712,37.266,72.688,38.242,72.688,39.445z"/>
	<polygon fill="#CED5E0" points="38.323,45.689 22.638,45.689 24.17,41.479 36.791,41.479 	"/>
	<rect x="11.227" y="47.917" fill="#FFFFFF" width="49.103" height="5.073"/>
	<path fill="#324A5E" d="M12.875,49.229h0.295v1.009h0.006c0.047-0.083,0.121-0.157,0.211-0.208c0.087-0.05,0.19-0.083,0.301-0.083
		c0.217,0,0.564,0.134,0.564,0.692v0.962h-0.294v-0.929c0-0.26-0.097-0.481-0.374-0.481c-0.191,0-0.342,0.134-0.395,0.294
		c-0.017,0.04-0.02,0.083-0.02,0.141v0.976h-0.295V49.229z"/>
	<path fill="#324A5E" d="M15.074,49.52v0.465h0.421v0.224h-0.421v0.872c0,0.201,0.057,0.314,0.221,0.314
		c0.076,0,0.133-0.01,0.17-0.02l0.014,0.22c-0.057,0.023-0.146,0.04-0.261,0.04c-0.137,0-0.247-0.043-0.317-0.124
		c-0.084-0.087-0.113-0.23-0.113-0.421v-0.882h-0.251v-0.224h0.251v-0.388L15.074,49.52z"/>
	<path fill="#324A5E" d="M16.182,49.52v0.465h0.422v0.224h-0.422v0.872c0,0.201,0.057,0.314,0.221,0.314
		c0.077,0,0.134-0.01,0.171-0.02l0.013,0.22c-0.057,0.023-0.146,0.04-0.26,0.04c-0.137,0-0.248-0.043-0.318-0.124
		c-0.083-0.087-0.113-0.23-0.113-0.421v-0.882h-0.25v-0.224h0.25v-0.388L16.182,49.52z"/>
	<path fill="#324A5E" d="M16.936,50.513c0-0.207-0.006-0.375-0.014-0.528h0.265l0.013,0.277h0.008
		c0.119-0.197,0.311-0.314,0.574-0.314c0.391,0,0.686,0.331,0.686,0.822c0,0.582-0.354,0.869-0.736,0.869
		c-0.213,0-0.4-0.093-0.497-0.254h-0.007v0.879h-0.291V50.513z M17.227,50.944c0,0.043,0.007,0.083,0.014,0.12
		c0.053,0.204,0.23,0.344,0.441,0.344c0.311,0,0.49-0.254,0.49-0.625c0-0.324-0.17-0.602-0.48-0.602
		c-0.201,0-0.389,0.144-0.445,0.364c-0.01,0.037-0.02,0.081-0.02,0.121V50.944z"/>
	<path fill="#324A5E" d="M18.771,50.252c0-0.124,0.083-0.21,0.2-0.21s0.193,0.087,0.197,0.21c0,0.117-0.076,0.207-0.2,0.207
		C18.851,50.459,18.771,50.369,18.771,50.252z M18.771,51.432c0-0.124,0.083-0.21,0.2-0.21s0.193,0.087,0.197,0.21
		c0,0.117-0.076,0.207-0.2,0.207C18.851,51.639,18.771,51.548,18.771,51.432z"/>
	<path fill="#324A5E" d="M19.286,51.736l0.933-2.423h0.227l-0.936,2.423H19.286z"/>
	<path fill="#324A5E" d="M20.436,51.736l0.932-2.423h0.227l-0.936,2.423H20.436z"/>
	<path fill="#324A5E" d="M22.658,49.985l0.213,0.822c0.047,0.181,0.09,0.348,0.121,0.515h0.01c0.037-0.164,0.09-0.337,0.143-0.511
		l0.264-0.825h0.248l0.25,0.809c0.061,0.194,0.107,0.364,0.145,0.528h0.01c0.027-0.164,0.07-0.334,0.123-0.524l0.23-0.812h0.291
		l-0.521,1.617h-0.266L23.67,50.83c-0.057-0.18-0.104-0.341-0.145-0.531H23.52c-0.041,0.194-0.09,0.361-0.146,0.535l-0.262,0.769
		h-0.268l-0.486-1.617H22.658z"/>
	<path fill="#324A5E" d="M25.162,49.985l0.213,0.822c0.047,0.181,0.09,0.348,0.121,0.515h0.01c0.037-0.164,0.09-0.337,0.143-0.511
		l0.264-0.825h0.248l0.25,0.809c0.061,0.194,0.107,0.364,0.145,0.528h0.01c0.027-0.164,0.07-0.334,0.123-0.524l0.23-0.812h0.291
		l-0.521,1.617h-0.266l-0.248-0.772c-0.057-0.18-0.104-0.341-0.145-0.531h-0.006c-0.041,0.194-0.09,0.361-0.146,0.535l-0.262,0.769
		h-0.268l-0.486-1.617H25.162z"/>
	<path fill="#324A5E" d="M27.666,49.985l0.213,0.822c0.047,0.181,0.09,0.348,0.121,0.515h0.01c0.037-0.164,0.09-0.337,0.143-0.511
		l0.264-0.825h0.248l0.25,0.809c0.061,0.194,0.107,0.364,0.145,0.528h0.01c0.027-0.164,0.07-0.334,0.123-0.524l0.23-0.812h0.291
		l-0.521,1.617h-0.266l-0.248-0.772c-0.057-0.18-0.104-0.341-0.145-0.531h-0.006c-0.041,0.194-0.09,0.361-0.146,0.535l-0.262,0.769
		h-0.268l-0.486-1.617H27.666z"/>
	<path fill="#324A5E" d="M29.811,51.428c0-0.124,0.084-0.21,0.201-0.21s0.197,0.087,0.197,0.21c0,0.12-0.078,0.21-0.201,0.21
		C29.891,51.639,29.811,51.548,29.811,51.428z"/>
	<g>
		<path fill="#E6E9EE" d="M104.506,21.771V6.249c0-1.202-0.974-2.176-2.176-2.176H34.848c-1.202,0-2.176,0.974-2.176,2.176v15.522
			H104.506z"/>
	</g>
	<g>
		<path fill="#54C0EB" d="M104.507,6.246v6.236H54.531L53,8.276H40.397l-1.53,4.206h-6.195V6.246c0-1.202,0.974-2.176,2.176-2.176
			h67.483C103.532,4.07,104.507,5.044,104.507,6.246z"/>
	</g>
	<g>
		<circle fill="#FF7058" cx="98.68" cy="8.351" r="2.004"/>
	</g>
	<g>
		<circle fill="#FFD05B" cx="93.153" cy="8.351" r="2.004"/>
	</g>
	<g>
		<circle fill="#E6E9EE" cx="87.705" cy="8.351" r="2.004"/>
	</g>
	<g>
		<polygon fill="#CED5E0" points="70.191,12.481 54.529,12.481 56.059,8.277 68.662,8.277 		"/>
	</g>
	<g>
		<rect x="43.134" y="14.705" fill="#FFFFFF" width="49.033" height="5.066"/>
	</g>
	<g>
		<path fill="#324A5E" d="M44.781,16.013h0.293v1.009h0.008c0.047-0.083,0.119-0.157,0.209-0.208
			c0.088-0.05,0.191-0.083,0.301-0.083c0.219,0,0.566,0.134,0.566,0.692v0.962h-0.295v-0.929c0-0.26-0.098-0.481-0.375-0.481
			c-0.189,0-0.34,0.134-0.395,0.294c-0.016,0.04-0.02,0.083-0.02,0.141v0.976h-0.293V16.013z"/>
		<path fill="#324A5E" d="M46.977,16.304v0.465h0.422v0.224h-0.422v0.872c0,0.201,0.057,0.314,0.221,0.314
			c0.076,0,0.133-0.01,0.17-0.02l0.014,0.22c-0.057,0.023-0.146,0.04-0.26,0.04c-0.139,0-0.248-0.043-0.318-0.124
			c-0.084-0.087-0.113-0.23-0.113-0.421v-0.882h-0.25v-0.224h0.25v-0.388L46.977,16.304z"/>
		<path fill="#324A5E" d="M48.084,16.304v0.465h0.42v0.224h-0.42v0.872c0,0.201,0.057,0.314,0.219,0.314
			c0.078,0,0.135-0.01,0.172-0.02l0.014,0.22c-0.059,0.023-0.148,0.04-0.262,0.04c-0.137,0-0.248-0.043-0.316-0.124
			c-0.084-0.087-0.115-0.23-0.115-0.421v-0.882h-0.25v-0.224h0.25v-0.388L48.084,16.304z"/>
		<path fill="#324A5E" d="M48.836,17.296c0-0.207-0.008-0.375-0.014-0.528h0.264l0.014,0.277h0.006
			c0.121-0.197,0.311-0.314,0.576-0.314c0.391,0,0.684,0.331,0.684,0.822c0,0.582-0.354,0.869-0.734,0.869
			c-0.215,0-0.4-0.093-0.498-0.254h-0.006v0.879h-0.291V17.296z M49.127,17.728c0,0.043,0.006,0.083,0.012,0.12
			c0.055,0.204,0.23,0.344,0.441,0.344c0.311,0,0.492-0.254,0.492-0.625c0-0.324-0.172-0.602-0.482-0.602
			c-0.199,0-0.387,0.144-0.443,0.364c-0.01,0.037-0.02,0.081-0.02,0.121V17.728z"/>
		<path fill="#324A5E" d="M50.668,17.036c0-0.124,0.082-0.21,0.199-0.21s0.195,0.087,0.197,0.21c0,0.117-0.076,0.207-0.199,0.207
			C50.748,17.243,50.668,17.153,50.668,17.036z M50.668,18.215c0-0.124,0.082-0.21,0.199-0.21s0.195,0.087,0.197,0.21
			c0,0.117-0.076,0.207-0.199,0.207C50.748,18.422,50.668,18.333,50.668,18.215z"/>
		<path fill="#324A5E" d="M51.184,18.52l0.932-2.423h0.227l-0.936,2.423H51.184z"/>
		<path fill="#324A5E" d="M52.33,18.52l0.932-2.423h0.227l-0.936,2.423H52.33z"/>
		<path fill="#324A5E" d="M54.549,16.769l0.213,0.822c0.047,0.181,0.09,0.348,0.121,0.515h0.01c0.037-0.164,0.09-0.337,0.143-0.511
			l0.264-0.825h0.248l0.25,0.809c0.061,0.194,0.107,0.364,0.145,0.528h0.01c0.027-0.164,0.07-0.334,0.123-0.524l0.23-0.812h0.291
			l-0.521,1.617h-0.266l-0.248-0.772c-0.057-0.18-0.104-0.341-0.145-0.531H55.41c-0.041,0.194-0.09,0.361-0.146,0.535l-0.262,0.769
			h-0.268l-0.486-1.617H54.549z"/>
		<path fill="#324A5E" d="M57.049,16.769l0.215,0.822c0.045,0.181,0.09,0.348,0.119,0.515h0.01c0.037-0.164,0.09-0.337,0.145-0.511
			l0.264-0.825h0.248l0.25,0.809c0.061,0.194,0.107,0.364,0.143,0.528h0.012c0.025-0.164,0.07-0.334,0.123-0.524l0.23-0.812h0.291
			l-0.521,1.617h-0.268l-0.248-0.772c-0.057-0.18-0.104-0.341-0.143-0.531H57.91c-0.039,0.194-0.09,0.361-0.146,0.535l-0.26,0.769
			h-0.268l-0.488-1.617H57.049z"/>
		<path fill="#324A5E" d="M59.549,16.769l0.215,0.822c0.045,0.181,0.09,0.348,0.119,0.515h0.01c0.037-0.164,0.09-0.337,0.145-0.511
			l0.264-0.825h0.248l0.25,0.809c0.061,0.194,0.107,0.364,0.143,0.528h0.012c0.025-0.164,0.07-0.334,0.123-0.524l0.23-0.812h0.291
			l-0.521,1.617h-0.268l-0.248-0.772c-0.057-0.18-0.104-0.341-0.143-0.531H60.41c-0.039,0.194-0.09,0.361-0.146,0.535l-0.26,0.769
			h-0.268l-0.488-1.617H59.549z"/>
		<path fill="#324A5E" d="M61.691,18.212c0-0.124,0.084-0.21,0.201-0.21s0.197,0.087,0.197,0.21c0,0.121-0.078,0.21-0.201,0.21
			C61.771,18.422,61.691,18.333,61.691,18.212z"/>
	</g>
	<g>
		<path fill="#FFFFFF" d="M104.503,75.707H50.857c3.339,0,6.057,2.699,6.057,6.057v4.561h47.589v11.867h-65.77
			c-3.349,0-6.057-2.709-6.057-6.057V33.722h71.827V75.707z"/>
	</g>
	<path fill="#E6E9EE" d="M56.913,81.764v4.557h71.836v-4.557c0-3.348-2.713-6.06-6.06-6.06H50.853
		C54.198,75.704,56.913,78.41,56.913,81.764z"/>
	<g>
		<g>
			<path fill="#231F20" d="M52.673,52.246h-6.689v-6.688h6.689V52.246z M47.483,50.746h3.689v-3.688h-3.689V50.746z"/>
		</g>
		<g>
			<g>
				<path fill="#231F20" d="M66.024,68.121l-0.854-0.12c-8.466-1.192-15.169-7.938-16.303-16.405l-0.114-0.85h2.42v-3.688h-2.408
					l0.126-0.859c1.227-8.347,7.92-14.999,16.279-16.178l0.854-0.121v2.305h3.689v-2.296l0.854,0.12
					c8.357,1.17,15.052,7.819,16.279,16.17l0.126,0.859h-2.408v3.688h2.42l-0.114,0.85c-1.134,8.472-7.838,15.215-16.304,16.397
					l-0.854,0.12v-2.515h-3.689V68.121z M50.488,52.246c1.312,7.119,6.922,12.765,14.036,14.127v-2.274h6.689v2.269
					c7.114-1.354,12.724-6.999,14.036-14.121h-2.185v-6.688h2.149c-1.392-7.008-6.984-12.561-14.001-13.902v2.049h-6.689v-2.057
					c-7.018,1.349-12.61,6.905-14.001,13.909h2.149v6.688H50.488z"/>
			</g>
			<g>
				<path fill="#231F20" d="M71.214,33.705h-6.689v-6.689h6.689V33.705z M66.024,32.205h3.689v-3.689h-3.689V32.205z"/>
			</g>
			<g>
				<path fill="#231F20" d="M71.214,70.787h-6.689v-6.688h6.689V70.787z M66.024,69.287h3.689v-3.688h-3.689V69.287z"/>
			</g>
			<g>
				<path fill="#231F20" d="M89.747,52.246h-6.682v-6.688h6.682V52.246z M84.565,50.746h3.682v-3.688h-3.682V50.746z"/>
			</g>
			<g>
				<g>
					<g>
						<rect x="70.464" y="29.611" fill="#231F20" width="19.883" height="1.5"/>
					</g>
					<g>
						<path fill="#231F20" d="M92.212,32.976c-1.442,0-2.615-1.173-2.615-2.615s1.173-2.615,2.615-2.615s2.615,1.173,2.615,2.615
							S93.654,32.976,92.212,32.976z M92.212,29.246c-0.615,0-1.115,0.5-1.115,1.115s0.5,1.115,1.115,1.115s1.115-0.5,1.115-1.115
							S92.827,29.246,92.212,29.246z"/>
					</g>
				</g>
				<g>
					<g>
						<rect x="45.392" y="29.611" fill="#231F20" width="19.883" height="1.5"/>
					</g>
					<g>
						<path fill="#231F20" d="M43.526,32.976c-1.442,0-2.615-1.173-2.615-2.615s1.173-2.615,2.615-2.615s2.615,1.173,2.615,2.615
							S44.969,32.976,43.526,32.976z M43.526,29.246c-0.615,0-1.115,0.5-1.115,1.115s0.5,1.115,1.115,1.115s1.115-0.5,1.115-1.115
							S44.142,29.246,43.526,29.246z"/>
					</g>
				</g>
			</g>
			<g>
				<g>
					<g>
						<rect x="70.464" y="66.508" fill="#231F20" width="19.883" height="1.501"/>
					</g>
					<g>
						<path fill="#231F20" d="M92.212,69.874c-1.442,0-2.615-1.174-2.615-2.616c0-1.442,1.173-2.615,2.615-2.615
							s2.615,1.173,2.615,2.615C94.827,68.7,93.654,69.874,92.212,69.874z M92.212,66.143c-0.615,0-1.115,0.5-1.115,1.115
							s0.5,1.116,1.115,1.116s1.115-0.501,1.115-1.116S92.827,66.143,92.212,66.143z"/>
					</g>
				</g>
				<g>
					<g>
						<rect x="45.392" y="66.508" fill="#231F20" width="19.883" height="1.501"/>
					</g>
					<g>
						<path fill="#231F20" d="M43.526,69.874c-1.442,0-2.615-1.174-2.615-2.616c0-1.442,1.173-2.615,2.615-2.615
							s2.615,1.173,2.615,2.615C46.142,68.7,44.969,69.874,43.526,69.874z M43.526,66.143c-0.615,0-1.115,0.5-1.115,1.115
							s0.5,1.116,1.115,1.116s1.115-0.501,1.115-1.116S44.142,66.143,43.526,66.143z"/>
					</g>
				</g>
			</g>
			<g>
				<path fill="#231F20" d="M73.325,55.314H62.413l-3.673-6.32l9.129-14.425l9.129,14.426L73.325,55.314z M63.276,53.814h9.186
					l2.782-4.786l-7.375-11.654l-7.375,11.654L63.276,53.814z"/>
			</g>
			<g>
				<polygon fill="#231F20" points="75.613,58.734 74.113,58.734 74.113,55.314 61.625,55.314 61.625,58.734 60.125,58.734 
					60.125,53.814 75.613,53.814 				"/>
			</g>
			<g>
				<path fill="#231F20" d="M67.869,51.032c-1.51,0-2.737-1.228-2.737-2.737s1.228-2.737,2.737-2.737s2.737,1.228,2.737,2.737
					S69.379,51.032,67.869,51.032z M67.869,47.058c-0.683,0-1.237,0.555-1.237,1.237s0.555,1.237,1.237,1.237
					s1.237-0.555,1.237-1.237S68.552,47.058,67.869,47.058z"/>
			</g>
			<g>
				<rect x="67.119" y="35.971" fill="#231F20" width="1.5" height="10.336"/>
			</g>
		</g>
	</g>
	<path fill="#FFFFFF" d="M56.914,86.324v-4.559c0-3.348-2.714-6.062-6.062-6.062l0,0c-3.348,0-6.062,2.714-6.062,6.062v10.369
		c0,1.674-0.679,3.19-1.772,4.284c-1.093,1.093-2.61,1.772-4.284,1.772h71.836c3.345,0,6.057-2.712,6.057-6.057v-5.811H56.914z"/>
	<g>
		<path fill="#FFD05B" d="M54.944,88.294v-6.535c0-2.26-1.832-4.092-4.092-4.092l0,0c-2.26,0-4.092,1.832-4.092,4.092v10.376
			c0,1.496-0.403,2.896-1.123,4.087h64.932c2.257,0,4.087-1.83,4.087-4.087v-3.841H54.944z"/>
	</g>
	<path fill="#FFFFFF" d="M115.397,112.477H26.218v8.195h89.179c2.264,0,4.098-1.834,4.098-4.098l0,0
		C119.495,114.312,117.661,112.477,115.397,112.477z"/>
	<path fill="#FFFFFF" d="M115.398,112.477h-3.476v8.195h3.476c2.263,0,4.097-1.834,4.097-4.098l0,0
		C119.495,114.312,117.661,112.477,115.398,112.477z"/>
	<polygon fill="#FFFFFF" points="26.218,120.672 16.243,116.574 26.218,112.477 	"/>
	<path fill="#231F20" d="M110.569,98.941c3.753,0,6.807-3.054,6.807-6.807V87.07h12.123v-5.307c0-3.756-3.055-6.81-6.81-6.81
		h-17.434V6.249c0-1.613-1.312-2.926-2.926-2.926H34.848c-1.613,0-2.926,1.311-2.926,2.921V36.52H2.929
		C1.313,36.52,0,37.832,0,39.444V130h73.437v-8.578h41.961c2.673,0,4.848-2.175,4.848-4.848s-2.175-4.848-4.848-4.848H73.437V98.943
		L110.569,98.941z M122.689,76.454c2.928,0,5.31,2.382,5.31,5.31v3.807l-70.335,0.004v-3.809c0-2.15-1.003-4.066-2.563-5.315
		l0.012,0.004H122.689z M33.422,6.245c0-0.784,0.64-1.421,1.426-1.421h67.482c0.786,0,1.426,0.64,1.426,1.426v68.705H50.853
		c-3.757,0-6.812,3.056-6.812,6.812v10.369c0,1.418-0.552,2.752-1.553,3.754c-1.002,1.001-2.335,1.553-3.754,1.553v0.002h-0.002
		c-2.928,0-5.31-2.381-5.31-5.307V6.245z M71.937,128.5H1.5V39.444c0-0.785,0.641-1.424,1.429-1.424h28.993v54.117
		c0,3.754,3.055,6.807,6.81,6.807h33.205v12.783H26.219c-0.092,0-0.178,0.022-0.26,0.053c-0.008,0.004-0.017,0-0.025,0.004
		l-9.976,4.098c-0.281,0.115-0.465,0.389-0.465,0.693s0.184,0.578,0.465,0.693l9.976,4.098c0.092,0.038,0.188,0.057,0.285,0.057
		h45.718V128.5z M18.217,116.574l7.252-2.979v5.957L18.217,116.574z M111.173,119.922H26.969v-2.598h84.204V119.922z
		 M112.673,113.227h2.725c1.846,0,3.348,1.502,3.348,3.348s-1.502,3.348-3.348,3.348h-2.725V113.227z M111.173,113.227v2.598H26.969
		v-2.598H111.173z M43,97.441c0.19-0.153,0.373-0.317,0.548-0.492c1.285-1.285,1.992-2.996,1.992-4.814V81.766
		c0-2.93,2.383-5.312,5.312-5.312c2.929,0,5.312,2.382,5.312,5.312v5.309h59.712v5.061c0,2.926-2.381,5.307-5.307,5.307H43z"/>
	<g>
		<circle fill="#84DBFF" cx="124.195" cy="32.226" r="2.618"/>
	</g>
	<g>
		<circle fill="#FFD05B" cx="17.866" cy="11.166" r="1.864"/>
	</g>
	<g>
		<circle fill="#E6E9EE" cx="112.148" cy="58.734" r="1.864"/>
	</g>
</g>
</svg>
