<?xml version="1.0" encoding="utf-8"?>
<!-- Generator: Adobe Illustrator 15.0.0, SVG Export Plug-In . SVG Version: 6.00 Build 0)  -->
<!DOCTYPE svg PUBLIC "-//W3C//DTD SVG 1.1//EN" "http://www.w3.org/Graphics/SVG/1.1/DTD/svg11.dtd">
<svg version="1.1" id="Layer_1" xmlns="http://www.w3.org/2000/svg" xmlns:xlink="http://www.w3.org/1999/xlink" x="0px" y="0px"
	 width="130px" height="130px" viewBox="0 0 130 130" enable-background="new 0 0 130 130" xml:space="preserve">
<g>
	<g>
		<polygon fill="#CED5E0" points="69.763,57.147 59.746,57.147 64.754,65.493 		"/>
	</g>
	<g>
		<g>
			<path fill="#231F20" d="M25.115,16.336c-0.192,0-0.385-0.073-0.531-0.22c-0.293-0.293-0.293-0.768,0-1.061l1.287-1.287
				c0.293-0.293,0.768-0.293,1.061,0s0.293,0.768,0,1.061l-1.287,1.287C25.498,16.263,25.306,16.336,25.115,16.336z"/>
		</g>
		<g>
			<path fill="#231F20" d="M21.085,20.364c-0.191,0-0.385-0.073-0.531-0.22c-0.292-0.293-0.292-0.768,0.001-1.061l1.287-1.286
				c0.293-0.293,0.768-0.293,1.061,0s0.293,0.768,0,1.061l-1.287,1.286C21.469,20.291,21.277,20.364,21.085,20.364z"/>
		</g>
		<g>
			<path fill="#231F20" d="M26.401,20.364c-0.192,0-0.384-0.073-0.53-0.22l-1.287-1.286c-0.293-0.293-0.293-0.768,0-1.061
				s0.768-0.293,1.061,0l1.287,1.286c0.293,0.293,0.293,0.768,0,1.061C26.785,20.291,26.593,20.364,26.401,20.364z"/>
		</g>
		<g>
			<path fill="#231F20" d="M22.373,16.336c-0.191,0-0.384-0.073-0.53-0.22l-1.287-1.287c-0.293-0.293-0.293-0.768,0-1.061
				s0.768-0.293,1.061,0l1.287,1.287c0.293,0.293,0.293,0.768,0,1.061C22.756,16.263,22.564,16.336,22.373,16.336z"/>
		</g>
	</g>
	<g>
		<g>
			<path fill="#231F20" d="M109.795,14.965c-0.192,0-0.385-0.073-0.531-0.22c-0.293-0.293-0.293-0.768,0-1.061l1.287-1.286
				c0.293-0.293,0.769-0.293,1.062,0c0.292,0.293,0.292,0.768-0.001,1.061l-1.287,1.286
				C110.178,14.892,109.986,14.965,109.795,14.965z"/>
		</g>
		<g>
			<path fill="#231F20" d="M105.766,18.994c-0.191,0-0.384-0.073-0.53-0.22c-0.292-0.293-0.292-0.768,0-1.061l1.287-1.287
				c0.293-0.293,0.768-0.293,1.061,0s0.293,0.768,0,1.061l-1.286,1.287C106.149,18.921,105.958,18.994,105.766,18.994z"/>
		</g>
		<g>
			<path fill="#231F20" d="M111.082,18.994c-0.192,0-0.385-0.073-0.531-0.22l-1.287-1.287c-0.293-0.293-0.293-0.768,0-1.061
				s0.768-0.293,1.061,0l1.287,1.287c0.293,0.293,0.293,0.768,0,1.061C111.465,18.921,111.273,18.994,111.082,18.994z"/>
		</g>
		<g>
			<path fill="#231F20" d="M107.053,14.965c-0.192,0-0.384-0.073-0.53-0.22l-1.287-1.286c-0.293-0.293-0.293-0.768-0.001-1.061
				c0.293-0.293,0.769-0.293,1.062,0l1.287,1.286c0.293,0.293,0.293,0.768,0.001,1.061
				C107.437,14.892,107.244,14.965,107.053,14.965z"/>
		</g>
	</g>
	<g>
		<g>
			<path fill="#231F20" d="M22.457,115.481c-0.192,0-0.384-0.073-0.53-0.22c-0.293-0.293-0.293-0.768,0-1.061l1.287-1.287
				c0.293-0.293,0.767-0.293,1.06,0s0.293,0.768,0,1.061l-1.286,1.287C22.84,115.408,22.648,115.481,22.457,115.481z"/>
		</g>
		<g>
			<path fill="#231F20" d="M18.427,119.51c-0.191,0-0.384-0.073-0.53-0.22c-0.292-0.293-0.292-0.768,0.001-1.061l1.287-1.286
				c0.292-0.293,0.768-0.293,1.061,0s0.293,0.768-0.001,1.061l-1.286,1.286C18.811,119.437,18.62,119.51,18.427,119.51z"/>
		</g>
		<g>
			<path fill="#231F20" d="M23.744,119.51c-0.192,0-0.385-0.073-0.53-0.22l-1.287-1.286c-0.293-0.293-0.293-0.768,0-1.061
				s0.768-0.293,1.061,0l1.286,1.286c0.293,0.293,0.293,0.768,0,1.061C24.126,119.437,23.935,119.51,23.744,119.51z"/>
		</g>
		<g>
			<path fill="#231F20" d="M19.714,115.481c-0.191,0-0.383-0.073-0.529-0.22l-1.287-1.287c-0.293-0.293-0.293-0.768,0-1.061
				c0.292-0.293,0.767-0.293,1.061,0l1.286,1.287c0.294,0.293,0.294,0.768,0,1.061C20.098,115.408,19.907,115.481,19.714,115.481z"
				/>
		</g>
	</g>
	<path fill="#FFFFFF" d="M53.161,46.176l0.001-43.208c0-1.225,0.992-2.218,2.218-2.218h18.75c1.225,0,2.218,0.993,2.218,2.218
		v43.208H53.161z"/>
	<g>
		<path fill="#FF7058" d="M74.348,12.146V2.968c0-0.12-0.098-0.218-0.218-0.218h-18.75c-0.12,0-0.218,0.098-0.218,0.218v9.178
			H74.348z"/>
	</g>
	<g>
		<rect x="55.162" y="21.462" fill="#FFD05B" width="19.186" height="22.714"/>
	</g>
	<path fill="#231F20" d="M77.098,2.968C77.098,1.331,75.766,0,74.13,0h-18.75c-1.637,0-2.969,1.331-2.969,2.968v43.208
		c0,0.002,0.002,0.004,0.002,0.005c0,0.01,0.005,0.018,0.005,0.027c0.005,0.114,0.038,0.219,0.09,0.314
		c0.006,0.012,0.004,0.027,0.011,0.039l11.593,19.316c0.137,0.226,0.38,0.364,0.644,0.364c0.263,0,0.507-0.139,0.644-0.364
		L76.99,46.562c0.008-0.012,0.005-0.027,0.012-0.039c0.051-0.096,0.084-0.2,0.089-0.314c0.001-0.01,0.006-0.018,0.006-0.027
		c0-0.001,0.001-0.003,0.001-0.005V2.968z M75.598,18.658H53.911v-3.681h21.687V18.658z M53.911,20.158h6.348v25.268h-6.348V20.158z
		 M61.758,20.158h5.992v25.268h-5.992V20.158z M69.25,20.158h6.348v25.268H69.25V20.158z M55.379,1.5h18.75
		c0.81,0,1.468,0.658,1.468,1.468v10.51H53.911V2.968C53.911,2.158,54.569,1.5,55.379,1.5z M64.754,64.035L54.486,46.926h20.538
		L64.754,64.035z"/>
	<g>
		<path fill="#231F20" d="M21.292,96.585c-1.546,0-3.086-0.474-4.371-1.367c-3.32-2.093-4.854-5.781-4.074-9.85
			c1.859-9.717,15.678-8.747,15.815-8.733l5.422-0.002c0.414,0,0.75,0.336,0.75,0.75s-0.336,0.75-0.75,0.75h-5.48
			c-0.183-0.012-12.676-0.881-14.284,7.517c-0.658,3.439,0.624,6.549,3.429,8.317c1.362,0.945,3.036,1.308,4.614,1.021
			c2.351-0.432,4.129-2.409,4.325-4.81c0.07-0.855-0.086-1.649-0.464-2.359c-0.482-0.906-1.218-1.147-2.804-0.932
			c-0.412,0.054-0.789-0.231-0.845-0.642c-0.057-0.41,0.23-0.788,0.642-0.845c1.575-0.216,3.322-0.181,4.331,1.713
			c0.516,0.968,0.729,2.04,0.635,3.188c-0.252,3.074-2.534,5.608-5.549,6.161C22.19,96.545,21.741,96.585,21.292,96.585z"/>
	</g>
	<g>
		<path fill="#231F20" d="M40.77,65.453c-3.323,0.001-13.109-0.698-14.653-8.766c-0.779-4.068,0.754-7.757,4.102-9.868
			c1.631-1.134,3.713-1.591,5.685-1.227c3.016,0.553,5.298,3.087,5.549,6.161c0.095,1.147-0.118,2.22-0.634,3.188
			c-1.008,1.893-2.754,1.925-4.332,1.713c-0.41-0.057-0.697-0.435-0.642-0.845c0.056-0.411,0.436-0.696,0.845-0.642
			c1.592,0.219,2.323-0.026,2.805-0.932c0.378-0.71,0.533-1.504,0.463-2.359c-0.196-2.4-1.975-4.378-4.324-4.81
			c-1.58-0.286-3.252,0.075-4.585,1.003c-2.834,1.787-4.116,4.896-3.458,8.336c1.611,8.413,14.1,7.531,14.225,7.519l3.178-0.002
			c0.414,0,0.75,0.336,0.75,0.75s-0.336,0.75-0.75,0.75h-3.119C41.859,65.424,41.45,65.453,40.77,65.453z"/>
	</g>
	<g>
		<path fill="#231F20" d="M14.853,72.271c-3.324,0.001-13.109-0.698-14.654-8.766c-0.778-4.068,0.755-7.757,4.103-9.868
			c1.631-1.134,3.713-1.591,5.685-1.227c3.016,0.552,5.297,3.085,5.549,6.16c0.095,1.147-0.119,2.22-0.634,3.188
			c-1.009,1.894-2.757,1.926-4.332,1.714c-0.41-0.057-0.697-0.435-0.642-0.845c0.057-0.41,0.438-0.706,0.846-0.642
			c1.586,0.219,2.321-0.026,2.804-0.933c0.378-0.71,0.533-1.504,0.463-2.359c-0.196-2.401-1.975-4.378-4.324-4.809
			c-1.581-0.287-3.253,0.076-4.586,1.003c-2.833,1.787-4.115,4.896-3.457,8.336c1.61,8.413,14.101,7.532,14.226,7.519l8.82-0.002
			c0.414,0,0.75,0.336,0.75,0.75s-0.336,0.75-0.75,0.75h-8.762C15.943,72.242,15.533,72.271,14.853,72.271z"/>
	</g>
	<g>
		<path fill="#231F20" d="M84.517,78.098h-1v-1.5h1V78.098z M81.517,78.098h-1v-1.5h1V78.098z M78.517,78.098h-1v-1.5h1V78.098z
			 M75.517,78.098h-1v-1.5h1V78.098z M72.517,78.098h-1v-1.5h1V78.098z M69.517,78.098h-1v-1.5h1V78.098z M66.517,78.098h-1v-1.5h1
			V78.098z M63.516,78.098h-1v-1.5h1V78.098z M60.516,78.097h-1v-1.5h1V78.097z M57.516,78.097h-1v-1.5h1V78.097z M54.516,78.097h-1
			v-1.5h1V78.097z M51.516,78.097h-1v-1.5h1V78.097z M48.516,78.097h-1v-1.5h1V78.097z M45.516,78.097h-1v-1.5h1V78.097z
			 M42.516,78.097h-1v-1.5h1V78.097z M39.516,78.097h-1v-1.5h1V78.097z"/>
	</g>
	<g>
		<g>
			<path fill="#231F20" d="M101.984,65.452c-0.693,0-1.114-0.029-1.138-0.031l-5.422,0.002c-0.414,0-0.75-0.336-0.75-0.75
				s0.336-0.75,0.75-0.75h5.48c0.185,0.013,12.675,0.882,14.283-7.516c0.659-3.439-0.623-6.549-3.429-8.318
				c-1.36-0.944-3.03-1.311-4.614-1.021c-2.349,0.432-4.128,2.409-4.324,4.81c-0.07,0.855,0.085,1.649,0.464,2.359
				c0.482,0.906,1.215,1.146,2.804,0.932c0.407-0.06,0.788,0.23,0.845,0.641c0.057,0.411-0.23,0.789-0.641,0.846
				c-1.482,0.206-3.316,0.193-4.332-1.713c-0.516-0.968-0.729-2.04-0.635-3.188c0.252-3.074,2.533-5.608,5.549-6.161
				c1.973-0.361,4.055,0.094,5.713,1.245c3.319,2.094,4.853,5.783,4.074,9.851C115.119,64.746,105.352,65.452,101.984,65.452z"/>
		</g>
		<g>
			<path fill="#231F20" d="M94.951,96.585c-0.449,0-0.9-0.04-1.346-0.122c-3.015-0.552-5.297-3.085-5.549-6.16
				c-0.094-1.147,0.119-2.221,0.635-3.188c1.015-1.906,2.849-1.914,4.331-1.714c0.41,0.057,0.697,0.435,0.642,0.845
				c-0.057,0.41-0.439,0.697-0.845,0.642c-1.589-0.218-2.321,0.028-2.804,0.933c-0.378,0.71-0.534,1.503-0.464,2.359
				c0.196,2.401,1.976,4.378,4.325,4.809c1.58,0.288,3.252-0.076,4.586-1.003c2.833-1.787,4.114-4.896,3.457-8.336
				c-1.61-8.412-14.098-7.526-14.226-7.519l-3.178,0.002c-0.414,0-0.75-0.336-0.75-0.75s0.336-0.75,0.75-0.75h3.119
				c0.079-0.012,13.896-0.982,15.757,8.735c0.779,4.068-0.755,7.757-4.103,9.868C98.027,96.114,96.494,96.585,94.951,96.585z"/>
		</g>
		<g>
			<path fill="#231F20" d="M120.868,90.764c-0.45,0-0.9-0.04-1.345-0.122c-3.016-0.552-5.298-3.085-5.55-6.16
				c-0.094-1.147,0.12-2.22,0.635-3.188c1.008-1.895,2.755-1.93,4.331-1.714c0.41,0.057,0.697,0.435,0.642,0.845
				c-0.057,0.41-0.435,0.704-0.845,0.642c-1.59-0.218-2.321,0.026-2.804,0.933c-0.378,0.71-0.534,1.504-0.464,2.359
				c0.196,2.401,1.975,4.378,4.324,4.809c1.581,0.287,3.253-0.076,4.587-1.003c2.833-1.787,4.114-4.896,3.456-8.336
				c-1.609-8.412-14.097-7.527-14.225-7.519l-8.82,0.002c-0.414,0-0.75-0.336-0.75-0.75s0.336-0.75,0.75-0.75h8.762
				c0.081-0.006,13.896-0.981,15.758,8.735c0.778,4.068-0.756,7.757-4.104,9.868C123.944,90.293,122.41,90.764,120.868,90.764z"/>
		</g>
		<g>
			<path fill="#231F20" d="M104.791,72.276h-1v-1.5h1V72.276z M101.791,72.276h-1v-1.5h1V72.276z M98.791,72.276h-1v-1.5h1V72.276z
				 M95.791,72.276h-1v-1.5h1V72.276z M92.791,72.276h-1v-1.5h1V72.276z M89.791,72.276h-1v-1.5h1V72.276z M86.791,72.276h-1v-1.5h1
				V72.276z M83.791,72.276h-1v-1.5h1V72.276z M80.791,72.276h-1v-1.5h1V72.276z M77.791,72.276h-1v-1.5h1V72.276z M74.791,72.276
				h-1v-1.5h1V72.276z M71.791,72.276h-1v-1.5h1V72.276z M68.791,72.276h-1v-1.5h1V72.276z M65.791,72.276h-1v-1.5h1V72.276z
				 M62.791,72.275h-1v-1.5h1V72.275z M59.791,72.275h-1v-1.5h1V72.275z M56.791,72.275h-1v-1.5h1V72.275z M53.791,72.275h-1v-1.5h1
				V72.275z M50.791,72.275h-1v-1.5h1V72.275z M47.791,72.275h-1v-1.5h1V72.275z M44.791,72.275h-1v-1.5h1V72.275z M41.791,72.275
				h-1v-1.5h1V72.275z M38.791,72.275h-1v-1.5h1V72.275z M35.791,72.275h-1v-1.5h1V72.275z M32.791,72.275h-1v-1.5h1V72.275z
				 M29.791,72.275h-1v-1.5h1V72.275z M26.791,72.275h-1v-1.5h1V72.275z"/>
		</g>
		<g>
			<path fill="#231F20" d="M95.425,65.459h-1v-1.5h1V65.459z M92.425,65.459h-1v-1.5h1V65.459z M89.425,65.459h-1v-1.5h1V65.459z
				 M86.425,65.459h-1v-1.5h1V65.459z M83.425,65.459h-1v-1.5h1V65.459z M80.425,65.459h-1v-1.5h1V65.459z M77.425,65.459h-1v-1.5h1
				V65.459z M74.425,65.459h-1v-1.5h1V65.459z M71.425,65.459h-1v-1.5h1V65.459z M68.425,65.459h-1v-1.5h1V65.459z M65.424,65.459
				h-1v-1.5h1V65.459z M62.424,65.459h-1v-1.5h1V65.459z M59.424,65.459h-1v-1.5h1V65.459z M56.424,65.459h-1v-1.5h1V65.459z
				 M53.424,65.459h-1v-1.5h1V65.459z M50.424,65.459h-1v-1.5h1V65.459z M47.424,65.459h-1v-1.5h1V65.459z"/>
		</g>
	</g>
	<g>
		<path fill="#231F20" d="M81.151,116.857c-0.671,0-1.358-0.066-2.058-0.2c-9.715-1.86-8.742-15.677-8.731-15.815l-0.003-5.422
			c0-0.414,0.336-0.75,0.75-0.75s0.75,0.336,0.75,0.75v5.48c-0.012,0.185-0.881,12.676,7.518,14.284
			c3.438,0.654,6.547-0.623,8.317-3.43c0.944-1.36,1.311-3.032,1.021-4.614c-0.431-2.35-2.408-4.128-4.809-4.324
			c-0.854-0.068-1.649,0.086-2.359,0.464c-0.906,0.481-1.15,1.216-0.933,2.804c0.056,0.41-0.231,0.788-0.642,0.845
			c-0.41,0.062-0.789-0.231-0.845-0.642c-0.216-1.576-0.181-3.323,1.714-4.331c0.967-0.514,2.037-0.728,3.188-0.634
			c3.074,0.251,5.608,2.532,6.161,5.549c0.36,1.972-0.093,4.054-1.246,5.712C87.211,115.333,84.383,116.857,81.151,116.857z"/>
	</g>
	<g>
		<path fill="#231F20" d="M48.359,103.587c-3.233,0.001-6.064-1.527-7.812-4.301c-1.136-1.632-1.59-3.714-1.229-5.685
			c0.553-3.017,3.087-5.298,6.162-5.549c1.151-0.095,2.219,0.12,3.188,0.634c1.905,1.014,1.916,2.848,1.713,4.332
			c-0.057,0.411-0.44,0.701-0.846,0.642c-0.41-0.057-0.696-0.435-0.641-0.845c0.218-1.589-0.025-2.322-0.932-2.805
			c-0.711-0.379-1.51-0.535-2.36-0.464c-2.4,0.196-4.378,1.975-4.808,4.324c-0.29,1.581,0.075,3.253,1.002,4.587
			c1.787,2.833,4.898,4.111,8.335,3.457c8.413-1.61,7.529-14.1,7.521-14.226l-0.003-3.177c0-0.414,0.336-0.75,0.75-0.75
			s0.75,0.336,0.75,0.75v3.118c0.009,0.08,0.981,13.897-8.735,15.757C49.715,103.521,49.028,103.587,48.359,103.587z"/>
	</g>
	<g>
		<path fill="#231F20" d="M54.18,129.504c-3.233,0.001-6.064-1.527-7.813-4.301c-1.134-1.631-1.588-3.713-1.228-5.685
			c0.554-3.017,3.087-5.298,6.162-5.549c1.149-0.094,2.22,0.12,3.187,0.634c1.906,1.014,1.918,2.848,1.714,4.332
			c-0.057,0.411-0.437,0.701-0.846,0.642c-0.409-0.057-0.696-0.435-0.641-0.845c0.218-1.589-0.026-2.322-0.932-2.805
			c-0.711-0.379-1.507-0.536-2.36-0.464c-2.4,0.196-4.377,1.975-4.809,4.324c-0.289,1.582,0.076,3.254,1.002,4.587
			c1.788,2.833,4.897,4.111,8.336,3.457c8.398-1.607,7.529-14.1,7.52-14.226l-0.002-8.82c0-0.414,0.336-0.75,0.75-0.75
			s0.75,0.336,0.75,0.75v8.762c0.009,0.08,0.981,13.897-8.735,15.757C55.537,129.438,54.849,129.504,54.18,129.504z"/>
	</g>
	<g>
		<path fill="#231F20" d="M93.264,33.542c-2.455,0-4.451-1.996-4.451-4.45s1.996-4.451,4.451-4.451c2.453,0,4.45,1.997,4.45,4.451
			S95.717,33.542,93.264,33.542z M93.264,26.141c-1.628,0-2.951,1.324-2.951,2.951s1.323,2.95,2.951,2.95
			c1.626,0,2.95-1.323,2.95-2.95S94.89,26.141,93.264,26.141z"/>
	</g>
	<g>
		<path fill="#231F20" d="M18.427,42.262c-2.984,0-5.414-2.429-5.414-5.414c0-2.986,2.43-5.415,5.414-5.415
			c2.986,0,5.415,2.429,5.415,5.415C23.842,39.833,21.414,42.262,18.427,42.262z M18.427,32.933c-2.158,0-3.914,1.756-3.914,3.915
			c0,2.158,1.756,3.914,3.914,3.914c2.159,0,3.915-1.756,3.915-3.914C22.342,34.688,20.586,32.933,18.427,32.933z"/>
	</g>
	<g>
		<circle fill="#84DBFF" cx="84.925" cy="12.665" r="2.51"/>
	</g>
	<g>
		<circle fill="#CED5E0" cx="37.726" cy="29.092" r="2.51"/>
	</g>
	<g>
		<circle fill="#84DBFF" cx="78.858" cy="87.504" r="2.511"/>
	</g>
	<g>
		<circle fill="#E6E9EE" cx="107.302" cy="108.271" r="2.511"/>
	</g>
	<g>
		<circle fill="#FF7058" cx="7.719" cy="102.833" r="2.51"/>
	</g>
</g>
</svg>
