<?xml version="1.0" encoding="utf-8"?>
<!-- Generator: Adobe Illustrator 15.0.0, SVG Export Plug-In . SVG Version: 6.00 Build 0)  -->
<!DOCTYPE svg PUBLIC "-//W3C//DTD SVG 1.1//EN" "http://www.w3.org/Graphics/SVG/1.1/DTD/svg11.dtd">
<svg version="1.1" id="Layer_1" xmlns="http://www.w3.org/2000/svg" xmlns:xlink="http://www.w3.org/1999/xlink" x="0px" y="0px"
	 width="130px" height="130px" viewBox="0 0 130 130" enable-background="new 0 0 130 130" xml:space="preserve">
<g>
	<circle fill="#84DBFF" cx="16.841" cy="91.231" r="14.981"/>
	<g>
		<path fill="#FFFFFF" d="M6.15,91.23h-1.5c0-0.357,0.016-0.712,0.046-1.062l1.494,0.129C6.164,90.604,6.15,90.916,6.15,91.23z
			 M6.513,88.459l-1.449-0.387c0.092-0.345,0.2-0.685,0.321-1.017l1.409,0.514C6.688,87.86,6.594,88.157,6.513,88.459z M7.584,85.88
			l-1.298-0.752c0.179-0.309,0.37-0.608,0.575-0.898l1.226,0.865C7.909,85.348,7.741,85.61,7.584,85.88z M9.29,83.665l-1.06-1.062
			c0.251-0.251,0.514-0.491,0.787-0.719l0.962,1.15C9.74,83.234,9.51,83.445,9.29,83.665z M11.508,81.964l-0.749-1.299
			c0.307-0.178,0.623-0.342,0.946-0.492l0.631,1.361C12.053,81.665,11.777,81.81,11.508,81.964z M14.09,80.897l-0.385-1.449
			c0.342-0.091,0.689-0.167,1.042-0.228l0.253,1.479C14.693,80.752,14.389,80.818,14.09,80.897z"/>
	</g>
	<g>
		<path fill="#FFFFFF" d="M16.841,103.421c-6.385,0-11.727-4.984-12.162-11.349l1.496-0.102c0.381,5.579,5.066,9.95,10.666,9.95
			c5.895,0,10.69-4.796,10.69-10.69c0-5.611-4.38-10.297-9.973-10.667l0.099-1.496c6.378,0.422,11.374,5.765,11.374,12.163
			C29.031,97.952,23.562,103.421,16.841,103.421z"/>
	</g>
	<g>
		<path fill="#FFFFFF" d="M19.631,97.385H14.05c-1.386,0-2.513-1.127-2.513-2.513c0-0.414,0.336-0.75,0.75-0.75
			s0.75,0.336,0.75,0.75c0,0.559,0.455,1.013,1.013,1.013h5.581c0.559,0,1.013-0.454,1.013-1.013v-1.878
			c0-0.559-0.455-1.014-1.013-1.014H14.05c-1.386,0-2.513-1.127-2.513-2.513V87.59c0-1.386,1.127-2.514,2.513-2.514h5.581
			c1.386,0,2.513,1.128,2.513,2.514c0,0.414-0.336,0.75-0.75,0.75s-0.75-0.336-0.75-0.75c0-0.559-0.455-1.014-1.013-1.014H14.05
			c-0.559,0-1.013,0.455-1.013,1.014v1.878c0,0.559,0.455,1.013,1.013,1.013h5.581c1.386,0,2.513,1.128,2.513,2.514v1.878
			C22.145,96.258,21.017,97.385,19.631,97.385z"/>
	</g>
	<g>
		<path fill="#FFFFFF" d="M16.841,99.436c-0.414,0-0.75-0.336-0.75-0.75V83.776c0-0.414,0.336-0.75,0.75-0.75s0.75,0.336,0.75,0.75
			v14.909C17.591,99.1,17.255,99.436,16.841,99.436z"/>
	</g>
	<circle fill="#FF7058" cx="43.78" cy="107.835" r="10.812"/>
	<path fill="#FFFFFF" d="M36.324,107.834h-1.5c0-0.368,0.022-0.731,0.065-1.087l1.489,0.18
		C36.343,107.224,36.324,107.526,36.324,107.834z M36.814,105.168l-1.4-0.537c0.13-0.34,0.281-0.672,0.451-0.992l1.326,0.701
		C37.05,104.607,36.923,104.883,36.814,105.168z M38.229,102.855l-1.116-1.002c0.243-0.271,0.501-0.526,0.775-0.766l0.988,1.129
		C38.647,102.417,38.432,102.63,38.229,102.855z M40.374,101.199l-0.685-1.334c0.321-0.165,0.654-0.312,0.997-0.438l0.52,1.406
		C40.92,100.939,40.642,101.062,40.374,101.199z M42.967,100.422l-0.159-1.492c0.319-0.034,0.644-0.052,0.972-0.052v1.5
		C43.505,100.378,43.234,100.394,42.967,100.422z"/>
	<path fill="#FFFFFF" d="M43.78,116.79c-4.691,0-8.616-3.662-8.935-8.338l1.496-0.102c0.266,3.892,3.534,6.939,7.439,6.939
		c4.111,0,7.456-3.345,7.456-7.456c0-3.913-3.055-7.181-6.956-7.439l0.1-1.496c4.686,0.31,8.356,4.235,8.356,8.936
		C52.736,112.772,48.719,116.79,43.78,116.79z"/>
	<path fill="#FFFFFF" d="M45.782,112.461h-4.003c-1.111,0-2.015-0.903-2.015-2.015c0-0.414,0.336-0.75,0.75-0.75
		s0.75,0.336,0.75,0.75c0,0.284,0.231,0.515,0.515,0.515h4.003c0.284,0,0.515-0.23,0.515-0.515V109.1
		c0-0.284-0.231-0.516-0.515-0.516h-4.003c-1.111,0-2.015-0.903-2.015-2.015v-1.347c0-1.111,0.904-2.015,2.015-2.015h4.003
		c1.111,0,2.015,0.903,2.015,2.015c0,0.414-0.336,0.75-0.75,0.75s-0.75-0.336-0.75-0.75c0-0.284-0.231-0.515-0.515-0.515h-4.003
		c-0.284,0-0.515,0.23-0.515,0.515v1.347c0,0.284,0.231,0.515,0.515,0.515h4.003c1.111,0,2.015,0.904,2.015,2.016v1.347
		C47.797,111.558,46.893,112.461,45.782,112.461z"/>
	<path fill="#FFFFFF" d="M43.78,113.932c-0.414,0-0.75-0.336-0.75-0.75v-10.694c0-0.414,0.336-0.75,0.75-0.75s0.75,0.336,0.75,0.75
		v10.694C44.53,113.596,44.194,113.932,43.78,113.932z"/>
	<g>
		<path fill="#231F20" d="M125.455,2.787c-0.193,0-0.385-0.073-0.531-0.22c-0.293-0.293-0.293-0.768,0-1.061l1.287-1.287
			c0.293-0.293,0.768-0.293,1.061,0s0.293,0.768,0,1.061l-1.287,1.287C125.838,2.714,125.646,2.787,125.455,2.787z"/>
	</g>
	<g>
		<path fill="#231F20" d="M121.426,6.815c-0.191,0-0.383-0.073-0.529-0.22c-0.295-0.293-0.295-0.768,0-1.061l1.285-1.287
			c0.293-0.293,0.768-0.293,1.061,0s0.293,0.768,0,1.061l-1.287,1.287C121.811,6.742,121.617,6.815,121.426,6.815z"/>
	</g>
	<g>
		<path fill="#231F20" d="M126.742,6.815c-0.193,0-0.385-0.073-0.531-0.22l-1.287-1.287c-0.293-0.293-0.293-0.768,0-1.061
			s0.768-0.293,1.061,0l1.287,1.287c0.293,0.293,0.293,0.768,0,1.061C127.125,6.742,126.934,6.815,126.742,6.815z"/>
	</g>
	<g>
		<path fill="#231F20" d="M122.713,2.787c-0.191,0-0.385-0.073-0.531-0.22l-1.285-1.287c-0.295-0.293-0.295-0.768,0-1.061
			c0.293-0.293,0.768-0.293,1.059,0l1.287,1.287c0.293,0.293,0.293,0.768,0,1.061C123.096,2.714,122.904,2.787,122.713,2.787z"/>
	</g>
	<g>
		<path fill="#231F20" d="M5.779,20.667c-0.192,0-0.384-0.073-0.53-0.22c-0.293-0.293-0.293-0.768,0-1.061L6.535,18.1
			c0.293-0.293,0.768-0.293,1.061,0s0.293,0.768,0,1.061l-1.287,1.287C6.163,20.594,5.971,20.667,5.779,20.667z"/>
	</g>
	<g>
		<path fill="#231F20" d="M1.75,24.695c-0.192,0-0.384-0.073-0.53-0.22c-0.293-0.293-0.293-0.768,0-1.061l1.287-1.287
			c0.293-0.293,0.768-0.293,1.061,0s0.293,0.768,0,1.061L2.28,24.476C2.134,24.622,1.942,24.695,1.75,24.695z"/>
	</g>
	<g>
		<path fill="#231F20" d="M7.065,24.695c-0.192,0-0.384-0.073-0.53-0.22l-1.287-1.287c-0.293-0.293-0.293-0.768,0-1.061
			s0.768-0.293,1.061,0l1.287,1.287c0.293,0.293,0.293,0.768,0,1.061C7.449,24.622,7.257,24.695,7.065,24.695z"/>
	</g>
	<g>
		<path fill="#231F20" d="M3.037,20.667c-0.192,0-0.384-0.073-0.53-0.22L1.22,19.16c-0.293-0.293-0.293-0.768,0-1.061
			s0.768-0.293,1.061,0l1.287,1.287c0.293,0.293,0.293,0.768,0,1.061C3.421,20.594,3.229,20.667,3.037,20.667z"/>
	</g>
	<g>
		<path fill="#231F20" d="M114.949,107.465c-0.191,0-0.383-0.073-0.529-0.22c-0.293-0.293-0.293-0.768,0-1.061l1.287-1.287
			c0.293-0.293,0.768-0.293,1.061,0s0.293,0.768,0,1.061l-1.287,1.287C115.334,107.392,115.143,107.465,114.949,107.465z"/>
	</g>
	<g>
		<path fill="#231F20" d="M110.922,111.493c-0.191,0-0.385-0.073-0.531-0.22c-0.293-0.293-0.293-0.768,0-1.061l1.287-1.286
			c0.293-0.293,0.768-0.293,1.061,0s0.293,0.768,0,1.061l-1.287,1.286C111.305,111.42,111.113,111.493,110.922,111.493z"/>
	</g>
	<g>
		<path fill="#231F20" d="M116.236,111.493c-0.191,0-0.383-0.073-0.529-0.22l-1.287-1.286c-0.293-0.293-0.293-0.768-0.002-1.061
			c0.295-0.293,0.77-0.293,1.062,0l1.287,1.286c0.293,0.293,0.293,0.768,0,1.061C116.621,111.42,116.43,111.493,116.236,111.493z"/>
	</g>
	<g>
		<path fill="#231F20" d="M112.209,107.465c-0.193,0-0.385-0.073-0.531-0.22l-1.287-1.287c-0.293-0.293-0.293-0.768,0-1.061
			s0.768-0.293,1.061,0l1.287,1.287c0.293,0.293,0.293,0.768,0,1.061C112.592,107.392,112.4,107.465,112.209,107.465z"/>
	</g>
	<path fill="#231F20" d="M61.542,91.973c-0.339-0.011-0.678-0.024-1.017-0.042l0.079-1.498c0.327,0.018,0.654,0.031,0.981,0.04
		L61.542,91.973z M58.496,91.772c-0.338-0.033-0.676-0.072-1.014-0.115l0.188-1.488c0.325,0.041,0.649,0.078,0.975,0.111
		L58.496,91.772z M55.468,91.354c-0.333-0.06-0.666-0.122-0.998-0.188l0.294-1.471c0.322,0.064,0.645,0.125,0.968,0.183
		L55.468,91.354z M52.484,90.716c-0.33-0.083-0.658-0.171-0.986-0.262l0.404-1.445c0.314,0.089,0.63,0.173,0.947,0.252
		L52.484,90.716z M49.551,89.858c-0.323-0.106-0.645-0.218-0.965-0.334l0.509-1.41c0.308,0.11,0.617,0.218,0.927,0.32L49.551,89.858
		z M46.687,88.788c-0.312-0.131-0.624-0.265-0.934-0.402l0.609-1.371c0.3,0.134,0.602,0.264,0.905,0.391L46.687,88.788z
		 M43.913,87.512c-0.303-0.153-0.604-0.31-0.904-0.471l0.71-1.322c0.289,0.155,0.58,0.308,0.871,0.455L43.913,87.512z
		 M41.241,86.034c-0.292-0.174-0.582-0.354-0.87-0.537l0.806-1.266c0.276,0.176,0.554,0.348,0.834,0.516L41.241,86.034z
		 M38.68,84.361c-0.277-0.196-0.553-0.396-0.826-0.6l0.896-1.203c0.264,0.196,0.529,0.39,0.796,0.578L38.68,84.361z M36.251,82.505
		c-0.262-0.216-0.522-0.436-0.78-0.658l0.98-1.135c0.249,0.215,0.5,0.427,0.752,0.635L36.251,82.505z M33.964,80.479
		c-0.245-0.233-0.487-0.471-0.728-0.711l1.061-1.061c0.232,0.232,0.466,0.46,0.703,0.686L33.964,80.479z"/>
	<path fill="#231F20" d="M33.236,79.768c-7.881-7.881-12.222-18.359-12.222-29.505h1.5c0,10.745,4.185,20.847,11.782,28.444
		L33.236,79.768z"/>
	<path fill="#231F20" d="M22.531,49.107l-1.499-0.041c0.009-0.341,0.023-0.68,0.041-1.019l1.498,0.078
		C22.554,48.453,22.54,48.78,22.531,49.107z M22.722,46.168l-1.492-0.152c0.034-0.337,0.073-0.674,0.115-1.012l1.488,0.189
		C22.792,45.518,22.755,45.843,22.722,46.168z M23.127,43.25l-1.478-0.258c0.058-0.334,0.122-0.669,0.188-1.003l1.471,0.297
		C23.244,42.606,23.184,42.928,23.127,43.25z M23.744,40.371l-1.455-0.365c0.083-0.331,0.17-0.659,0.262-0.987l1.444,0.404
		C23.907,39.737,23.823,40.054,23.744,40.371z M24.568,37.545l-1.423-0.477c0.107-0.32,0.218-0.641,0.333-0.96l1.412,0.506
		C24.779,36.924,24.672,37.234,24.568,37.545z M25.599,34.786l-1.384-0.578c0.13-0.312,0.265-0.625,0.403-0.936l1.37,0.611
		C25.855,34.183,25.726,34.483,25.599,34.786z M26.831,32.111l-1.339-0.676c0.153-0.304,0.31-0.604,0.471-0.905l1.322,0.709
		C27.13,31.528,26.978,31.819,26.831,32.111z M28.255,29.532l-1.285-0.773c0.175-0.291,0.354-0.58,0.537-0.867l1.266,0.805
		C28.596,28.974,28.424,29.253,28.255,29.532z M29.868,27.067l-1.226-0.865c0.196-0.277,0.396-0.553,0.599-0.826l1.204,0.895
		C30.249,26.534,30.056,26.8,29.868,27.067z M31.657,24.726l-1.159-0.953c0.216-0.263,0.436-0.522,0.659-0.78l1.134,0.982
		C32.075,24.223,31.864,24.473,31.657,24.726z M33.611,22.521l-1.087-1.033c0.234-0.246,0.471-0.489,0.712-0.729l1.061,1.061
		C34.065,22.051,33.836,22.284,33.611,22.521z"/>
	<path fill="#231F20" d="M34.297,21.818l-1.061-1.061c7.88-7.881,18.358-12.222,29.505-12.222v1.5
		C51.996,10.036,41.894,14.221,34.297,21.818z"/>
	<path fill="#231F20" d="M92.246,79.768l-1.061-1.061c0.232-0.232,0.461-0.466,0.686-0.702l1.088,1.033
		C92.725,79.284,92.486,79.527,92.246,79.768z M94.326,77.533l-1.135-0.982c0.215-0.248,0.428-0.498,0.635-0.751l1.158,0.953
		C94.768,77.016,94.549,77.275,94.326,77.533z M96.242,75.149l-1.205-0.895c0.197-0.264,0.389-0.529,0.578-0.797l1.225,0.865
		C96.645,74.601,96.443,74.876,96.242,75.149z M97.975,72.633l-1.266-0.805c0.178-0.277,0.35-0.557,0.518-0.836l1.285,0.773
		C98.338,72.057,98.158,72.346,97.975,72.633z M99.52,69.996l-1.322-0.709c0.154-0.289,0.307-0.58,0.455-0.872l1.338,0.676
		C99.838,69.395,99.682,69.695,99.52,69.996z M100.865,67.253l-1.371-0.611c0.133-0.299,0.262-0.6,0.389-0.902l1.385,0.578
		C101.137,66.63,101.002,66.942,100.865,67.253z M102.004,64.416l-1.412-0.506c0.111-0.31,0.219-0.62,0.322-0.931l1.424,0.477
		C102.23,63.776,102.119,64.097,102.004,64.416z M102.932,61.507l-1.443-0.404c0.088-0.314,0.172-0.631,0.25-0.948l1.455,0.365
		C103.109,60.851,103.023,61.179,102.932,61.507z M103.645,58.536l-1.471-0.297c0.064-0.32,0.125-0.643,0.182-0.965l1.479,0.26
		C103.775,57.868,103.711,58.202,103.645,58.536z M104.137,55.521l-1.488-0.189c0.041-0.324,0.078-0.649,0.111-0.975l1.492,0.152
		C104.219,54.847,104.18,55.184,104.137,55.521z M104.41,52.479l-1.498-0.078c0.018-0.327,0.031-0.654,0.039-0.981l1.5,0.041
		C104.441,51.802,104.428,52.141,104.41,52.479z"/>
	<path fill="#231F20" d="M91.186,21.818c-0.232-0.232-0.467-0.46-0.703-0.686l1.035-1.086c0.246,0.233,0.488,0.471,0.729,0.711
		L91.186,21.818z M89.031,19.812c-0.25-0.215-0.5-0.427-0.754-0.635l0.953-1.158c0.264,0.216,0.521,0.436,0.779,0.658L89.031,19.812
		z M86.732,17.966c-0.264-0.196-0.529-0.39-0.797-0.578l0.867-1.225c0.277,0.196,0.553,0.396,0.826,0.6L86.732,17.966z
		 M84.307,16.295c-0.277-0.177-0.555-0.349-0.836-0.518l0.771-1.285c0.293,0.175,0.582,0.354,0.869,0.537L84.307,16.295z
		 M81.766,14.807c-0.289-0.155-0.58-0.308-0.873-0.455l0.678-1.338c0.303,0.153,0.605,0.31,0.904,0.471L81.766,14.807z
		 M79.121,13.51c-0.301-0.134-0.604-0.264-0.904-0.391l0.58-1.383c0.312,0.131,0.623,0.265,0.934,0.402L79.121,13.51z
		 M76.389,12.411c-0.309-0.11-0.617-0.218-0.928-0.32l0.471-1.424c0.322,0.106,0.645,0.218,0.965,0.334L76.389,12.411z
		 M73.58,11.516c-0.312-0.089-0.629-0.173-0.945-0.252l0.363-1.455c0.33,0.083,0.658,0.171,0.986,0.262L73.58,11.516z
		 M70.719,10.831c-0.322-0.064-0.645-0.125-0.967-0.183l0.264-1.477c0.332,0.06,0.666,0.122,0.998,0.188L70.719,10.831z
		 M67.811,10.355c-0.324-0.041-0.648-0.078-0.975-0.111l0.15-1.492C67.324,8.785,67.662,8.824,68,8.867L67.811,10.355z
		 M64.878,10.093c-0.327-0.018-0.654-0.031-0.981-0.04l0.044-1.5c0.339,0.011,0.678,0.024,1.017,0.042L64.878,10.093z"/>
	<path fill="#231F20" d="M104.469,50.263h-1.5c0-10.745-4.186-20.847-11.783-28.444l1.061-1.061
		C100.127,28.639,104.469,39.117,104.469,50.263z"/>
	<circle fill="#FFD05B" cx="62.741" cy="50.262" r="36.882"/>
	<circle fill="#FFFFFF" cx="62.74" cy="50.262" r="30.595"/>
	<path fill="#231F20" d="M81.527,52.228c-1.641,0-2.975-1.334-2.975-2.974c0-1.639,1.334-2.973,2.975-2.973
		c1.639,0,2.973,1.334,2.973,2.973C84.5,50.894,83.166,52.228,81.527,52.228z M81.527,47.781c-0.812,0-1.475,0.66-1.475,1.473
		s0.662,1.474,1.475,1.474S83,50.066,83,49.254S82.34,47.781,81.527,47.781z"/>
	<path fill="#231F20" d="M41.809,52.228c-1.639,0-2.973-1.334-2.973-2.974c0-1.639,1.334-2.973,2.973-2.973s2.973,1.334,2.973,2.973
		C44.782,50.894,43.448,52.228,41.809,52.228z M41.809,47.781c-0.812,0-1.473,0.66-1.473,1.473s0.661,1.474,1.473,1.474
		s1.473-0.661,1.473-1.474S42.621,47.781,41.809,47.781z"/>
	<path fill="#231F20" d="M62.741,48.145c-2.975,0-5.395-2.421-5.395-5.396s2.42-5.396,5.395-5.396c2.72,0,4.978,2.024,5.343,4.646
		h4.26c-0.312-3.953-3.08-7.387-6.941-8.499c-0.322-0.093-0.543-0.387-0.543-0.721v-2.53h-4.237v2.53
		c0,0.334-0.221,0.628-0.542,0.721c-4.104,1.183-6.971,4.985-6.971,9.249h-1.5c0-4.738,3.062-8.984,7.514-10.519v-2.731
		c0-0.414,0.336-0.75,0.75-0.75h5.737c0.414,0,0.75,0.336,0.75,0.75v2.731c4.451,1.534,7.514,5.78,7.514,10.519
		c0,0.414-0.336,0.75-0.75,0.75h-5.736c-0.414,0-0.75-0.336-0.75-0.75c0-2.148-1.748-3.896-3.896-3.896s-3.895,1.747-3.895,3.896
		s1.747,3.896,3.895,3.896V48.145z"/>
	<path fill="#231F20" d="M73.873,57.776h-1.5c0-0.312-0.016-0.621-0.045-0.926l1.494-0.145
		C73.855,57.058,73.873,57.415,73.873,57.776z M71.975,55.033c-0.088-0.298-0.191-0.59-0.307-0.874l1.391-0.564
		c0.133,0.329,0.252,0.666,0.354,1.011L71.975,55.033z M70.809,52.519c-0.17-0.259-0.352-0.509-0.543-0.749l1.168-0.939
		c0.225,0.277,0.434,0.568,0.631,0.868L70.809,52.519z M68.973,50.438c-0.234-0.2-0.48-0.39-0.734-0.566l0.857-1.23
		c0.293,0.204,0.576,0.423,0.85,0.654L68.973,50.438z M66.625,48.963c-0.283-0.124-0.572-0.236-0.867-0.334l0.473-1.424
		c0.34,0.113,0.674,0.241,0.998,0.385L66.625,48.963z M63.955,48.221c-0.304-0.038-0.613-0.062-0.925-0.071l0.044-1.5
		c0.36,0.011,0.716,0.039,1.067,0.083L63.955,48.221z"/>
	<path fill="#231F20" d="M65.609,71.776h-5.737c-0.414,0-0.75-0.336-0.75-0.75v-2.731c-4.452-1.535-7.514-5.781-7.514-10.519
		c0-0.414,0.336-0.75,0.75-0.75h5.737c0.414,0,0.75,0.336,0.75,0.75c0,2.147,1.747,3.895,3.895,3.895s3.896-1.747,3.896-3.895
		c0-2.148-1.748-3.896-3.896-3.896v-1.5c2.975,0,5.396,2.421,5.396,5.396s-2.421,5.395-5.396,5.395c-2.72,0-4.977-2.023-5.343-4.645
		h-4.259c0.313,3.952,3.08,7.386,6.941,8.499c0.321,0.093,0.542,0.387,0.542,0.721v2.53h4.237v-2.53
		c0-0.334,0.221-0.628,0.543-0.721c4.104-1.184,6.971-4.986,6.971-9.249h1.5c0,4.737-3.062,8.983-7.514,10.519v2.731
		C66.359,71.44,66.023,71.776,65.609,71.776z"/>
	<path fill="#231F20" d="M62.409,53.876c-0.36-0.011-0.716-0.039-1.067-0.083l0.187-1.488c0.304,0.038,0.613,0.062,0.925,0.071
		L62.409,53.876z M59.251,53.319c-0.34-0.113-0.673-0.241-0.999-0.385l0.604-1.373c0.282,0.124,0.571,0.236,0.867,0.334
		L59.251,53.319z M56.386,51.885c-0.293-0.204-0.577-0.423-0.849-0.654l0.973-1.143c0.235,0.2,0.48,0.39,0.733,0.566L56.386,51.885z
		 M54.048,49.695c-0.224-0.277-0.434-0.568-0.63-0.868l1.256-0.82c0.169,0.259,0.351,0.509,0.543,0.749L54.048,49.695z
		 M52.424,46.931c-0.134-0.329-0.252-0.666-0.355-1.011l1.438-0.428c0.089,0.298,0.192,0.59,0.307,0.874L52.424,46.931z
		 M51.66,43.819c-0.034-0.352-0.051-0.709-0.051-1.07h1.5c0,0.312,0.015,0.621,0.044,0.926L51.66,43.819z"/>
	<rect x="79.713" y="75.108" fill="#FFFFFF" width="1.197" height="0.793"/>
	<path fill="#231F20" d="M80.91,76.027h-1.197c-0.07,0-0.125-0.056-0.125-0.125v-0.794c0-0.069,0.055-0.125,0.125-0.125h1.197
		c0.068,0,0.125,0.056,0.125,0.125v0.794C81.035,75.972,80.979,76.027,80.91,76.027z M79.838,75.777h0.947v-0.544h-0.947V75.777z"/>
	<polyline fill="#84DBFF" points="105.678,128.75 105.678,119.364 75.516,119.364 75.516,128.75 	"/>
	<path fill="#FFFFFF" d="M100.902,74.576c-2.059-0.196-3.789,1.417-3.789,3.435v-0.896c0-1.802-1.318-3.412-3.113-3.583
		c-2.057-0.197-3.789,1.416-3.789,3.434V74.96c0-2.018-1.73-3.631-3.789-3.436c-1.795,0.172-3.111,1.781-3.111,3.584V62.76
		c0-2.017-1.732-3.63-3.789-3.434c-1.795,0.171-3.111,1.78-3.111,3.583v20.167c0-2.017-1.732-3.629-3.789-3.434
		c-1.795,0.171-3.113,1.78-3.113,3.582v10.322c0,4.9,2.242,9.53,6.086,12.57c2.723,2.152,4.311,5.433,4.311,8.904v4.344h21.178
		v-4.951c0-1.693,0.146-3.385,0.434-5.055l2.064-6.9c0.289-1.669,0.434-3.36,0.434-5.055V78.159
		C104.014,76.356,102.695,74.747,100.902,74.576z"/>
	<line fill="#E6E9EE" x1="83.311" y1="75.108" x2="83.311" y2="82.935"/>
	<line fill="#E6E9EE" x1="90.211" y1="76.798" x2="90.211" y2="83.222"/>
	<line fill="#E6E9EE" x1="97.113" y1="77.747" x2="97.113" y2="83.222"/>
	<path fill="#231F20" d="M105.678,118.614h-3.844v-4.201c0-1.649,0.141-3.307,0.4-4.84l2.086-6.987
		c0.295-1.707,0.443-3.451,0.443-5.183V78.159c0-2.226-1.664-4.127-3.791-4.33c-1.404-0.128-2.686,0.429-3.539,1.382
		c-0.627-1.321-1.883-2.284-3.361-2.426c-0.459-0.042-0.893,0.011-1.312,0.104c4.77-6.301,7.613-14.131,7.613-22.626
		c0-20.751-16.881-37.633-37.632-37.633c-20.75,0-37.632,16.882-37.632,37.633c0,20.75,16.881,37.632,37.632,37.632
		c2.05,0,4.056-0.181,6.017-0.499v2.625c-1.975,0.301-3.981,0.469-6.017,0.469v1.5c2.035,0,4.042-0.162,6.017-0.453v2.01
		c0,5.161,2.322,9.957,6.369,13.157c2.559,2.023,4.027,5.055,4.027,8.316v3.595h-3.639c-0.414,0-0.75,0.336-0.75,0.75v9.386
		c0,0.414,0.336,0.75,0.75,0.75s0.75-0.336,0.75-0.75v-8.636h28.662v8.636c0,0.414,0.336,0.75,0.75,0.75s0.75-0.336,0.75-0.75
		v-9.386C106.428,118.95,106.092,118.614,105.678,118.614z M68.758,83.225v2.657c-1.957,0.33-3.966,0.513-6.017,0.513
		c-19.923,0-36.132-16.209-36.132-36.132c0-19.924,16.208-36.133,36.132-36.133s36.132,16.209,36.132,36.133
		c0,8.722-3.123,16.714-8.293,22.957c-0.709-1.548-2.336-2.587-4.174-2.441c4.779-5.502,7.68-12.674,7.68-20.516
		c0-17.284-14.061-31.346-31.345-31.346c-17.284,0-31.346,14.062-31.346,31.346s14.062,31.346,31.346,31.346
		c2.3,0,4.539-0.262,6.699-0.736C69.012,81.556,68.758,82.364,68.758,83.225z M79.449,58.579c-2.125,0.203-3.789,2.104-3.789,4.33
		v14.24c-3.914,1.889-8.291,2.959-12.919,2.959c-16.457,0-29.846-13.389-29.846-29.846s13.389-29.846,29.846-29.846
		c16.457,0,29.845,13.389,29.845,29.846c0,8.107-3.26,15.458-8.525,20.84V62.76C84.061,60.309,81.951,58.349,79.449,58.579z
		 M75.66,78.801v1.061c-0.307-0.257-0.658-0.454-1.029-0.616C74.977,79.103,75.32,78.955,75.66,78.801z M76.059,105.527
		c-3.686-2.915-5.801-7.282-5.801-11.981V83.225c0-1.461,1.068-2.706,2.434-2.836c1.613-0.157,2.969,1.11,2.969,2.688
		c0,0.414,0.334,0.75,0.75,0.75c0.412,0,0.75-0.336,0.75-0.75V62.909c0-1.461,1.068-2.706,2.432-2.836
		c1.613-0.153,2.969,1.11,2.969,2.687v20.175c0,0.414,0.336,0.75,0.75,0.75s0.75-0.336,0.75-0.75v-7.826
		c0-1.461,1.068-2.706,2.434-2.836c1.598-0.155,2.967,1.109,2.967,2.687v8.263c0,0.414,0.336,0.75,0.75,0.75s0.75-0.336,0.75-0.75
		v-6.256c0-1.576,1.359-2.843,2.969-2.687c1.363,0.13,2.434,1.375,2.434,2.836v6.106c0,0.414,0.336,0.75,0.75,0.75
		s0.75-0.336,0.75-0.75V78.01c0-1.577,1.363-2.849,2.967-2.687c1.365,0.13,2.434,1.375,2.434,2.836v19.244
		c0,1.646-0.143,3.305-0.402,4.84l-2.084,6.987c-0.295,1.704-0.443,3.448-0.443,5.183v4.201h-19.68v-3.595
		C80.654,111.297,78.979,107.837,76.059,105.527z"/>
	<circle fill="#84DBFF" cx="21.765" cy="10.236" r="2.37"/>
	<circle fill="#E6E9EE" cx="115.949" cy="40.816" r="2.369"/>
	<circle fill="#E6E9EE" cx="115.949" cy="91.243" r="2.369"/>
	<circle fill="#FF7058" cx="7.065" cy="47.031" r="2.37"/>
	<g>
		<line fill="#FFD05B" x1="9.087" y1="118.648" x2="17.179" y2="118.648"/>
		<path fill="#231F20" d="M17.179,119.398H9.087c-0.414,0-0.75-0.336-0.75-0.75s0.336-0.75,0.75-0.75h8.092
			c0.414,0,0.75,0.336,0.75,0.75S17.593,119.398,17.179,119.398z"/>
	</g>
	<g>
		<line fill="#FFD05B" x1="16.403" y1="121.594" x2="20.361" y2="121.594"/>
		<path fill="#231F20" d="M20.361,122.344h-3.958c-0.414,0-0.75-0.336-0.75-0.75s0.336-0.75,0.75-0.75h3.958
			c0.414,0,0.75,0.336,0.75,0.75S20.775,122.344,20.361,122.344z"/>
	</g>
	<g>
		<line fill="#FFD05B" x1="20.85" y1="118.648" x2="24.622" y2="118.648"/>
		<path fill="#231F20" d="M24.622,119.398H20.85c-0.414,0-0.75-0.336-0.75-0.75s0.336-0.75,0.75-0.75h3.772
			c0.414,0,0.75,0.336,0.75,0.75S25.036,119.398,24.622,119.398z"/>
	</g>
	<g>
		<line fill="#FFD05B" x1="12.745" y1="121.594" x2="13.516" y2="121.594"/>
		<path fill="#231F20" d="M13.516,122.344h-0.771c-0.414,0-0.75-0.336-0.75-0.75s0.336-0.75,0.75-0.75h0.771
			c0.414,0,0.75,0.336,0.75,0.75S13.93,122.344,13.516,122.344z"/>
	</g>
	<g>
		<line fill="#FFD05B" x1="107.184" y1="68.081" x2="115.275" y2="68.081"/>
		<path fill="#231F20" d="M115.275,68.831h-8.092c-0.416,0-0.75-0.336-0.75-0.75s0.334-0.75,0.75-0.75h8.092
			c0.414,0,0.75,0.336,0.75,0.75S115.689,68.831,115.275,68.831z"/>
	</g>
	<g>
		<line fill="#FFD05B" x1="114.498" y1="71.026" x2="118.457" y2="71.026"/>
		<path fill="#231F20" d="M118.457,71.776h-3.959c-0.414,0-0.75-0.336-0.75-0.75s0.336-0.75,0.75-0.75h3.959
			c0.414,0,0.75,0.336,0.75,0.75S118.871,71.776,118.457,71.776z"/>
	</g>
	<g>
		<line fill="#FFD05B" x1="118.945" y1="68.081" x2="122.717" y2="68.081"/>
		<path fill="#231F20" d="M122.717,68.831h-3.771c-0.414,0-0.75-0.336-0.75-0.75s0.336-0.75,0.75-0.75h3.771
			c0.414,0,0.75,0.336,0.75,0.75S123.131,68.831,122.717,68.831z"/>
	</g>
	<g>
		<line fill="#FFD05B" x1="110.84" y1="71.026" x2="111.611" y2="71.026"/>
		<path fill="#231F20" d="M111.611,71.776h-0.771c-0.414,0-0.75-0.336-0.75-0.75s0.336-0.75,0.75-0.75h0.771
			c0.414,0,0.75,0.336,0.75,0.75S112.025,71.776,111.611,71.776z"/>
	</g>
	<path fill="#231F20" d="M107.002,28.89c-0.02,0-0.037-0.001-0.055-0.002c-0.314-0.022-0.582-0.24-0.668-0.543l-5.311-18.672
		c-0.076-0.262-0.002-0.543,0.191-0.735c0.191-0.192,0.473-0.265,0.734-0.191l18.672,5.312c0.303,0.087,0.52,0.353,0.543,0.667
		s-0.154,0.609-0.441,0.738l-6.109,2.747l4.646,4.646c0.139,0.141,0.219,0.331,0.219,0.53s-0.08,0.39-0.219,0.53l-3.068,3.066
		c-0.293,0.293-0.768,0.293-1.061,0l-4.645-4.646l-2.746,6.11C107.564,28.718,107.295,28.89,107.002,28.89z M102.779,10.558
		l4.381,15.399l2.35-5.227c0.1-0.225,0.305-0.386,0.549-0.43c0.242-0.047,0.49,0.033,0.664,0.207l4.885,4.884l2.006-2.006
		l-4.885-4.884c-0.174-0.174-0.252-0.423-0.207-0.666c0.045-0.242,0.205-0.447,0.43-0.548l5.229-2.35L102.779,10.558z"/>
</g>
</svg>
