<?xml version="1.0" encoding="utf-8"?>
<!-- Generator: Adobe Illustrator 15.0.0, SVG Export Plug-In . SVG Version: 6.00 Build 0)  -->
<!DOCTYPE svg PUBLIC "-//W3C//DTD SVG 1.1//EN" "http://www.w3.org/Graphics/SVG/1.1/DTD/svg11.dtd">
<svg version="1.1" id="Layer_1" xmlns="http://www.w3.org/2000/svg" xmlns:xlink="http://www.w3.org/1999/xlink" x="0px" y="0px"
	 width="130px" height="130px" viewBox="0 0 130 130" enable-background="new 0 0 130 130" xml:space="preserve">
<g>
	<path fill="#FFFFFF" d="M119.6,100.372H10.4V37.379c0-2.762,2.239-5,5-5H114.6c2.761,0,5,2.238,5,5V100.372z"/>
	<rect x="10.4" y="41.387" fill="#84DBFF" width="109.199" height="58.985"/>
	<path fill="#FFFFFF" d="M10.401,109.04v-8.668H119.6v8.668c0,2.328-1.91,4.215-4.266,4.215H14.666
		C12.311,113.255,10.401,111.368,10.401,109.04z"/>
	<polygon fill="#FFFFFF" points="81.35,120.892 76.723,113.255 53.277,113.255 48.65,120.892 	"/>
	<path fill="#FFFFFF" d="M89.266,127.204c-0.404-3.551-3.45-6.312-7.153-6.312H47.888c-3.703,0-6.749,2.762-7.153,6.312H89.266z"/>
	<g>
		<ellipse fill="#CED5E0" cx="65" cy="106.813" rx="3.26" ry="3.221"/>
	</g>
	<g>
		<path fill="#FFFFFF" stroke="#231F20" stroke-miterlimit="10" d="M35.175,96.485"/>
	</g>
	<ellipse fill="#FF7058" cx="64.998" cy="57.771" rx="33.156" ry="32.751"/>
	<g>
		<ellipse fill="#FFFFFF" cx="64.998" cy="57.771" rx="25.435" ry="25.125"/>
	</g>
	<g>
		<ellipse fill="#FF7058" cx="64.998" cy="57.771" rx="17.713" ry="17.498"/>
	</g>
	<g>
		<ellipse fill="#FFFFFF" cx="64.998" cy="57.771" rx="10.819" ry="10.687"/>
	</g>
	<g>
		<ellipse fill="#FF7058" cx="64.998" cy="57.771" rx="4.829" ry="4.771"/>
	</g>
	<polygon fill="#FFD05B" points="96.327,34.863 88.473,34.583 95.882,27.264 103.736,27.544 	"/>
	<polygon fill="#FFD05B" points="88.28,26.677 88.467,34.576 95.847,27.234 95.659,19.336 	"/>
	<g>
		<g>
			<path fill="#231F20" d="M120.97,123.925c-0.191,0-0.384-0.072-0.53-0.219c-0.292-0.293-0.292-0.768,0-1.061l1.287-1.287
				c0.293-0.293,0.768-0.293,1.061,0c0.293,0.291,0.293,0.768,0,1.061l-1.286,1.287C121.354,123.853,121.162,123.925,120.97,123.925
				z"/>
		</g>
		<g>
			<path fill="#231F20" d="M116.941,127.954c-0.191,0-0.384-0.074-0.53-0.221c-0.293-0.293-0.293-0.768,0-1.061l1.287-1.287
				c0.293-0.293,0.768-0.293,1.061,0s0.293,0.77,0,1.061l-1.287,1.287C117.325,127.88,117.134,127.954,116.941,127.954z"/>
		</g>
		<g>
			<path fill="#231F20" d="M122.257,127.954c-0.192,0-0.384-0.074-0.53-0.221l-1.287-1.287c-0.292-0.293-0.292-0.768,0-1.061
				c0.294-0.293,0.769-0.293,1.062,0l1.286,1.287c0.293,0.293,0.293,0.768,0,1.061C122.641,127.88,122.448,127.954,122.257,127.954z
				"/>
		</g>
		<g>
			<path fill="#231F20" d="M118.229,123.925c-0.192,0-0.384-0.072-0.53-0.219l-1.287-1.287c-0.293-0.293-0.293-0.768,0-1.061
				s0.768-0.293,1.061,0l1.287,1.287c0.293,0.293,0.293,0.768,0,1.061C118.612,123.853,118.421,123.925,118.229,123.925z"/>
		</g>
	</g>
	<g>
		<path fill="#231F20" d="M114.599,31.629h-13.93l3.595-3.551c0.213-0.21,0.28-0.527,0.172-0.806s-0.373-0.466-0.672-0.477
			l-7.184-0.256l-0.171-7.219c-0.008-0.3-0.192-0.566-0.471-0.678s-0.596-0.047-0.809,0.164l-7.379,7.341
			c-0.146,0.145-0.227,0.344-0.221,0.549l0.116,4.934h-1.479c-5.806-4.6-13.165-7.36-21.169-7.36s-15.363,2.76-21.169,7.36H15.401
			c-3.171,0-5.75,2.58-5.75,5.75v71.661c0,2.738,2.25,4.965,5.016,4.965h37.279l-3.719,6.137h-0.34c-4.05,0-7.445,3-7.898,6.977
			l-0.096,0.836h50.213l-0.096-0.836c-0.452-3.977-3.848-6.977-7.898-6.977h-0.34l-3.719-6.137h37.28
			c2.765,0,5.015-2.227,5.015-4.965V37.379C120.349,34.208,117.77,31.629,114.599,31.629z M96.179,28.025l5.795,0.207l-5.943,5.871
			l-5.795-0.207L96.179,28.025z M94.95,21.099l0.139,5.831l-5.914,5.883l-0.138-5.831L94.95,21.099z M64.998,25.769
			c8.662,0,16.534,3.38,22.354,8.866L64.472,57.237c-0.295,0.291-0.299,0.766-0.008,1.061c0.147,0.149,0.341,0.223,0.534,0.223
			c0.19,0,0.381-0.072,0.526-0.216L88.42,35.689c5.56,5.748,8.984,13.525,8.984,22.082c0,17.646-14.538,32.001-32.406,32.001
			S32.592,75.417,32.592,57.771S47.13,25.769,64.998,25.769z M11.151,37.379c0-2.343,1.906-4.25,4.25-4.25h26.655
			c-2.407,2.189-4.492,4.718-6.181,7.508H11.151V37.379z M82.112,121.642c2.996,0,5.551,2.018,6.256,4.812H41.631
			c0.707-2.795,3.261-4.812,6.257-4.812H82.112z M80.019,120.142H49.981l3.718-6.137h22.602L80.019,120.142z M118.849,109.04
			c0,1.91-1.576,3.465-3.515,3.465H14.667c-1.939,0-3.516-1.555-3.516-3.465v-7.918h107.697V109.04z M118.849,99.622H11.151V42.137
			h23.871c-2.505,4.671-3.931,9.99-3.931,15.634c0,18.472,15.21,33.501,33.906,33.501c18.695,0,33.906-15.029,33.906-33.501
			c0-5.644-1.426-10.963-3.932-15.634h23.876V99.622z M118.849,40.637H94.12c-1.137-1.878-2.467-3.625-3.94-5.243l6.12,0.218
			c0.01,0,0.019,0,0.027,0c0.196,0,0.387-0.078,0.527-0.216l2.296-2.268h15.448c2.344,0,4.25,1.907,4.25,4.25V40.637z"/>
		<path fill="#231F20" d="M116.391,12.391c0.192,0,0.384-0.073,0.53-0.22l1.287-1.287c0.293-0.292,0.293-0.768,0-1.061
			s-0.768-0.293-1.061,0l-1.287,1.287c-0.293,0.292-0.293,0.768,0,1.061C116.007,12.318,116.198,12.391,116.391,12.391z"/>
		<path fill="#231F20" d="M112.362,16.42c0.191,0,0.384-0.073,0.53-0.22l1.287-1.287c0.293-0.293,0.293-0.768,0-1.061
			s-0.768-0.293-1.061,0l-1.287,1.287c-0.293,0.293-0.293,0.768,0,1.061C111.979,16.347,112.171,16.42,112.362,16.42z"/>
		<path fill="#231F20" d="M116.921,13.853c-0.293-0.293-0.768-0.293-1.061,0c-0.293,0.292-0.293,0.768,0,1.061l1.287,1.287
			c0.146,0.146,0.338,0.22,0.53,0.22c0.191,0,0.384-0.073,0.53-0.22c0.293-0.292,0.293-0.768,0-1.061L116.921,13.853z"/>
		<path fill="#231F20" d="M113.119,12.171c0.146,0.146,0.339,0.22,0.53,0.22s0.384-0.073,0.53-0.22c0.293-0.293,0.293-0.768,0-1.061
			l-1.287-1.287c-0.293-0.293-0.768-0.293-1.061,0s-0.293,0.768,0,1.061L113.119,12.171z"/>
		<path fill="#231F20" d="M17.838,4.418c0.192,0,0.384-0.073,0.53-0.22l1.287-1.287c0.293-0.293,0.293-0.768,0-1.061
			s-0.768-0.293-1.061,0l-1.287,1.287c-0.293,0.293-0.293,0.768,0,1.061C17.454,4.345,17.646,4.418,17.838,4.418z"/>
		<path fill="#231F20" d="M13.81,8.446c0.192,0,0.384-0.073,0.53-0.22l1.287-1.287c0.292-0.293,0.292-0.768,0-1.061
			c-0.293-0.293-0.769-0.293-1.062,0l-1.286,1.287c-0.293,0.293-0.293,0.768,0,1.061C13.426,8.373,13.618,8.446,13.81,8.446z"/>
		<path fill="#231F20" d="M18.595,8.227c0.146,0.146,0.338,0.22,0.53,0.22s0.384-0.073,0.53-0.22c0.293-0.293,0.293-0.768,0-1.061
			l-1.287-1.287c-0.293-0.293-0.768-0.293-1.061,0s-0.293,0.768,0,1.061L18.595,8.227z"/>
		<path fill="#231F20" d="M14.565,4.198c0.146,0.146,0.339,0.22,0.531,0.22c0.191,0,0.383-0.073,0.53-0.22
			c0.292-0.292,0.292-0.768,0-1.061L14.34,1.851c-0.293-0.293-0.768-0.293-1.061,0c-0.293,0.292-0.293,0.768,0,1.061L14.565,4.198z"
			/>
		<path fill="#231F20" d="M52.401,9.304h8.092c0.414,0,0.75-0.336,0.75-0.75s-0.336-0.75-0.75-0.75h-8.092
			c-0.414,0-0.75,0.336-0.75,0.75S51.987,9.304,52.401,9.304z"/>
		<path fill="#231F20" d="M59.718,10.75c-0.414,0-0.75,0.336-0.75,0.75s0.336,0.75,0.75,0.75h3.958c0.414,0,0.75-0.336,0.75-0.75
			s-0.336-0.75-0.75-0.75H59.718z"/>
		<path fill="#231F20" d="M64.165,9.304h3.771c0.415,0,0.75-0.336,0.75-0.75s-0.335-0.75-0.75-0.75h-3.771
			c-0.414,0-0.75,0.336-0.75,0.75S63.751,9.304,64.165,9.304z"/>
		<path fill="#231F20" d="M56.06,10.75c-0.415,0-0.75,0.336-0.75,0.75s0.335,0.75,0.75,0.75h0.771c0.413,0,0.75-0.336,0.75-0.75
			s-0.337-0.75-0.75-0.75H56.06z"/>
	</g>
	<g>
		<path fill="#231F20" d="M26.681,119.419c0-0.414-0.336-0.75-0.75-0.75h-8.093c-0.414,0-0.75,0.336-0.75,0.75s0.336,0.75,0.75,0.75
			h8.093C26.345,120.169,26.681,119.833,26.681,119.419z"/>
		<path fill="#231F20" d="M29.112,121.614h-3.958c-0.414,0-0.75,0.336-0.75,0.75s0.336,0.75,0.75,0.75h3.958
			c0.414,0,0.75-0.336,0.75-0.75S29.526,121.614,29.112,121.614z"/>
		<path fill="#231F20" d="M33.372,118.669h-3.771c-0.414,0-0.75,0.336-0.75,0.75s0.336,0.75,0.75,0.75h3.771
			c0.414,0,0.75-0.336,0.75-0.75S33.786,118.669,33.372,118.669z"/>
		<path fill="#231F20" d="M22.268,121.614h-0.772c-0.414,0-0.75,0.336-0.75,0.75s0.336,0.75,0.75,0.75h0.772
			c0.414,0,0.75-0.336,0.75-0.75S22.682,121.614,22.268,121.614z"/>
	</g>
	<g>
		<circle fill="#84DBFF" cx="94.574" cy="7.053" r="2.138"/>
	</g>
	<g>
		<circle fill="#FF7058" cx="126.862" cy="78.817" r="2.138"/>
	</g>
	<g>
		<circle fill="#E6E9EE" cx="31.842" cy="17.165" r="2.138"/>
	</g>
	<g>
		<circle fill="#FFD05B" cx="3.138" cy="41.387" r="2.138"/>
	</g>
	<g>
		<circle fill="#E6E9EE" cx="103.909" cy="121.888" r="2.138"/>
	</g>
</g>
</svg>
