<?xml version="1.0" encoding="utf-8"?>
<!-- Generator: Adobe Illustrator 15.0.0, SVG Export Plug-In . SVG Version: 6.00 Build 0)  -->
<!DOCTYPE svg PUBLIC "-//W3C//DTD SVG 1.1//EN" "http://www.w3.org/Graphics/SVG/1.1/DTD/svg11.dtd">
<svg version="1.1" id="Layer_1" xmlns="http://www.w3.org/2000/svg" xmlns:xlink="http://www.w3.org/1999/xlink" x="0px" y="0px"
	 width="130px" height="130px" viewBox="0 0 130 130" enable-background="new 0 0 130 130" xml:space="preserve">
<g>
	<g>
		<path fill="#231F20" d="M116.935,61.869c-0.191,0-0.384-0.073-0.53-0.219c-0.293-0.293-0.293-0.769,0-1.062l1.286-1.287
			c0.292-0.291,0.767-0.293,1.061,0c0.293,0.293,0.293,0.768,0,1.061l-1.286,1.287C117.318,61.795,117.127,61.869,116.935,61.869z"
			/>
	</g>
	<g>
		<path fill="#231F20" d="M112.905,65.896c-0.192,0-0.384-0.072-0.53-0.219c-0.293-0.293-0.293-0.768,0-1.06l1.287-1.287
			c0.293-0.294,0.768-0.292,1.061,0c0.293,0.293,0.293,0.768,0,1.061l-1.287,1.287C113.289,65.824,113.097,65.896,112.905,65.896z"
			/>
	</g>
	<g>
		<path fill="#231F20" d="M118.221,65.896c-0.192,0-0.384-0.072-0.53-0.219l-1.286-1.287c-0.293-0.293-0.293-0.768,0-1.061
			c0.293-0.294,0.768-0.292,1.061,0l1.286,1.287c0.293,0.293,0.293,0.767,0,1.06C118.604,65.824,118.412,65.896,118.221,65.896z"/>
	</g>
	<g>
		<path fill="#231F20" d="M114.192,61.869c-0.192,0-0.384-0.073-0.53-0.22l-1.287-1.287c-0.293-0.293-0.293-0.768,0-1.061
			s0.768-0.293,1.061,0l1.287,1.287c0.293,0.293,0.293,0.768,0,1.061C114.576,61.795,114.385,61.869,114.192,61.869z"/>
	</g>
	<g>
		<path fill="#231F20" d="M77.7,14.36c-0.192,0-0.384-0.073-0.53-0.22c-0.293-0.292-0.293-0.767,0-1.06l1.287-1.287
			c0.293-0.293,0.768-0.293,1.061,0c0.293,0.292,0.293,0.768,0,1.06L78.23,14.14C78.084,14.287,77.893,14.36,77.7,14.36z"/>
	</g>
	<g>
		<path fill="#231F20" d="M73.672,18.389c-0.191,0-0.384-0.073-0.53-0.22c-0.293-0.292-0.293-0.768,0-1.061l1.286-1.287
			c0.292-0.292,0.767-0.293,1.061-0.001c0.293,0.293,0.293,0.769,0,1.062l-1.286,1.287C74.056,18.316,73.864,18.389,73.672,18.389z"
			/>
	</g>
	<g>
		<path fill="#231F20" d="M78.987,18.389c-0.192,0-0.384-0.073-0.53-0.22l-1.287-1.287c-0.293-0.293-0.293-0.768,0-1.061
			s0.768-0.293,1.061,0l1.287,1.287c0.293,0.293,0.293,0.768,0,1.061C79.371,18.316,79.18,18.389,78.987,18.389z"/>
	</g>
	<g>
		<path fill="#231F20" d="M74.958,14.36c-0.192,0-0.384-0.073-0.53-0.22l-1.286-1.287c-0.293-0.292-0.293-0.768,0-1.061
			c0.294-0.292,0.769-0.292,1.061,0.001l1.286,1.287c0.293,0.293,0.293,0.768,0,1.061C75.342,14.287,75.149,14.36,74.958,14.36z"/>
	</g>
	<g>
		<circle fill="#FFD05B" cx="79.61" cy="28.07" r="1.91"/>
	</g>
	<g>
		<circle fill="#FF7058" cx="65.322" cy="5.981" r="1.91"/>
	</g>
	<g>
		<circle fill="#CED5E0" cx="123.039" cy="49.682" r="2.824"/>
	</g>
	<g>
		<circle fill="#FF7058" cx="120.025" cy="84.596" r="1.875"/>
	</g>
	<g>
		<circle fill="#FFD05B" cx="20.708" cy="119.875" r="1.875"/>
	</g>
	<g>
		<rect x="34.118" y="0" fill="#231F20" width="2.893" height="1.5"/>
	</g>
	<g>
		<polygon fill="#FFFFFF" points="49.636,0.75 49.636,18.078 66.963,18.078 		"/>
		<path fill="#231F20" d="M66.963,18.828H49.636c-0.414,0-0.75-0.335-0.75-0.75V0.75c0-0.303,0.183-0.577,0.463-0.693
			s0.603-0.051,0.817,0.163l17.327,17.327c0.215,0.215,0.278,0.537,0.163,0.818C67.54,18.645,67.267,18.828,66.963,18.828z
			 M50.386,17.328h14.767L50.386,2.561V17.328z"/>
	</g>
	<g>
		<polygon fill="#FFD05B" points="51.635,16.078 51.635,5.579 62.134,16.078 		"/>
	</g>
	<path fill="#FFFFFF" d="M94.551,52.647v76.103H28.337V52.758c0-1.896-0.77-3.624-2.019-4.873c-1.249-1.249-2.977-2.019-4.873-2.019
		h66.325C91.516,45.867,94.551,48.902,94.551,52.647z"/>
	<g>
		<path fill="#FFD05B" d="M15.08,81.646c0.953-1.441,1.464-3.133,1.464-4.902V52.757c0-1.307,0.509-2.534,1.432-3.458
			c0.924-0.924,2.156-1.433,3.471-1.433c1.307,0,2.535,0.509,3.459,1.433c0.923,0.924,1.432,2.151,1.432,3.458v28.889H15.08z"/>
	</g>
	<g>
		<g>
			<path fill="#231F20" d="M111.765,37.903h-4.413c-0.388,0-0.711-0.296-0.747-0.682l-0.262-2.825
				c-1.951-0.402-3.774-1.157-5.435-2.248l-2.18,1.812c-0.297,0.246-0.734,0.229-1.01-0.048l-3.121-3.12
				c-0.274-0.273-0.294-0.711-0.047-1.01l1.811-2.181c-1.091-1.66-1.846-3.483-2.248-5.435l-2.825-0.262
				c-0.386-0.036-0.681-0.359-0.681-0.746v-4.414c0-0.388,0.295-0.711,0.681-0.746l2.825-0.263c0.403-1.95,1.157-3.774,2.248-5.434
				l-1.811-2.181c-0.247-0.298-0.228-0.735,0.047-1.01l3.121-3.121c0.275-0.274,0.713-0.293,1.01-0.047l2.181,1.811
				c1.659-1.091,3.482-1.845,5.434-2.248l0.262-2.825C106.641,0.295,106.964,0,107.352,0h4.413c0.388,0,0.711,0.295,0.747,0.681
				l0.262,2.825c1.95,0.403,3.773,1.157,5.435,2.248l2.181-1.811c0.299-0.245,0.736-0.227,1.01,0.047l3.12,3.121
				c0.274,0.274,0.294,0.712,0.047,1.01l-1.811,2.181c1.091,1.659,1.845,3.483,2.248,5.434l2.825,0.263
				c0.386,0.036,0.681,0.359,0.681,0.746v4.414c0,0.387-0.295,0.71-0.681,0.746l-2.825,0.262c-0.402,1.951-1.157,3.774-2.248,5.435
				l1.811,2.181c0.247,0.299,0.228,0.736-0.047,1.01l-3.121,3.12c-0.273,0.276-0.711,0.294-1.01,0.048l-2.18-1.812
				c-1.661,1.092-3.484,1.846-5.435,2.249l-0.262,2.824C112.476,37.607,112.152,37.903,111.765,37.903z M108.035,36.403h3.046
				l0.251-2.709c0.031-0.338,0.287-0.613,0.622-0.67c2.132-0.361,4.104-1.177,5.863-2.426c0.278-0.197,0.652-0.183,0.914,0.034
				l2.089,1.736l2.154-2.154l-1.735-2.091c-0.217-0.261-0.231-0.636-0.034-0.913c1.248-1.758,2.064-3.73,2.426-5.862
				c0.057-0.336,0.331-0.591,0.67-0.622l2.708-0.252v-3.046l-2.708-0.251c-0.339-0.031-0.613-0.286-0.67-0.622
				c-0.361-2.133-1.178-4.105-2.426-5.862c-0.197-0.277-0.183-0.652,0.034-0.913l1.735-2.091l-2.153-2.153l-2.09,1.734
				c-0.261,0.217-0.635,0.232-0.914,0.035c-1.758-1.25-3.731-2.065-5.863-2.426c-0.335-0.057-0.591-0.332-0.622-0.67L111.081,1.5
				h-3.046l-0.251,2.709c-0.031,0.338-0.287,0.613-0.622,0.67c-2.133,0.36-4.105,1.177-5.862,2.426
				c-0.277,0.197-0.651,0.184-0.914-0.035l-2.09-1.735l-2.154,2.154l1.735,2.091c0.217,0.261,0.231,0.636,0.034,0.913
				c-1.248,1.757-2.064,3.729-2.426,5.862c-0.057,0.336-0.332,0.591-0.67,0.622l-2.708,0.251v3.046l2.708,0.252
				c0.339,0.031,0.613,0.286,0.67,0.622c0.361,2.132,1.178,4.104,2.426,5.862c0.197,0.277,0.183,0.652-0.034,0.913l-1.735,2.091
				l2.154,2.154l2.089-1.736c0.262-0.216,0.637-0.231,0.914-0.034c1.758,1.248,3.73,2.064,5.863,2.426
				c0.335,0.057,0.591,0.332,0.622,0.67L108.035,36.403z"/>
		</g>
		<g>
			<path fill="#231F20" d="M109.468,31.102c-0.357-0.003-0.712-0.021-1.062-0.054l0.141-1.493c0.307,0.029,0.618,0.044,0.933,0.047
				L109.468,31.102z M111.59,30.934l-0.25-1.48c0.309-0.051,0.613-0.117,0.912-0.194l0.379,1.451
				C112.289,30.799,111.941,30.874,111.59,30.934z M106.312,30.664c-0.345-0.095-0.684-0.205-1.015-0.33l0.529-1.403
				c0.288,0.108,0.584,0.205,0.886,0.288L106.312,30.664z M114.637,29.994l-0.629-1.362c0.284-0.131,0.561-0.273,0.829-0.428
				l0.746,1.303C115.275,29.681,114.96,29.844,114.637,29.994z M103.378,29.416c-0.307-0.181-0.604-0.376-0.893-0.583l0.875-1.218
				c0.253,0.181,0.514,0.351,0.781,0.51L103.378,29.416z M117.332,28.292l-0.963-1.15c0.238-0.2,0.47-0.41,0.691-0.63l1.057,1.063
				C117.866,27.825,117.604,28.065,117.332,28.292z M100.871,27.448c-0.248-0.254-0.486-0.52-0.711-0.793l1.16-0.952
				c0.197,0.241,0.404,0.474,0.623,0.695L100.871,27.448z M119.492,25.95l-1.227-0.862c0.179-0.255,0.348-0.518,0.505-0.788
				l1.297,0.755C119.889,25.361,119.696,25.66,119.492,25.95z M98.96,24.898c-0.175-0.31-0.335-0.626-0.481-0.952l1.369-0.614
				c0.127,0.284,0.268,0.562,0.419,0.83L98.96,24.898z M120.972,23.127l-1.408-0.517c0.106-0.29,0.2-0.587,0.281-0.889l1.449,0.389
				C121.201,22.457,121.094,22.795,120.972,23.127z M97.777,21.937c-0.086-0.343-0.158-0.69-0.214-1.044l1.48-0.236
				c0.05,0.309,0.112,0.613,0.188,0.913L97.777,21.937z M121.663,20.014l-1.494-0.128c0.026-0.309,0.04-0.62,0.04-0.935h1.5
				C121.709,19.309,121.693,19.665,121.663,20.014z M98.908,18.793l-1.5-0.021c0.005-0.357,0.026-0.712,0.062-1.062l1.492,0.15
				C98.931,18.168,98.913,18.479,98.908,18.793z M120.097,17.401c-0.045-0.309-0.104-0.615-0.174-0.916l1.459-0.345
				c0.082,0.344,0.148,0.692,0.199,1.047L120.097,17.401z M99.313,16.03l-1.443-0.411c0.099-0.343,0.211-0.681,0.336-1.011
				l1.402,0.535C99.497,15.432,99.398,15.728,99.313,16.03z M119.333,14.716c-0.124-0.286-0.261-0.566-0.408-0.839l1.318-0.715
				c0.169,0.312,0.325,0.631,0.467,0.958L119.333,14.716z M100.426,13.467l-1.285-0.772c0.183-0.305,0.379-0.601,0.587-0.888
				l1.215,0.881C100.76,12.94,100.587,13.2,100.426,13.467z M117.896,12.323c-0.194-0.244-0.398-0.479-0.613-0.705l1.088-1.033
				c0.244,0.258,0.478,0.525,0.699,0.804L117.896,12.323z M102.167,11.283l-1.039-1.081c0.255-0.246,0.521-0.48,0.796-0.703
				l0.945,1.164C102.627,10.86,102.393,11.067,102.167,11.283z M115.883,10.381c-0.25-0.186-0.508-0.359-0.774-0.521l0.783-1.28
				c0.304,0.186,0.599,0.386,0.884,0.597L115.883,10.381z M104.415,9.623l-0.725-1.313c0.31-0.171,0.628-0.329,0.952-0.474
				l0.609,1.371C104.967,9.333,104.688,9.472,104.415,9.623z M113.437,9.03c-0.288-0.114-0.582-0.215-0.882-0.303l0.422-1.439
				c0.343,0.102,0.68,0.217,1.009,0.345L113.437,9.03z M107.017,8.606l-0.357-1.458c0.343-0.083,0.69-0.152,1.043-0.207l0.23,1.482
				C107.623,8.471,107.316,8.532,107.017,8.606z M110.727,8.364c-0.307-0.033-0.618-0.054-0.933-0.061l0.033-1.5
				c0.357,0.008,0.712,0.031,1.062,0.069L110.727,8.364z"/>
		</g>
		<g>
			<circle fill="#FF7058" cx="109.558" cy="18.952" r="9.05"/>
		</g>
		<g>
			<circle fill="#FFFFFF" cx="109.558" cy="18.952" r="4.524"/>
			<path fill="#231F20" d="M109.559,24.225c-2.908,0-5.274-2.365-5.274-5.273s2.366-5.274,5.274-5.274s5.273,2.366,5.273,5.274
				S112.467,24.225,109.559,24.225z M109.559,15.177c-2.081,0-3.774,1.693-3.774,3.774s1.693,3.773,3.774,3.773
				s3.773-1.692,3.773-3.773S111.64,15.177,109.559,15.177z"/>
		</g>
	</g>
	<g>
		<g>
			<rect x="7.321" y="22.837" fill="#231F20" width="15.511" height="1.5"/>
		</g>
		<g>
			<rect x="7.321" y="27.764" fill="#231F20" width="15.511" height="1.5"/>
		</g>
		<g>
			<rect x="7.321" y="32.691" fill="#231F20" width="15.511" height="1.5"/>
		</g>
		<g>
			<rect x="7.321" y="37.619" fill="#231F20" width="15.511" height="1.5"/>
		</g>
		<g>
			<rect x="26.102" y="22.837" fill="#231F20" width="15.51" height="1.5"/>
		</g>
		<g>
			<rect x="26.102" y="27.764" fill="#231F20" width="15.51" height="1.5"/>
		</g>
		<g>
			<rect x="26.102" y="32.691" fill="#231F20" width="15.51" height="1.5"/>
		</g>
		<g>
			<rect x="26.102" y="37.619" fill="#231F20" width="15.51" height="1.5"/>
		</g>
		<g>
			<rect x="44.882" y="22.837" fill="#231F20" width="15.51" height="1.5"/>
		</g>
		<g>
			<rect x="44.882" y="27.764" fill="#231F20" width="15.51" height="1.5"/>
		</g>
		<g>
			<rect x="44.882" y="32.691" fill="#231F20" width="15.51" height="1.5"/>
		</g>
	</g>
	<g>
		<g>
			<rect x="34.79" y="89.559" fill="#231F20" width="15.511" height="1.5"/>
		</g>
		<g>
			<rect x="34.79" y="95.393" fill="#231F20" width="15.511" height="1.5"/>
		</g>
		<g>
			<rect x="34.79" y="101.227" fill="#231F20" width="15.511" height="1.5"/>
		</g>
		<g>
			<rect x="34.79" y="107.061" fill="#231F20" width="15.511" height="1.5"/>
		</g>
		<g>
			<rect x="53.57" y="89.559" fill="#231F20" width="15.511" height="1.5"/>
		</g>
		<g>
			<rect x="53.57" y="95.393" fill="#231F20" width="15.511" height="1.5"/>
		</g>
		<g>
			<rect x="53.57" y="101.227" fill="#231F20" width="15.511" height="1.5"/>
		</g>
		<g>
			<rect x="53.57" y="107.061" fill="#231F20" width="15.511" height="1.5"/>
		</g>
		<g>
			<rect x="72.351" y="89.559" fill="#231F20" width="15.511" height="1.5"/>
		</g>
		<g>
			<rect x="72.351" y="95.393" fill="#231F20" width="15.511" height="1.5"/>
		</g>
		<g>
			<rect x="72.351" y="101.227" fill="#231F20" width="15.511" height="1.5"/>
		</g>
	</g>
	<g>
		<circle fill="#84DBFF" cx="9.965" cy="99.75" r="6.481"/>
	</g>
	<path fill="#231F20" d="M9.965,90c-5.376,0-9.75,4.375-9.75,9.75c0,5.377,4.374,9.75,9.75,9.75s9.75-4.373,9.75-9.75
		C19.715,94.375,15.341,90,9.965,90z M18.177,99h-4.093c-0.087-2.701-0.641-5.383-1.624-7.111
		C15.563,92.877,17.873,95.652,18.177,99z M9.965,108c-1.022,0-2.48-2.898-2.626-7.5h5.252C12.445,105.102,10.987,108,9.965,108z
		 M7.339,99c0.146-4.602,1.604-7.5,2.626-7.5s2.48,2.898,2.626,7.5H7.339z M7.469,91.889C6.487,93.617,5.933,96.299,5.846,99H1.753
		C2.056,95.652,4.366,92.877,7.469,91.889z M1.753,100.5h4.084c0.087,2.691,0.64,5.377,1.615,7.105
		C4.357,106.613,2.056,103.842,1.753,100.5z M12.479,107.605c0.975-1.729,1.527-4.414,1.614-7.105h4.084
		C17.874,103.842,15.572,106.613,12.479,107.605z"/>
	<path fill="#FFFFFF" d="M67.255,121.549h2.965v-7.096h-2.965c-1.959,0-3.548,1.588-3.548,3.549l0,0
		C63.707,119.961,65.296,121.549,67.255,121.549z"/>
	<rect x="70.22" y="114.453" fill="#FFFFFF" width="42.274" height="7.096"/>
	<polygon fill="#FFFFFF" points="112.494,114.453 124.076,118.002 112.494,121.549 	"/>
	<line fill="#FFFFFF" x1="95.688" y1="76.711" x2="100.334" y2="81.357"/>
	<circle fill="#84DBFF" cx="79.432" cy="60.456" r="22.99"/>
	<circle fill="#FFFFFF" cx="79.432" cy="60.456" r="18.107"/>
	<path fill="#231F20" d="M79.432,69.068c-0.414,0-0.75-0.322-0.75-0.736c0-3.033,1.588-5.835,4.247-7.52
		c1.997-1.266,3.161-3.521,3.037-5.885c-0.173-3.293-2.888-6.008-6.18-6.181c-1.808-0.092-3.542,0.539-4.857,1.787
		s-2.04,2.934-2.04,4.747c0,0.414-0.336,0.75-0.75,0.75s-0.75-0.336-0.75-0.75c0-2.229,0.891-4.301,2.508-5.835
		c1.615-1.534,3.74-2.318,5.968-2.197c4.049,0.213,7.387,3.551,7.6,7.6c0.152,2.905-1.278,5.676-3.732,7.23
		c-2.223,1.408-3.55,3.736-3.55,6.228C80.182,68.721,79.846,69.068,79.432,69.068z"/>
	<path fill="#231F20" d="M79.432,73.143c-0.414,0-0.75-0.336-0.75-0.75v-0.561c0-0.414,0.336-0.75,0.75-0.75s0.75,0.336,0.75,0.75
		v0.561C80.182,72.807,79.846,73.143,79.432,73.143z"/>
	<path fill="#FFFFFF" d="M100.332,81.357L100.332,81.357c-1.881,1.881-1.881,4.928,0,6.809l14.164,14.164
		c1.88,1.881,4.929,1.881,6.809,0l0,0c1.881-1.881,1.881-4.93,0-6.811l-14.163-14.162C105.262,79.477,102.213,79.477,100.332,81.357
		z"/>
	
		<rect x="102.787" y="87.028" transform="matrix(0.7071 0.7071 -0.7071 0.7071 97.3944 -51.4597)" fill="#E6E9EE" width="16.063" height="9.629"/>
	<g>
		<path fill="#231F20" d="M124.297,117.283l-11.582-3.547c-0.027-0.01-0.057,0-0.084-0.006c-0.046-0.008-0.088-0.027-0.136-0.027
			H95.301V78.082c0.122-0.109,0.248-0.217,0.367-0.33l3.658,3.658c-1.656,2.18-1.512,5.299,0.477,7.287l14.162,14.162
			c2.17,2.17,5.701,2.17,7.871,0c2.17-2.168,2.169-5.699-0.001-7.869l-12.761-12.762l-1.402-1.402
			c-1.987-1.986-5.105-2.131-7.285-0.477l-3.658-3.658c3.992-4.248,6.443-9.959,6.443-16.236c0-13.091-10.649-23.74-23.74-23.74
			c-4.262,0-8.259,1.137-11.719,3.112v-21.75c0-0.206-0.084-0.394-0.22-0.53L50.166,0.22C50.03,0.084,49.843,0,49.636,0h-9.602v1.5
			h8.852v16.577c0,0.415,0.336,0.75,0.75,0.75h16.577v21.929c-1.819,1.226-3.464,2.692-4.879,4.36H21.445
			c-2.048,0-3.971,0.795-5.414,2.238c-1.443,1.442-2.238,3.361-2.238,5.402v23.987c0,1.646-0.639,3.193-1.798,4.354
			c-1.16,1.158-2.702,1.797-4.343,1.797c-3.393,0-6.152-2.758-6.152-6.15V1.5h29.463V0H0.75C0.336,0,0,0.336,0,0.75v75.994
			c0,4.219,3.433,7.65,7.652,7.65h19.935v44.355c0,0.414,0.336,0.75,0.75,0.75h66.214c0.414,0,0.75-0.336,0.75-0.75v-6.451h17.194
			c0.073,0,0.147-0.012,0.22-0.033l11.582-3.547c0.315-0.098,0.53-0.389,0.53-0.719
			C124.827,117.672,124.612,117.381,124.297,117.283z M120.774,96.051c1.585,1.584,1.585,4.164,0.001,5.748
			c-1.586,1.586-4.165,1.586-5.75,0l-0.871-0.871l5.748-5.75L120.774,96.051z M108.544,83.82l10.298,10.297l-5.749,5.75
			l-10.298-10.299L108.544,83.82z M100.863,81.887c1.584-1.584,4.164-1.584,5.748,0l0.871,0.873l-5.748,5.748l-0.871-0.871
			C99.278,86.051,99.277,83.473,100.863,81.887z M50.386,17.328V2.561l14.767,14.767H50.386z M79.432,38.215
			c12.264,0,22.24,9.977,22.24,22.24c0,12.263-9.977,22.24-22.24,22.24c-12.263,0-22.24-9.977-22.24-22.24
			C57.192,48.192,67.169,38.215,79.432,38.215z M27.587,82.895H12.202c0.3-0.223,0.585-0.469,0.854-0.736
			c1.442-1.443,2.237-3.367,2.237-5.414V52.757c0-1.64,0.639-3.183,1.799-4.342c1.16-1.16,2.706-1.799,4.354-1.799
			c1.641,0,3.183,0.639,4.343,1.799c1.16,1.159,1.799,2.702,1.799,4.342V82.895z M93.801,128H29.087V52.757
			c0-2.041-0.795-3.96-2.238-5.402c-0.269-0.27-0.555-0.515-0.854-0.738h34.166c-2.808,3.899-4.469,8.678-4.469,13.839
			c0,13.091,10.65,23.74,23.74,23.74c5.399,0,10.377-1.818,14.369-4.865v34.373H67.255c-2.37,0-4.298,1.928-4.298,4.297
			c0,2.371,1.928,4.299,4.298,4.299h26.546V128z M69.47,115.203v5.596h-2.215c-1.543,0-2.798-1.256-2.798-2.799
			s1.255-2.797,2.798-2.797H69.47z M111.745,120.799H70.97v-2.049h40.775V120.799z M111.745,117.25H70.97v-2.047h40.775V117.25z
			 M113.245,120.535v-5.068l8.271,2.533L113.245,120.535z"/>
		<path fill="#231F20" d="M79.432,79.312c10.398,0,18.857-8.459,18.857-18.857c0-10.397-8.459-18.856-18.857-18.856
			c-10.396,0-18.856,8.459-18.856,18.856C60.576,70.854,69.035,79.312,79.432,79.312z M79.432,43.099
			c9.57,0,17.357,7.786,17.357,17.356c0,9.57-7.787,17.357-17.357,17.357s-17.356-7.787-17.356-17.357
			C62.076,50.885,69.861,43.099,79.432,43.099z"/>
	</g>
</g>
</svg>
