<?xml version="1.0" encoding="utf-8"?>
<!-- Generator: Adobe Illustrator 15.0.0, SVG Export Plug-In . SVG Version: 6.00 Build 0)  -->
<!DOCTYPE svg PUBLIC "-//W3C//DTD SVG 1.1//EN" "http://www.w3.org/Graphics/SVG/1.1/DTD/svg11.dtd">
<svg version="1.1" id="Layer_1" xmlns="http://www.w3.org/2000/svg" xmlns:xlink="http://www.w3.org/1999/xlink" x="0px" y="0px"
	 width="130px" height="130px" viewBox="0 0 130 130" enable-background="new 0 0 130 130" xml:space="preserve">
<g>
	<circle fill="#FFD05B" cx="85.655" cy="22.543" r="2.5"/>
	<circle fill="#E6E9EE" cx="26.307" cy="48.271" r="2.5"/>
	<circle fill="#E6E9EE" cx="122.892" cy="77.483" r="2.5"/>
	<circle fill="#FF7058" cx="94.675" cy="88.408" r="2.5"/>
	<circle fill="#84DBFF" cx="75.078" cy="122.878" r="2.5"/>
	<circle fill="#84DBFF" cx="7.979" cy="85.938" r="2.5"/>
	<path fill="#231F20" d="M63.125,10.188h-8.092c-0.414,0-0.75-0.336-0.75-0.75s0.336-0.75,0.75-0.75h8.092
		c0.414,0,0.75,0.336,0.75,0.75S63.54,10.188,63.125,10.188z"/>
	<path fill="#231F20" d="M55.81,7.242h-3.958c-0.414,0-0.75-0.336-0.75-0.75s0.336-0.75,0.75-0.75h3.958
		c0.414,0,0.75,0.336,0.75,0.75S56.224,7.242,55.81,7.242z"/>
	<path fill="#231F20" d="M51.362,10.188h-3.771c-0.414,0-0.75-0.336-0.75-0.75s0.336-0.75,0.75-0.75h3.771
		c0.414,0,0.75,0.336,0.75,0.75S51.776,10.188,51.362,10.188z"/>
	<path fill="#231F20" d="M59.468,7.242h-0.771c-0.414,0-0.75-0.336-0.75-0.75s0.336-0.75,0.75-0.75h0.771
		c0.414,0,0.75,0.336,0.75,0.75S59.882,7.242,59.468,7.242z"/>
	<path fill="#231F20" d="M59.189,92.559h-8.092c-0.414,0-0.75-0.335-0.75-0.75c0-0.413,0.336-0.75,0.75-0.75h8.092
		c0.414,0,0.75,0.337,0.75,0.75C59.939,92.224,59.604,92.559,59.189,92.559z"/>
	<path fill="#231F20" d="M51.874,89.613h-3.958c-0.414,0-0.75-0.335-0.75-0.75c0-0.413,0.336-0.75,0.75-0.75h3.958
		c0.414,0,0.75,0.337,0.75,0.75C52.624,89.278,52.288,89.613,51.874,89.613z"/>
	<path fill="#231F20" d="M47.426,92.559h-3.771c-0.414,0-0.75-0.335-0.75-0.75c0-0.413,0.336-0.75,0.75-0.75h3.771
		c0.414,0,0.75,0.337,0.75,0.75C48.176,92.224,47.84,92.559,47.426,92.559z"/>
	<path fill="#231F20" d="M55.532,89.613H54.76c-0.414,0-0.75-0.335-0.75-0.75c0-0.413,0.336-0.75,0.75-0.75h0.771
		c0.414,0,0.75,0.337,0.75,0.75C56.282,89.278,55.946,89.613,55.532,89.613z"/>
	<path fill="#231F20" d="M111.95,35.56l-0.02-1.5c0.32-0.004,0.64-0.018,0.955-0.039l0.105,1.496
		C112.646,35.54,112.3,35.555,111.95,35.56z M109.866,35.467c-0.347-0.036-0.691-0.082-1.033-0.137l0.24-1.481
		c0.312,0.051,0.629,0.094,0.947,0.126L109.866,35.467z M115.06,35.246l-0.279-1.474c0.313-0.06,0.625-0.129,0.932-0.205
		l0.367,1.453C115.743,35.105,115.403,35.181,115.06,35.246z M106.798,34.873c-0.336-0.097-0.668-0.202-0.996-0.317l0.498-1.415
		c0.3,0.105,0.604,0.202,0.91,0.29L106.798,34.873z M118.071,34.391l-0.537-1.4c0.299-0.114,0.594-0.237,0.883-0.368l0.619,1.366
		C118.72,34.132,118.397,34.267,118.071,34.391z M103.878,33.746c-0.312-0.153-0.619-0.315-0.921-0.486l0.738-1.305
		c0.276,0.156,0.559,0.305,0.845,0.445L103.878,33.746z M120.883,33.018l-0.774-1.284c0.273-0.165,0.542-0.338,0.805-0.518
		l0.848,1.237C121.474,32.649,121.181,32.838,120.883,33.018z M101.206,32.128c-0.281-0.206-0.557-0.42-0.824-0.642l0.957-1.155
		c0.246,0.203,0.496,0.398,0.754,0.587L101.206,32.128z M123.411,31.174l-0.987-1.13c0.239-0.21,0.474-0.426,0.7-0.649l1.053,1.069
		C123.928,30.708,123.673,30.944,123.411,31.174z M98.854,30.065c-0.24-0.251-0.473-0.51-0.698-0.774l1.143-0.972
		c0.206,0.243,0.42,0.479,0.641,0.711L98.854,30.065z M125.576,28.919l-1.169-0.94c0.199-0.248,0.393-0.502,0.577-0.761l1.221,0.87
		C126.003,28.371,125.794,28.648,125.576,28.919z M96.899,27.626c-0.193-0.29-0.377-0.585-0.553-0.887l1.295-0.756
		c0.16,0.274,0.33,0.545,0.506,0.81L96.899,27.626z M127.315,26.321L126,25.6c0.153-0.278,0.298-0.562,0.435-0.85l1.354,0.644
		C127.64,25.708,127.481,26.018,127.315,26.321z M95.399,24.878c-0.139-0.318-0.268-0.642-0.389-0.97l1.408-0.517
		c0.109,0.3,0.229,0.596,0.355,0.887L95.399,24.878z M128.572,23.458l-1.422-0.479c0.102-0.301,0.194-0.605,0.278-0.914l1.447,0.395
		C128.784,22.797,128.683,23.13,128.572,23.458z M94.407,21.909c-0.08-0.337-0.15-0.678-0.211-1.021l1.477-0.261
		c0.056,0.315,0.121,0.627,0.193,0.936L94.407,21.909z M129.305,20.418l-1.483-0.221c0.047-0.313,0.084-0.63,0.113-0.948
		l1.494,0.133C129.397,19.73,129.356,20.076,129.305,20.418z M93.954,18.815c-0.02-0.345-0.029-0.691-0.029-1.042h1.5
		c0,0.321,0.009,0.64,0.027,0.956L93.954,18.815z M127.995,17.337c-0.01-0.32-0.027-0.639-0.053-0.955l1.494-0.123
		c0.029,0.344,0.049,0.69,0.057,1.039L127.995,17.337z M95.458,16.73l-1.498-0.092c0.021-0.35,0.055-0.696,0.096-1.04l1.489,0.182
		C95.507,16.095,95.478,16.412,95.458,16.73z M127.669,14.491c-0.063-0.312-0.137-0.623-0.219-0.93l1.449-0.386
		c0.09,0.335,0.17,0.674,0.24,1.017L127.669,14.491z M95.888,13.901l-1.457-0.355c0.082-0.339,0.174-0.675,0.276-1.007l1.434,0.441
		C96.048,13.284,95.963,13.591,95.888,13.901z M126.851,11.749c-0.119-0.297-0.246-0.59-0.381-0.878l1.358-0.637
		c0.147,0.315,0.286,0.635,0.415,0.96L126.851,11.749z M96.808,11.192l-1.371-0.609c0.142-0.317,0.291-0.631,0.449-0.938
		l1.334,0.686C97.075,10.612,96.938,10.9,96.808,11.192z M125.558,9.191c-0.168-0.271-0.344-0.537-0.527-0.798l1.225-0.865
		c0.201,0.285,0.394,0.575,0.578,0.871L125.558,9.191z M98.194,8.687l-1.246-0.838c0.194-0.287,0.397-0.57,0.607-0.848l1.193,0.91
		C98.557,8.163,98.371,8.422,98.194,8.687z M123.839,6.899c-0.213-0.236-0.433-0.468-0.658-0.691l1.057-1.066
		c0.246,0.245,0.486,0.497,0.719,0.756L123.839,6.899z M99.993,6.462l-1.078-1.043c0.241-0.25,0.49-0.493,0.746-0.729l1.016,1.103
		C100.442,6.009,100.215,6.231,99.993,6.462z M121.747,4.943c-0.25-0.196-0.507-0.386-0.77-0.567l0.855-1.232
		c0.285,0.198,0.564,0.404,0.838,0.618L121.747,4.943z M102.155,4.582l-0.879-1.215c0.281-0.204,0.568-0.399,0.861-0.587
		l0.809,1.263C102.677,4.216,102.413,4.396,102.155,4.582z M119.348,3.382c-0.28-0.148-0.566-0.29-0.856-0.423l0.627-1.363
		c0.315,0.146,0.627,0.3,0.933,0.462L119.348,3.382z M104.613,3.109l-0.654-1.35c0.312-0.15,0.631-0.294,0.954-0.427l0.572,1.385
		C105.19,2.841,104.899,2.972,104.613,3.109z M116.712,2.268c-0.302-0.098-0.607-0.187-0.917-0.267l0.375-1.451
		c0.338,0.086,0.673,0.184,1.003,0.29L116.712,2.268z M107.293,2.093l-0.408-1.443c0.334-0.095,0.672-0.179,1.014-0.254l0.319,1.467
		C107.906,1.93,107.598,2.007,107.293,2.093z M113.921,1.634c-0.314-0.042-0.631-0.076-0.95-0.1l0.114-1.496
		c0.348,0.027,0.693,0.063,1.037,0.109L113.921,1.634z M110.104,1.563l-0.144-1.492c0.344-0.033,0.689-0.058,1.039-0.071
		l0.059,1.499C110.737,1.512,110.419,1.534,110.104,1.563z"/>
	<path fill="#E6E9EE" d="M111.712,28.953c-6.164,0-11.18-5.016-11.18-11.18s5.016-11.18,11.18-11.18
		c6.165,0,11.18,5.016,11.18,11.18S117.877,28.953,111.712,28.953z"/>
	<path fill="#E6E9EE" d="M17.788,28.953c-6.164,0-11.179-5.016-11.179-11.18s5.015-11.18,11.179-11.18
		c6.165,0,11.18,5.016,11.18,11.18S23.952,28.953,17.788,28.953z"/>
	<path fill="#E6E9EE" d="M111.712,122.878c-6.164,0-11.18-5.016-11.18-11.18c0-6.165,5.016-11.18,11.18-11.18
		c6.165,0,11.18,5.015,11.18,11.18C122.892,117.862,117.877,122.878,111.712,122.878z"/>
	<path fill="#E6E9EE" d="M17.788,122.878c-6.164,0-11.179-5.016-11.179-11.18c0-6.165,5.015-11.18,11.179-11.18
		c6.165,0,11.18,5.015,11.18,11.18C28.967,117.862,23.952,122.878,17.788,122.878z"/>
	<path fill="#231F20" d="M18.025,35.56l-0.02-1.5c0.321-0.004,0.64-0.018,0.956-0.039l0.104,1.496
		C18.722,35.54,18.375,35.555,18.025,35.56z M15.942,35.466c-0.347-0.036-0.692-0.082-1.034-0.137l0.241-1.48
		c0.312,0.051,0.628,0.092,0.946,0.125L15.942,35.466z M21.136,35.246l-0.28-1.474c0.314-0.06,0.625-0.129,0.933-0.206l0.366,1.454
		C21.818,35.105,21.479,35.181,21.136,35.246z M12.873,34.873c-0.336-0.097-0.667-0.202-0.995-0.317l0.498-1.415
		c0.299,0.105,0.603,0.202,0.909,0.29L12.873,34.873z M24.146,34.391l-0.536-1.4c0.298-0.114,0.593-0.237,0.883-0.368l0.618,1.366
		C24.794,34.132,24.473,34.267,24.146,34.391z M9.953,33.746c-0.312-0.153-0.619-0.315-0.92-0.486l0.738-1.305
		c0.277,0.156,0.559,0.305,0.844,0.445L9.953,33.746z M26.958,33.018l-0.774-1.285c0.274-0.165,0.542-0.337,0.804-0.517l0.848,1.236
		C27.549,32.649,27.257,32.837,26.958,33.018z M7.281,32.128C7,31.922,6.725,31.708,6.458,31.486l0.957-1.155
		c0.245,0.203,0.496,0.398,0.753,0.587L7.281,32.128z M29.486,31.173l-0.987-1.13c0.24-0.209,0.474-0.425,0.701-0.649l1.052,1.069
		C30.003,30.708,29.748,30.944,29.486,31.173z M4.93,30.065c-0.24-0.251-0.473-0.51-0.698-0.774l1.143-0.972
		c0.207,0.243,0.42,0.479,0.641,0.711L4.93,30.065z M31.652,28.918l-1.169-0.94c0.2-0.248,0.392-0.502,0.577-0.761l1.221,0.871
		C32.079,28.371,31.869,28.647,31.652,28.918z M2.976,27.626c-0.193-0.29-0.378-0.585-0.554-0.887l1.295-0.756
		c0.161,0.274,0.33,0.545,0.507,0.81L2.976,27.626z M33.391,26.321L32.075,25.6c0.153-0.278,0.297-0.562,0.434-0.85l1.355,0.644
		C33.715,25.708,33.557,26.018,33.391,26.321z M1.476,24.878c-0.139-0.318-0.269-0.642-0.389-0.97l1.408-0.517
		c0.11,0.3,0.229,0.596,0.356,0.887L1.476,24.878z M34.647,23.458l-1.422-0.479c0.102-0.301,0.194-0.605,0.278-0.914l1.447,0.395
		C34.859,22.796,34.757,23.13,34.647,23.458z M0.483,21.909c-0.08-0.337-0.151-0.678-0.212-1.021l1.478-0.261
		c0.055,0.315,0.12,0.627,0.193,0.936L0.483,21.909z M35.38,20.417l-1.483-0.221c0.046-0.312,0.084-0.629,0.113-0.948l1.494,0.134
		C35.472,19.729,35.431,20.076,35.38,20.417z M0.03,18.815C0.01,18.471,0,18.124,0,17.773h1.5c0,0.321,0.009,0.64,0.027,0.956
		L0.03,18.815z M34.07,17.337c-0.009-0.32-0.026-0.64-0.053-0.955l1.495-0.124c0.028,0.344,0.048,0.69,0.057,1.04L34.07,17.337z
		 M1.533,16.73l-1.497-0.092C0.058,16.29,0.09,15.943,0.131,15.6l1.489,0.181C1.582,16.095,1.553,16.412,1.533,16.73z
		 M33.745,14.491c-0.064-0.312-0.137-0.623-0.219-0.93l1.449-0.386c0.089,0.335,0.169,0.674,0.239,1.017L33.745,14.491z
		 M1.963,13.901l-1.457-0.355c0.083-0.339,0.175-0.675,0.277-1.007l1.434,0.441C2.123,13.284,2.039,13.591,1.963,13.901z
		 M32.925,11.749c-0.119-0.297-0.246-0.59-0.38-0.878l1.358-0.637c0.147,0.315,0.286,0.634,0.416,0.959L32.925,11.749z
		 M2.884,11.192l-1.371-0.608c0.141-0.317,0.291-0.631,0.449-0.938l1.334,0.685C3.15,10.613,3.013,10.9,2.884,11.192z M31.633,9.19
		c-0.168-0.271-0.344-0.537-0.528-0.797l1.226-0.865c0.201,0.285,0.393,0.574,0.577,0.871L31.633,9.19z M4.269,8.687L3.023,7.85
		C3.217,7.562,3.42,7.278,3.631,7.002l1.193,0.909C4.631,8.164,4.446,8.423,4.269,8.687z M29.914,6.899
		c-0.213-0.237-0.433-0.469-0.659-0.692l1.057-1.065c0.247,0.244,0.486,0.497,0.719,0.756L29.914,6.899z M6.069,6.462L4.99,5.42
		C5.231,5.17,5.48,4.927,5.736,4.69l1.017,1.103C6.518,6.01,6.29,6.232,6.069,6.462z M27.822,4.942
		c-0.251-0.196-0.507-0.385-0.77-0.566l0.854-1.233c0.286,0.198,0.565,0.404,0.839,0.618L27.822,4.942z M8.23,4.583l-0.88-1.215
		C7.631,3.164,7.919,2.969,8.212,2.78l0.81,1.263C8.752,4.216,8.489,4.396,8.23,4.583z M25.423,3.383
		c-0.281-0.149-0.566-0.29-0.856-0.424l0.627-1.362c0.315,0.145,0.626,0.299,0.933,0.461L25.423,3.383z M10.688,3.109l-0.654-1.35
		c0.312-0.15,0.631-0.294,0.954-0.427l0.573,1.385C11.265,2.841,10.974,2.972,10.688,3.109z M22.787,2.268
		c-0.302-0.098-0.607-0.187-0.917-0.267l0.375-1.451c0.338,0.086,0.673,0.184,1.003,0.29L22.787,2.268z M13.367,2.093l-0.406-1.443
		c0.333-0.095,0.671-0.179,1.012-0.254l0.32,1.467C13.981,1.93,13.672,2.007,13.367,2.093z M19.996,1.634
		c-0.314-0.043-0.631-0.076-0.95-0.1l0.114-1.496c0.348,0.026,0.694,0.062,1.037,0.109L19.996,1.634z M16.179,1.563l-0.144-1.492
		c0.343-0.033,0.69-0.058,1.04-0.071l0.059,1.499C16.813,1.512,16.495,1.534,16.179,1.563z"/>
	<path fill="#231F20" d="M111.95,129.484l-0.02-1.5c0.32-0.004,0.64-0.018,0.955-0.04l0.105,1.496
		C112.646,129.465,112.3,129.479,111.95,129.484z M109.866,129.391c-0.347-0.036-0.691-0.082-1.033-0.138l0.24-1.48
		c0.312,0.051,0.629,0.094,0.947,0.126L109.866,129.391z M115.06,129.171l-0.28-1.474c0.313-0.059,0.625-0.129,0.933-0.206
		l0.366,1.455C115.742,129.03,115.403,129.105,115.06,129.171z M106.797,128.797c-0.336-0.096-0.667-0.202-0.995-0.317l0.498-1.414
		c0.299,0.105,0.603,0.202,0.909,0.289L106.797,128.797z M118.07,128.315l-0.536-1.4c0.299-0.115,0.593-0.237,0.883-0.368
		l0.618,1.366C118.719,128.057,118.397,128.19,118.07,128.315z M103.877,127.671c-0.312-0.153-0.619-0.315-0.921-0.486l0.738-1.305
		c0.277,0.156,0.559,0.305,0.845,0.446L103.877,127.671z M120.883,126.942l-0.774-1.285c0.273-0.164,0.542-0.337,0.804-0.516
		l0.849,1.236C121.475,126.574,121.182,126.763,120.883,126.942z M101.205,126.052c-0.281-0.205-0.556-0.42-0.823-0.641l0.957-1.156
		c0.245,0.203,0.496,0.398,0.753,0.588L101.205,126.052z M123.41,125.099l-0.987-1.129c0.24-0.21,0.475-0.427,0.701-0.65
		l1.052,1.069C123.927,124.634,123.672,124.87,123.41,125.099z M98.854,123.99c-0.24-0.252-0.473-0.511-0.698-0.774l1.143-0.973
		c0.206,0.244,0.42,0.48,0.641,0.711L98.854,123.99z M125.575,122.845l-1.168-0.941c0.199-0.248,0.392-0.502,0.576-0.761
		l1.221,0.871C126.003,122.296,125.793,122.573,125.575,122.845z M96.9,121.55c-0.193-0.29-0.378-0.584-0.554-0.886l1.295-0.757
		c0.161,0.275,0.33,0.546,0.507,0.811L96.9,121.55z M127.315,120.246l-1.316-0.722c0.153-0.278,0.298-0.562,0.435-0.85l1.354,0.644
		C127.64,119.634,127.481,119.942,127.315,120.246z M95.399,118.803c-0.139-0.318-0.268-0.642-0.389-0.97l1.408-0.518
		c0.109,0.301,0.229,0.597,0.355,0.888L95.399,118.803z M128.571,117.384l-1.422-0.479c0.102-0.302,0.195-0.606,0.279-0.914
		l1.447,0.394C128.784,116.722,128.683,117.055,128.571,117.384z M94.407,115.833c-0.08-0.337-0.15-0.678-0.211-1.021l1.477-0.261
		c0.056,0.315,0.121,0.628,0.193,0.937L94.407,115.833z M129.304,114.343l-1.482-0.221c0.046-0.313,0.084-0.63,0.112-0.949
		l1.494,0.135C129.396,113.655,129.355,114.001,129.304,114.343z M93.954,112.739c-0.02-0.344-0.029-0.691-0.029-1.042h1.5
		c0,0.321,0.009,0.64,0.027,0.956L93.954,112.739z M127.995,111.263c-0.01-0.32-0.027-0.639-0.053-0.955l1.494-0.124
		c0.029,0.345,0.049,0.69,0.057,1.04L127.995,111.263z M95.457,110.655l-1.497-0.094c0.021-0.35,0.055-0.695,0.096-1.04l1.489,0.183
		C95.507,110.018,95.478,110.335,95.457,110.655z M127.669,108.417c-0.063-0.312-0.137-0.623-0.219-0.93l1.449-0.386
		c0.09,0.335,0.17,0.673,0.24,1.016L127.669,108.417z M95.888,107.826l-1.457-0.358c0.082-0.338,0.175-0.674,0.277-1.005
		l1.434,0.441C96.048,107.208,95.964,107.515,95.888,107.826z M126.851,105.675c-0.119-0.297-0.246-0.591-0.381-0.878l1.358-0.637
		c0.147,0.315,0.286,0.634,0.415,0.959L126.851,105.675z M96.81,105.116l-1.371-0.609c0.141-0.317,0.291-0.631,0.449-0.938
		l1.334,0.686C97.075,104.537,96.938,104.824,96.81,105.116z M125.559,103.116c-0.169-0.271-0.345-0.537-0.528-0.797l1.227-0.865
		c0.199,0.284,0.393,0.574,0.576,0.871L125.559,103.116z M98.194,102.608l-1.246-0.836c0.194-0.289,0.397-0.571,0.607-0.848
		l1.193,0.909C98.557,102.087,98.371,102.345,98.194,102.608z M123.839,100.824c-0.213-0.237-0.433-0.469-0.658-0.692l1.057-1.065
		c0.246,0.245,0.486,0.497,0.719,0.756L123.839,100.824z M99.995,100.385l-1.08-1.042c0.242-0.25,0.49-0.493,0.746-0.729
		l1.018,1.103C100.444,99.933,100.216,100.155,99.995,100.385z M121.748,98.868c-0.251-0.196-0.507-0.385-0.77-0.567l0.854-1.232
		c0.285,0.198,0.565,0.405,0.839,0.618L121.748,98.868z M102.157,98.506l-0.881-1.215c0.281-0.204,0.569-0.399,0.863-0.587
		l0.807,1.264C102.678,98.139,102.415,98.318,102.157,98.506z M119.349,97.308c-0.281-0.149-0.566-0.291-0.856-0.424l0.627-1.363
		c0.315,0.146,0.626,0.3,0.933,0.462L119.349,97.308z M104.614,97.034l-0.654-1.351c0.312-0.151,0.631-0.294,0.953-0.428
		l0.574,1.386C105.191,96.765,104.9,96.896,104.614,97.034z M116.712,96.192c-0.301-0.098-0.607-0.187-0.916-0.267l0.375-1.452
		c0.338,0.087,0.672,0.184,1.002,0.29L116.712,96.192z M107.294,96.017l-0.408-1.443c0.334-0.094,0.672-0.179,1.014-0.254
		l0.32,1.467C107.907,95.854,107.599,95.93,107.294,96.017z M113.921,95.559c-0.313-0.042-0.631-0.076-0.949-0.101l0.113-1.496
		c0.349,0.027,0.694,0.063,1.037,0.11L113.921,95.559z M110.104,95.488l-0.144-1.493c0.343-0.033,0.69-0.057,1.04-0.07l0.059,1.498
		C110.739,95.437,110.421,95.458,110.104,95.488z"/>
	<path fill="#231F20" d="M111.712,125.628c-7.68,0-13.93-6.25-13.93-13.931s6.25-13.929,13.93-13.929
		c7.682,0,13.93,6.248,13.93,13.929S119.394,125.628,111.712,125.628z M111.712,99.269c-6.854,0-12.43,5.576-12.43,12.429
		c0,6.854,5.576,12.431,12.43,12.431s12.43-5.577,12.43-12.431C124.142,104.845,118.565,99.269,111.712,99.269z"/>
	<path fill="#231F20" d="M18.025,129.484l-0.02-1.5c0.321-0.004,0.64-0.018,0.956-0.04l0.104,1.496
		C18.722,129.465,18.375,129.479,18.025,129.484z M15.942,129.392c-0.347-0.036-0.692-0.082-1.034-0.138l0.241-1.48
		c0.312,0.051,0.628,0.093,0.946,0.126L15.942,129.392z M21.135,129.171l-0.28-1.474c0.314-0.059,0.625-0.129,0.933-0.206
		l0.366,1.455C21.818,129.03,21.479,129.105,21.135,129.171z M12.873,128.798c-0.336-0.096-0.667-0.202-0.995-0.317l0.498-1.415
		c0.299,0.105,0.603,0.202,0.909,0.29L12.873,128.798z M24.146,128.315l-0.536-1.4c0.298-0.115,0.593-0.237,0.883-0.368l0.618,1.366
		C24.794,128.057,24.472,128.19,24.146,128.315z M9.952,127.671c-0.312-0.153-0.619-0.315-0.92-0.486l0.738-1.305
		c0.277,0.156,0.558,0.305,0.844,0.446L9.952,127.671z M26.958,126.942l-0.774-1.285c0.273-0.164,0.542-0.337,0.804-0.516
		l0.849,1.236C27.55,126.574,27.257,126.763,26.958,126.942z M7.28,126.052c-0.281-0.205-0.556-0.42-0.823-0.641l0.957-1.156
		c0.245,0.203,0.496,0.398,0.753,0.588L7.28,126.052z M29.486,125.099l-0.987-1.13c0.24-0.21,0.474-0.426,0.701-0.649l1.052,1.069
		C30.003,124.633,29.748,124.87,29.486,125.099z M4.93,123.99c-0.24-0.252-0.473-0.511-0.698-0.774l1.143-0.973
		c0.207,0.244,0.42,0.48,0.641,0.711L4.93,123.99z M31.651,122.844l-1.169-0.94c0.2-0.248,0.392-0.502,0.577-0.762l1.221,0.872
		C32.079,122.296,31.869,122.573,31.651,122.844z M2.976,121.55c-0.193-0.29-0.378-0.584-0.554-0.886l1.295-0.757
		c0.161,0.275,0.33,0.546,0.507,0.811L2.976,121.55z M33.391,120.246l-1.315-0.722c0.153-0.278,0.297-0.562,0.434-0.85l1.355,0.644
		C33.715,119.634,33.557,119.942,33.391,120.246z M1.476,118.803c-0.139-0.318-0.269-0.642-0.389-0.97l1.408-0.518
		c0.11,0.301,0.229,0.597,0.356,0.888L1.476,118.803z M34.647,117.384l-1.422-0.479c0.102-0.302,0.194-0.606,0.278-0.914
		l1.447,0.394C34.859,116.722,34.758,117.055,34.647,117.384z M0.483,115.833c-0.08-0.337-0.151-0.678-0.212-1.021l1.478-0.261
		c0.055,0.315,0.12,0.628,0.193,0.937L0.483,115.833z M35.38,114.343l-1.483-0.221c0.046-0.313,0.084-0.63,0.113-0.949l1.494,0.135
		C35.472,113.655,35.431,114.001,35.38,114.343z M0.03,112.739C0.01,112.396,0,112.048,0,111.697h1.5
		c0,0.321,0.009,0.64,0.027,0.956L0.03,112.739z M34.07,111.263c-0.009-0.321-0.026-0.64-0.053-0.955l1.495-0.125
		c0.028,0.345,0.048,0.691,0.057,1.041L34.07,111.263z M1.534,110.654l-1.497-0.092c0.021-0.35,0.054-0.696,0.095-1.04l1.489,0.182
		C1.583,110.018,1.553,110.335,1.534,110.654z M33.745,108.417c-0.064-0.313-0.137-0.624-0.219-0.93l1.449-0.387
		c0.089,0.336,0.169,0.674,0.239,1.016L33.745,108.417z M1.963,107.825l-1.457-0.355c0.083-0.339,0.175-0.675,0.277-1.007
		l1.434,0.442C2.123,107.208,2.039,107.515,1.963,107.825z M32.925,105.675c-0.119-0.298-0.246-0.591-0.38-0.879l1.358-0.637
		c0.147,0.315,0.286,0.635,0.416,0.959L32.925,105.675z M2.884,105.116l-1.371-0.608c0.141-0.317,0.291-0.631,0.449-0.939
		l1.334,0.687C3.15,104.537,3.013,104.825,2.884,105.116z M31.634,103.116c-0.168-0.271-0.345-0.537-0.528-0.799l1.227-0.862
		c0.2,0.283,0.392,0.573,0.576,0.869L31.634,103.116z M4.27,102.61l-1.245-0.837c0.194-0.288,0.397-0.571,0.607-0.848l1.193,0.909
		C4.632,102.088,4.447,102.347,4.27,102.61z M29.914,100.824c-0.213-0.237-0.433-0.469-0.659-0.692l1.057-1.065
		c0.247,0.245,0.486,0.497,0.719,0.756L29.914,100.824z M6.07,100.385l-1.079-1.042c0.242-0.25,0.49-0.492,0.746-0.729l1.017,1.103
		C6.519,99.933,6.291,100.155,6.07,100.385z M27.823,98.868c-0.251-0.196-0.507-0.386-0.77-0.567l0.854-1.232
		c0.286,0.198,0.565,0.404,0.839,0.618L27.823,98.868z M8.231,98.506l-0.88-1.214c0.281-0.204,0.569-0.4,0.862-0.588l0.808,1.264
		C8.752,98.14,8.489,98.319,8.231,98.506z M25.423,97.308c-0.281-0.15-0.566-0.291-0.856-0.424l0.627-1.363
		c0.315,0.146,0.626,0.299,0.933,0.461L25.423,97.308z M10.689,97.034l-0.654-1.351c0.312-0.151,0.631-0.294,0.954-0.428
		l0.573,1.386C11.266,96.765,10.975,96.896,10.689,97.034z M22.787,96.191c-0.302-0.098-0.607-0.187-0.917-0.267l0.375-1.451
		c0.338,0.086,0.673,0.184,1.003,0.29L22.787,96.191z M13.369,96.017l-0.408-1.443c0.334-0.094,0.672-0.179,1.014-0.254l0.319,1.467
		C13.982,95.854,13.673,95.93,13.369,96.017z M19.996,95.558c-0.314-0.042-0.631-0.076-0.95-0.1l0.114-1.496
		c0.348,0.026,0.694,0.063,1.037,0.109L19.996,95.558z M16.18,95.488l-0.144-1.493c0.343-0.033,0.69-0.057,1.04-0.07l0.059,1.498
		C16.814,95.437,16.496,95.458,16.18,95.488z"/>
	<path fill="#231F20" d="M17.788,125.628c-7.681,0-13.929-6.25-13.929-13.931s6.249-13.929,13.929-13.929s13.93,6.248,13.93,13.929
		S25.468,125.628,17.788,125.628z M17.788,99.269c-6.854,0-12.429,5.576-12.429,12.429c0,6.854,5.576,12.431,12.429,12.431
		s12.43-5.577,12.43-12.431C30.217,104.845,24.641,99.269,17.788,99.269z"/>
	<circle fill="#84DBFF" cx="48.973" cy="64.735" r="5.449"/>
	<path fill="#231F20" d="M48.973,70.935c-3.418,0-6.199-2.78-6.199-6.199c0-3.418,2.781-6.198,6.199-6.198s6.199,2.78,6.199,6.198
		C55.172,68.154,52.391,70.935,48.973,70.935z M48.973,60.037c-2.591,0-4.699,2.107-4.699,4.698c0,2.592,2.108,4.699,4.699,4.699
		s4.699-2.107,4.699-4.699C53.672,62.145,51.564,60.037,48.973,60.037z"/>
	<circle fill="#84DBFF" cx="64.75" cy="64.735" r="5.449"/>
	<path fill="#231F20" d="M64.75,70.935c-3.418,0-6.199-2.78-6.199-6.199c0-3.418,2.781-6.198,6.199-6.198
		c3.419,0,6.199,2.78,6.199,6.198C70.949,68.154,68.169,70.935,64.75,70.935z M64.75,60.037c-2.591,0-4.699,2.107-4.699,4.698
		c0,2.592,2.108,4.699,4.699,4.699c2.591,0,4.699-2.107,4.699-4.699C69.449,62.145,67.341,60.037,64.75,60.037z"/>
	<circle fill="#84DBFF" cx="80.527" cy="64.735" r="5.449"/>
	<path fill="#231F20" d="M80.527,70.935c-3.419,0-6.199-2.78-6.199-6.199c0-3.418,2.78-6.198,6.199-6.198s6.199,2.78,6.199,6.198
		C86.727,68.154,83.946,70.935,80.527,70.935z M80.527,60.037c-2.591,0-4.699,2.107-4.699,4.698c0,2.592,2.108,4.699,4.699,4.699
		s4.699-2.107,4.699-4.699C85.227,62.145,83.118,60.037,80.527,60.037z"/>
	<path fill="#FFFFFF" d="M76.469,31.926c0,14.5-11.719,23.663-11.719,23.663s-11.719-9.163-11.719-23.663
		c0-6.473,5.247-11.719,11.719-11.719C71.222,20.207,76.469,25.453,76.469,31.926z"/>
	<path fill="#231F20" d="M111.712,3.844c-7.68,0-13.93,6.249-13.93,13.93c0,7.428,5.85,13.498,13.18,13.892v25.229H95.425v-8.622
		c0-0.413-0.336-0.75-0.75-0.75H72.644c2.457-4.013,4.575-9.295,4.575-15.597c0-6.875-5.593-12.469-12.469-12.469
		c-6.875,0-12.469,5.594-12.469,12.469c0,6.302,2.118,11.584,4.576,15.597H34.825c-0.414,0-0.75,0.337-0.75,0.75v8.622H18.538
		V31.665c7.331-0.394,13.18-6.464,13.18-13.892c0-7.681-6.249-13.93-13.93-13.93S3.858,10.093,3.858,17.773
		c0,7.428,5.848,13.498,13.179,13.892v25.979c0,0.414,0.336,0.75,0.75,0.75h16.288v8.711H17.788c-0.414,0-0.75,0.336-0.75,0.75
		v26.69h1.5v-25.94h15.538V81.2c0,0.413,0.336,0.75,0.75,0.75h59.85c0.414,0,0.75-0.337,0.75-0.75V68.604h15.537v25.94h1.5v-26.69
		c0-0.414-0.336-0.75-0.75-0.75H95.425v-8.711h16.287c0.414,0,0.75-0.336,0.75-0.75V31.665c7.332-0.394,13.18-6.464,13.18-13.892
		C125.642,10.093,119.394,3.844,111.712,3.844z M5.358,17.773c0-6.854,5.576-12.43,12.429-12.43s12.43,5.576,12.43,12.43
		s-5.576,12.429-12.43,12.429S5.358,24.627,5.358,17.773z M53.781,31.925c0-6.048,4.92-10.969,10.969-10.969
		c6.048,0,10.969,4.921,10.969,10.969c0,12.322-8.829,20.809-10.97,22.684C62.609,52.737,53.781,44.267,53.781,31.925z
		 M93.925,80.45h-58.35V49.021h22.253c3.025,4.422,6.207,6.961,6.459,7.158c0.136,0.106,0.299,0.159,0.462,0.159
		s0.326-0.053,0.462-0.159c0.253-0.197,3.435-2.736,6.459-7.158h22.254V80.45z M111.712,30.202c-6.854,0-12.43-5.575-12.43-12.429
		s5.576-12.43,12.43-12.43s12.43,5.576,12.43,12.43S118.565,30.202,111.712,30.202z"/>
	<circle fill="#FF7058" cx="64.75" cy="32.448" r="6.622"/>
	<path fill="#231F20" d="M87.347,5.974c-0.191,0-0.383-0.074-0.529-0.221c-0.293-0.293-0.293-0.768,0-1.061l1.287-1.286
		c0.293-0.293,0.768-0.293,1.061,0s0.293,0.769,0,1.061l-1.287,1.286C87.731,5.899,87.539,5.974,87.347,5.974z"/>
	<path fill="#231F20" d="M83.319,10.002c-0.192,0-0.385-0.073-0.531-0.22c-0.293-0.293-0.293-0.768,0-1.061l1.287-1.287
		c0.293-0.293,0.768-0.293,1.061,0c0.293,0.292,0.293,0.768,0,1.061l-1.287,1.287C83.702,9.929,83.511,10.002,83.319,10.002z"/>
	<path fill="#231F20" d="M88.634,10.002c-0.191,0-0.383-0.073-0.529-0.22l-1.287-1.287c-0.293-0.293-0.293-0.768,0-1.061
		s0.768-0.293,1.061,0l1.287,1.287c0.293,0.293,0.293,0.768,0,1.061C89.019,9.929,88.826,10.002,88.634,10.002z"/>
	<path fill="#231F20" d="M84.605,5.974c-0.192,0-0.384-0.074-0.53-0.221l-1.287-1.286c-0.293-0.293-0.293-0.768,0-1.061
		s0.768-0.293,1.061,0l1.287,1.286c0.293,0.293,0.293,0.768,0,1.061C84.989,5.899,84.798,5.974,84.605,5.974z"/>
	<path fill="#231F20" d="M7.979,53.671c-0.192,0-0.384-0.073-0.53-0.22c-0.293-0.293-0.293-0.768,0-1.061l1.287-1.287
		c0.293-0.293,0.768-0.293,1.061,0s0.293,0.768,0,1.061l-1.287,1.287C8.363,53.598,8.171,53.671,7.979,53.671z"/>
	<path fill="#231F20" d="M3.951,57.699c-0.192,0-0.384-0.073-0.53-0.22c-0.293-0.293-0.293-0.768,0-1.061l1.287-1.287
		c0.293-0.293,0.768-0.293,1.061,0s0.293,0.768,0,1.061l-1.287,1.287C4.334,57.626,4.143,57.699,3.951,57.699z"/>
	<path fill="#231F20" d="M9.266,57.699c-0.192,0-0.384-0.073-0.53-0.22l-1.287-1.287c-0.293-0.292-0.293-0.768,0-1.061
		s0.768-0.293,1.061,0l1.287,1.287c0.293,0.293,0.293,0.768,0,1.061C9.65,57.626,9.458,57.699,9.266,57.699z"/>
	<path fill="#231F20" d="M5.237,53.671c-0.192,0-0.384-0.074-0.53-0.22L3.42,52.164c-0.293-0.293-0.293-0.768,0-1.061
		s0.768-0.293,1.061,0l1.287,1.286c0.293,0.293,0.293,0.768,0,1.062C5.621,53.597,5.429,53.671,5.237,53.671z"/>
	<path fill="#231F20" d="M81.897,95.787c-0.191,0-0.383-0.074-0.529-0.22c-0.293-0.293-0.293-0.768,0-1.062l1.287-1.286
		c0.293-0.294,0.768-0.294,1.061,0c0.293,0.293,0.293,0.768,0,1.061l-1.287,1.287C82.282,95.713,82.09,95.787,81.897,95.787z"/>
	<path fill="#231F20" d="M77.87,99.815c-0.192,0-0.385-0.074-0.531-0.221c-0.293-0.293-0.293-0.768,0-1.061l1.287-1.286
		c0.293-0.293,0.768-0.293,1.061,0s0.293,0.768,0,1.061l-1.287,1.286C78.253,99.741,78.062,99.815,77.87,99.815z"/>
	<path fill="#231F20" d="M83.185,99.815c-0.191,0-0.383-0.074-0.529-0.221l-1.287-1.286c-0.293-0.292-0.293-0.768,0-1.061
		s0.768-0.293,1.061,0l1.287,1.286c0.293,0.293,0.293,0.768,0,1.061C83.569,99.741,83.377,99.815,83.185,99.815z"/>
	<path fill="#231F20" d="M79.156,95.787c-0.192,0-0.384-0.074-0.53-0.22l-1.287-1.287c-0.293-0.293-0.293-0.769,0-1.061
		c0.293-0.294,0.768-0.294,1.061,0l1.287,1.286c0.293,0.294,0.293,0.769,0,1.062C79.54,95.713,79.349,95.787,79.156,95.787z"/>
	<path fill="#231F20" d="M58.128,116.468c-2.63,0-4.77-2.141-4.77-4.771s2.14-4.769,4.77-4.769s4.77,2.139,4.77,4.769
		S60.758,116.468,58.128,116.468z M58.128,108.429c-1.803,0-3.27,1.467-3.27,3.269c0,1.804,1.467,3.271,3.27,3.271
		s3.27-1.467,3.27-3.271C61.397,109.896,59.931,108.429,58.128,108.429z"/>
</g>
</svg>
