<?xml version="1.0" encoding="utf-8"?>
<!-- Generator: Adobe Illustrator 15.0.0, SVG Export Plug-In . SVG Version: 6.00 Build 0)  -->
<!DOCTYPE svg PUBLIC "-//W3C//DTD SVG 1.1//EN" "http://www.w3.org/Graphics/SVG/1.1/DTD/svg11.dtd">
<svg version="1.1" id="Layer_1" xmlns="http://www.w3.org/2000/svg" xmlns:xlink="http://www.w3.org/1999/xlink" x="0px" y="0px"
	 width="130px" height="130px" viewBox="0 0 130 130" enable-background="new 0 0 130 130" xml:space="preserve">
<g>
	<g>
		<path fill="#231F20" d="M27.939,30.216c-0.192,0-0.384-0.073-0.53-0.22c-0.293-0.293-0.293-0.768,0-1.061l1.287-1.287
			c0.293-0.293,0.768-0.293,1.061,0s0.293,0.768,0,1.061l-1.287,1.287C28.323,30.143,28.131,30.216,27.939,30.216z"/>
	</g>
	<g>
		<path fill="#231F20" d="M23.911,34.244c-0.192,0-0.384-0.073-0.53-0.22c-0.293-0.293-0.293-0.768,0-1.061l1.287-1.287
			c0.293-0.293,0.768-0.293,1.061,0s0.293,0.768,0,1.061l-1.287,1.287C24.295,34.171,24.103,34.244,23.911,34.244z"/>
	</g>
	<g>
		<path fill="#231F20" d="M29.227,34.244c-0.192,0-0.384-0.073-0.53-0.22l-1.287-1.287c-0.293-0.293-0.293-0.768,0-1.061
			s0.768-0.293,1.061,0l1.287,1.287c0.293,0.293,0.293,0.768,0,1.061C29.61,34.171,29.418,34.244,29.227,34.244z"/>
	</g>
	<g>
		<path fill="#231F20" d="M25.198,30.216c-0.192,0-0.384-0.073-0.53-0.22l-1.287-1.287c-0.293-0.293-0.293-0.768,0-1.061
			s0.768-0.293,1.061,0l1.287,1.287c0.293,0.293,0.293,0.768,0,1.061C25.582,30.143,25.39,30.216,25.198,30.216z"/>
	</g>
	<g>
		<path fill="#231F20" d="M9.915,7.098c-0.192,0-0.384-0.073-0.53-0.22c-0.293-0.293-0.293-0.768,0-1.061l1.287-1.287
			c0.293-0.293,0.768-0.293,1.061,0s0.293,0.768,0,1.061l-1.287,1.287C10.299,7.024,10.107,7.098,9.915,7.098z"/>
	</g>
	<g>
		<path fill="#231F20" d="M5.886,11.126c-0.192,0-0.384-0.073-0.531-0.22c-0.292-0.293-0.292-0.768,0-1.061L6.643,8.56
			c0.293-0.293,0.768-0.293,1.061,0c0.292,0.293,0.292,0.768,0,1.061l-1.287,1.286C6.27,11.053,6.078,11.126,5.886,11.126z"/>
	</g>
	<g>
		<path fill="#231F20" d="M11.202,11.126c-0.192,0-0.384-0.073-0.53-0.22L9.385,9.62c-0.293-0.293-0.293-0.768,0-1.061
			s0.768-0.293,1.061,0l1.287,1.286c0.293,0.293,0.293,0.768,0,1.061C11.585,11.053,11.394,11.126,11.202,11.126z"/>
	</g>
	<g>
		<path fill="#231F20" d="M7.173,7.098c-0.192,0-0.384-0.073-0.53-0.22L5.356,5.591c-0.293-0.293-0.293-0.768,0-1.061
			s0.768-0.293,1.061,0l1.287,1.287c0.293,0.293,0.293,0.768,0,1.061C7.557,7.024,7.365,7.098,7.173,7.098z"/>
	</g>
	<path fill="#FFFFFF" d="M122.428,128.75H51.214c-3.492,0-6.322-2.831-6.322-6.322V7.072c0-3.492,2.831-6.322,6.322-6.322h71.213
		c3.492,0,6.322,2.83,6.322,6.322v115.355C128.75,125.919,125.92,128.75,122.428,128.75z"/>
	<rect x="46.888" y="18.002" fill="#84DBFF" width="79.86" height="89.19"/>
	<path fill="#FFFFFF" d="M44.892,109.195v13.232c0,3.491,2.831,6.322,6.322,6.322h71.213c3.492,0,6.322-2.831,6.322-6.322v-13.232
		H44.892z"/>
	<path fill="#FFFFFF" d="M128.75,16.005V7.072c0-3.492-2.83-6.322-6.322-6.322H51.214c-3.492,0-6.322,2.83-6.322,6.322v8.933H128.75
		z"/>
	<circle fill="#FFFFFF" cx="86.821" cy="118.973" r="5.44"/>
	<path fill="#231F20" d="M86.82,125.162c-3.412,0-6.189-2.776-6.189-6.189s2.777-6.19,6.189-6.19c3.414,0,6.191,2.777,6.191,6.19
		S90.234,125.162,86.82,125.162z M86.82,114.282c-2.586,0-4.689,2.104-4.689,4.69s2.104,4.689,4.689,4.689s4.691-2.104,4.691-4.689
		S89.406,114.282,86.82,114.282z"/>
	<g>
		<line fill="#FFFFFF" x1="76.112" y1="8.377" x2="92.482" y2="8.377"/>
		<path fill="#231F20" d="M92.482,9.127h-16.37c-0.414,0-0.75-0.336-0.75-0.75s0.336-0.75,0.75-0.75h16.37
			c0.414,0,0.75,0.336,0.75,0.75S92.896,9.127,92.482,9.127z"/>
	</g>
	<g>
		<line fill="#FFFFFF" x1="95.859" y1="8.377" x2="97.529" y2="8.377"/>
		<path fill="#231F20" d="M97.529,9.127h-1.67c-0.414,0-0.75-0.336-0.75-0.75s0.336-0.75,0.75-0.75h1.67
			c0.414,0,0.75,0.336,0.75,0.75S97.943,9.127,97.529,9.127z"/>
	</g>
	<circle fill="#FFFFFF" cx="86.821" cy="64.75" r="23.036"/>
	<path fill="#FFD05B" d="M86.821,85.786c-11.6,0-21.037-9.437-21.037-21.036s9.438-21.037,21.037-21.037
		c11.601,0,21.036,9.438,21.036,21.037S98.422,85.786,86.821,85.786z"/>
	<path fill="#231F20" d="M86.929,92.93l-0.009-1.5c0.326-0.002,0.652-0.009,0.975-0.021l0.059,1.498
		C87.613,92.921,87.271,92.928,86.929,92.93z M84.876,92.863c-0.343-0.022-0.685-0.052-1.024-0.088l0.158-1.492
		c0.32,0.034,0.643,0.062,0.967,0.084L84.876,92.863z M90.002,92.752l-0.172-1.49c0.324-0.037,0.646-0.079,0.967-0.127l0.221,1.484
		C90.682,92.669,90.342,92.713,90.002,92.752z M81.82,92.487c-0.34-0.061-0.676-0.127-1.011-0.2l0.321-1.465
		c0.314,0.069,0.633,0.132,0.951,0.188L81.82,92.487z M93.039,92.242l-0.334-1.463c0.318-0.072,0.633-0.149,0.947-0.231l0.383,1.449
		C93.705,92.085,93.373,92.166,93.039,92.242z M78.822,91.777c-0.329-0.097-0.655-0.2-0.979-0.309l0.475-1.422
		c0.308,0.103,0.617,0.2,0.93,0.293L78.822,91.777z M96,91.401l-0.488-1.418c0.307-0.105,0.611-0.217,0.912-0.333l0.541,1.398
		C96.646,91.173,96.324,91.29,96,91.401z M75.918,90.743c-0.317-0.134-0.632-0.272-0.942-0.417l0.633-1.359
		c0.294,0.137,0.591,0.268,0.892,0.394L75.918,90.743z M98.852,90.238l-0.643-1.355c0.295-0.139,0.584-0.282,0.871-0.431
		l0.689,1.332C99.467,89.94,99.16,90.092,98.852,90.238z M73.146,89.395c-0.3-0.166-0.597-0.339-0.89-0.517l0.775-1.283
		c0.278,0.168,0.559,0.331,0.843,0.489L73.146,89.395z M101.553,88.775l-0.781-1.279c0.275-0.169,0.547-0.344,0.816-0.522
		l0.832,1.248C102.135,88.412,101.846,88.597,101.553,88.775z M70.537,87.751c-0.279-0.198-0.555-0.401-0.826-0.609l0.91-1.191
		c0.258,0.196,0.52,0.39,0.785,0.578L70.537,87.751z M104.086,87.023l-0.92-1.186c0.256-0.198,0.508-0.401,0.756-0.609l0.963,1.15
		C104.623,86.599,104.355,86.813,104.086,87.023z M68.125,85.834c-0.256-0.228-0.508-0.459-0.756-0.696l1.036-1.084
		c0.235,0.224,0.474,0.443,0.716,0.659L68.125,85.834z M106.41,85.008l-1.041-1.08c0.232-0.225,0.461-0.454,0.686-0.688l1.082,1.039
		C106.898,84.526,106.658,84.77,106.41,85.008z M65.936,83.669c-0.229-0.253-0.455-0.511-0.675-0.772l1.146-0.967
		c0.21,0.248,0.423,0.492,0.641,0.733L65.936,83.669z M108.504,82.748l-1.152-0.961c0.209-0.249,0.41-0.502,0.609-0.758l1.188,0.916
		C108.938,82.217,108.725,82.485,108.504,82.748z M63.996,81.278c-0.2-0.276-0.395-0.557-0.586-0.839l1.243-0.84
		c0.181,0.269,0.367,0.535,0.558,0.798L63.996,81.278z M110.342,80.274l-1.25-0.828c0.178-0.271,0.352-0.544,0.521-0.821
		l1.281,0.781C110.715,79.699,110.531,79.988,110.342,80.274z M62.327,78.692c-0.169-0.297-0.333-0.596-0.491-0.898l1.328-0.697
		c0.151,0.287,0.307,0.572,0.467,0.854L62.327,78.692z M111.9,77.615l-1.334-0.688c0.148-0.288,0.291-0.579,0.43-0.873l1.357,0.635
		C112.209,77.001,112.057,77.31,111.9,77.615z M60.951,75.941c-0.135-0.312-0.265-0.629-0.389-0.946l1.396-0.547
		c0.118,0.302,0.241,0.601,0.37,0.897L60.951,75.941z M113.156,74.799l-1.4-0.535c0.115-0.303,0.227-0.608,0.33-0.917l1.42,0.482
		C113.396,74.155,113.279,74.479,113.156,74.799z M59.885,73.055c-0.101-0.326-0.195-0.655-0.284-0.988l1.449-0.387
		c0.084,0.313,0.174,0.625,0.269,0.934L59.885,73.055z M114.096,71.86l-1.451-0.377c0.08-0.312,0.156-0.628,0.227-0.945l1.465,0.324
		C114.262,71.197,114.182,71.53,114.096,71.86z M59.142,70.066c-0.064-0.336-0.123-0.674-0.174-1.015l1.483-0.225
		c0.049,0.321,0.104,0.64,0.165,0.956L59.142,70.066z M114.707,68.844l-1.484-0.217c0.045-0.319,0.086-0.642,0.121-0.965
		l1.492,0.162C114.799,68.165,114.756,68.505,114.707,68.844z M58.731,67.015c-0.027-0.34-0.048-0.682-0.063-1.024l1.499-0.066
		c0.014,0.325,0.034,0.649,0.06,0.972L58.731,67.015z M114.982,65.777l-1.498-0.055c0.012-0.323,0.018-0.646,0.018-0.973h1.5
		C115.002,65.094,114.996,65.437,114.982,65.777z M113.498,64.348c-0.006-0.326-0.016-0.65-0.031-0.975l1.498-0.074
		c0.016,0.34,0.027,0.682,0.033,1.025L113.498,64.348z M60.152,63.979l-1.499-0.041c0.009-0.344,0.025-0.686,0.047-1.026
		l1.497,0.098C60.176,63.33,60.161,63.654,60.152,63.979z M113.299,61.438c-0.041-0.323-0.086-0.645-0.139-0.964l1.482-0.238
		c0.053,0.337,0.102,0.676,0.145,1.017L113.299,61.438z M60.392,61.072l-1.486-0.203c0.047-0.341,0.1-0.679,0.159-1.015l1.478,0.258
		C60.486,60.431,60.436,60.751,60.392,61.072z M112.781,58.568c-0.074-0.315-0.156-0.63-0.242-0.942l1.447-0.398
		c0.09,0.328,0.176,0.66,0.254,0.993L112.781,58.568z M60.948,58.212l-1.455-0.365c0.084-0.333,0.174-0.663,0.269-0.991l1.44,0.418
		C61.112,57.584,61.027,57.896,60.948,58.212z M111.953,55.772c-0.109-0.307-0.223-0.609-0.344-0.909l1.393-0.557
		c0.127,0.317,0.248,0.638,0.365,0.962L111.953,55.772z M61.814,55.429l-1.405-0.525c0.121-0.321,0.246-0.641,0.377-0.957
		l1.386,0.574C62.048,54.821,61.928,55.123,61.814,55.429z M110.824,53.088c-0.143-0.291-0.289-0.579-0.441-0.864l1.324-0.705
		c0.16,0.301,0.316,0.604,0.465,0.913L110.824,53.088z M62.984,52.753l-1.34-0.674c0.155-0.308,0.315-0.611,0.481-0.912l1.312,0.727
		C63.281,52.177,63.13,52.463,62.984,52.753z M109.408,50.542c-0.174-0.274-0.35-0.545-0.533-0.812l1.238-0.846
		c0.193,0.282,0.381,0.568,0.564,0.858L109.408,50.542z M64.439,50.222l-1.258-0.816c0.187-0.288,0.379-0.572,0.577-0.853
		l1.227,0.863C64.798,49.681,64.616,49.95,64.439,50.222z M107.723,48.166c-0.201-0.254-0.408-0.504-0.619-0.75l1.141-0.975
		c0.223,0.26,0.439,0.523,0.652,0.791L107.723,48.166z M66.16,47.868L65,46.919c0.216-0.265,0.438-0.525,0.664-0.783l1.128,0.99
		C66.576,47.37,66.366,47.617,66.16,47.868z M105.787,45.985c-0.229-0.23-0.461-0.457-0.697-0.68l1.029-1.092
		c0.248,0.234,0.492,0.473,0.734,0.715L105.787,45.985z M68.127,45.714l-1.051-1.07c0.244-0.24,0.493-0.476,0.746-0.706l1.011,1.107
		C68.594,45.264,68.359,45.487,68.127,45.714z M103.625,44.026c-0.252-0.205-0.508-0.404-0.766-0.6l0.902-1.197
		c0.275,0.207,0.545,0.418,0.811,0.635L103.625,44.026z M70.316,43.786l-0.93-1.178c0.269-0.212,0.541-0.418,0.818-0.621
		l0.885,1.211C70.828,43.39,70.57,43.586,70.316,43.786z M101.264,42.313c-0.271-0.177-0.549-0.348-0.828-0.514l0.768-1.289
		c0.295,0.176,0.586,0.356,0.873,0.541L101.264,42.313z M72.699,42.11l-0.794-1.273c0.289-0.18,0.581-0.355,0.878-0.526l0.75,1.299
		C73.252,41.772,72.974,41.938,72.699,42.11z M98.729,40.869c-0.291-0.146-0.584-0.285-0.881-0.42l0.623-1.365
		c0.312,0.143,0.621,0.29,0.928,0.443L98.729,40.869z M75.251,40.702l-0.653-1.35c0.307-0.149,0.618-0.292,0.932-0.429l0.603,1.373
		C75.835,40.428,75.541,40.562,75.251,40.702z M96.049,39.71c-0.305-0.112-0.611-0.219-0.922-0.32l0.469-1.426
		c0.326,0.107,0.65,0.22,0.973,0.338L96.049,39.71z M77.937,39.585l-0.498-1.414c0.321-0.113,0.647-0.222,0.974-0.324l0.447,1.432
		C78.549,39.375,78.242,39.478,77.937,39.585z M93.26,38.852c-0.314-0.077-0.629-0.149-0.947-0.216l0.307-1.469
		c0.336,0.07,0.67,0.146,1.002,0.229L93.26,38.852z M80.734,38.767l-0.34-1.461c0.332-0.077,0.666-0.148,1.004-0.215l0.289,1.473
		C81.367,38.626,81.049,38.693,80.734,38.767z M90.396,38.308c-0.32-0.043-0.643-0.079-0.967-0.111l0.145-1.492
		c0.344,0.032,0.684,0.072,1.021,0.117L90.396,38.308z M83.607,38.262l-0.182-1.488c0.34-0.042,0.681-0.077,1.023-0.104l0.123,1.494
		C84.249,38.19,83.927,38.224,83.607,38.262z M87.488,38.079c-0.222-0.006-0.444-0.009-0.668-0.009l-0.306,0.002l-0.014-1.5
		l0.319-0.002c0.236,0,0.472,0.003,0.707,0.009L87.488,38.079z"/>
	<path fill="#FFFFFF" d="M72.944,76.343H2.968c-1.225,0-2.218-0.993-2.218-2.218v-18.75c0-1.226,0.993-2.219,2.218-2.219h69.977
		V76.343z"/>
	<path fill="#FF7058" d="M19.573,53.156H2.968c-1.225,0-2.218,0.993-2.218,2.219v18.75c0,1.225,0.993,2.218,2.218,2.218h16.605
		V53.156z"/>
	<polygon fill="#FFFFFF" points="72.944,53.156 92.262,64.75 72.944,76.343 	"/>
	<polygon fill="#FFFFFF" points="83.916,59.741 83.916,69.758 92.262,64.75 	"/>
	<path fill="#231F20" d="M122.428,0H51.214c-0.487,0-0.964,0.05-1.424,0.144c-3.22,0.661-5.649,3.517-5.649,6.929l0,45.334H19.573
		H2.968C1.332,52.406,0,53.737,0,55.374v0.001v18.75c0,1.637,1.332,2.968,2.968,2.968h16.605h24.569l0,45.335
		c0,3.412,2.429,6.268,5.649,6.929c0.46,0.094,0.937,0.144,1.424,0.144h71.213c3.9,0,7.072-3.173,7.072-7.072V7.072
		C129.5,3.173,126.328,0,122.428,0z M18.823,75.593H2.968c-0.81,0-1.468-0.658-1.468-1.468v-18.75c0-0.81,0.658-1.469,1.468-1.469
		h15.855V75.593z M51.214,1.5h71.213C125.5,1.5,128,4,128,7.072v8.183H45.642V7.072c0-2.688,1.914-4.938,4.451-5.459
		C50.455,1.539,50.83,1.5,51.214,1.5z M20.323,53.906h51.872v6.348H20.323V53.906z M92.646,65.394
		c0.227-0.136,0.365-0.38,0.365-0.644s-0.139-0.508-0.365-0.643L73.33,52.514c-0.012-0.007-0.026-0.005-0.038-0.011
		c-0.097-0.052-0.202-0.086-0.319-0.091c-0.008,0-0.015-0.005-0.021-0.005c-0.003,0-0.004-0.001-0.007-0.001h-4.659
		c4-5.987,10.811-9.943,18.535-9.943c12.289,0,22.287,9.998,22.287,22.287S99.109,87.036,86.82,87.036
		c-7.713,0-14.477-3.964-18.461-9.943h4.585c0.127,0,0.241-0.04,0.347-0.096c0.012-0.007,0.027-0.004,0.039-0.011L92.646,65.394z
		 M73.694,75.018V54.481l9.472,5.685v9.168L73.694,75.018z M84.666,68.433v-7.366l6.137,3.684L84.666,68.433z M20.323,61.754h51.872
		v5.991H20.323V61.754z M20.323,75.593v-6.348h51.872v6.348H20.323z M128,122.428c0,3.072-2.5,5.572-5.572,5.572H51.214
		c-0.384,0-0.759-0.039-1.122-0.113c-2.537-0.521-4.451-2.771-4.451-5.459v-12.482H128V122.428z M128,108.445H45.642V77.093h20.917
		c4.172,6.847,11.673,11.443,20.262,11.443c13.117,0,23.787-10.671,23.787-23.786c0-13.116-10.67-23.787-23.787-23.787
		c-8.594,0-16.123,4.593-20.303,11.443H45.642V16.755H128V108.445z"/>
	<g>
		<path fill="#231F20" d="M111.229,27.242c-0.191,0-0.385-0.073-0.531-0.22c-0.293-0.293-0.293-0.768,0-1.061l1.287-1.287
			c0.293-0.293,0.768-0.293,1.061,0s0.293,0.768,0,1.061l-1.287,1.287C111.611,27.169,111.42,27.242,111.229,27.242z"/>
	</g>
	<g>
		<path fill="#231F20" d="M107.199,31.271c-0.191,0-0.383-0.073-0.529-0.22c-0.293-0.293-0.293-0.768,0-1.061l1.287-1.287
			c0.293-0.293,0.768-0.293,1.061,0s0.293,0.768,0,1.061l-1.287,1.287C107.584,31.197,107.393,31.271,107.199,31.271z"/>
	</g>
	<g>
		<path fill="#231F20" d="M112.516,31.271c-0.191,0-0.385-0.073-0.531-0.22l-1.285-1.287c-0.293-0.293-0.293-0.768,0-1.061
			s0.768-0.293,1.061,0l1.285,1.287c0.293,0.293,0.293,0.768,0,1.061C112.898,31.197,112.707,31.271,112.516,31.271z"/>
	</g>
	<g>
		<path fill="#231F20" d="M108.486,27.242c-0.191,0-0.383-0.073-0.529-0.22l-1.287-1.287c-0.293-0.293-0.293-0.768,0-1.061
			s0.768-0.293,1.061,0l1.287,1.287c0.293,0.293,0.293,0.768,0,1.061C108.871,27.169,108.68,27.242,108.486,27.242z"/>
	</g>
	<g>
		<path fill="#231F20" d="M94.844,62.917c-0.191,0-0.383-0.073-0.529-0.22c-0.293-0.293-0.293-0.768,0-1.061l2.426-2.426
			c0.293-0.293,0.768-0.293,1.061,0s0.293,0.768,0,1.061l-2.426,2.426C95.229,62.844,95.037,62.917,94.844,62.917z"/>
	</g>
	<g>
		<path fill="#231F20" d="M97.27,70.509c-0.191,0-0.383-0.073-0.529-0.22l-2.426-2.426c-0.293-0.293-0.293-0.768,0-1.061
			s0.768-0.293,1.061,0l2.426,2.426c0.293,0.293,0.293,0.768,0,1.061C97.654,70.436,97.461,70.509,97.27,70.509z"/>
	</g>
	<g>
		<path fill="#231F20" d="M25.282,115.569c-0.192,0-0.384-0.073-0.53-0.22c-0.293-0.293-0.293-0.768,0-1.061l1.287-1.287
			c0.293-0.293,0.768-0.293,1.061,0s0.293,0.768,0,1.061l-1.287,1.287C25.666,115.496,25.474,115.569,25.282,115.569z"/>
	</g>
	<g>
		<path fill="#231F20" d="M21.253,119.598c-0.192,0-0.384-0.073-0.531-0.22c-0.292-0.293-0.292-0.768,0-1.061l1.287-1.286
			c0.293-0.293,0.768-0.293,1.061,0c0.292,0.293,0.292,0.768,0,1.061l-1.287,1.286C21.637,119.524,21.445,119.598,21.253,119.598z"
			/>
	</g>
	<g>
		<path fill="#231F20" d="M26.568,119.598c-0.192,0-0.384-0.073-0.53-0.22l-1.287-1.286c-0.293-0.293-0.293-0.768,0-1.061
			s0.768-0.293,1.061,0l1.287,1.286c0.293,0.293,0.293,0.768,0,1.061C26.952,119.524,26.76,119.598,26.568,119.598z"/>
	</g>
	<g>
		<path fill="#231F20" d="M22.54,115.569c-0.192,0-0.384-0.073-0.53-0.22l-1.287-1.287c-0.293-0.293-0.293-0.768,0-1.061
			s0.768-0.293,1.061,0l1.287,1.287c0.293,0.293,0.293,0.768,0,1.061C22.924,115.496,22.732,115.569,22.54,115.569z"/>
	</g>
	<circle fill="#FFD05B" cx="30.39" cy="13.555" r="2.45"/>
	<circle fill="#CED5E0" cx="10.558" cy="91.71" r="2.45"/>
	<circle fill="#84DBFF" cx="37.19" cy="83.066" r="2.45"/>
</g>
</svg>
