<?xml version="1.0" encoding="utf-8"?>
<!-- Generator: Adobe Illustrator 15.0.0, SVG Export Plug-In . SVG Version: 6.00 Build 0)  -->
<!DOCTYPE svg PUBLIC "-//W3C//DTD SVG 1.1//EN" "http://www.w3.org/Graphics/SVG/1.1/DTD/svg11.dtd">
<svg version="1.1" id="Layer_1" xmlns="http://www.w3.org/2000/svg" xmlns:xlink="http://www.w3.org/1999/xlink" x="0px" y="0px"
	 width="130px" height="130px" viewBox="0 0 130 130" enable-background="new 0 0 130 130" xml:space="preserve">
<g>
	<g>
		<path fill="#E6E9EE" d="M72.688,54.994V39.449c0-1.204-0.977-2.18-2.18-2.18H2.928c-1.203,0-2.179,0.976-2.179,2.18v15.545H72.688
			z"/>
	</g>
	<g>
		<path fill="#54C0EB" d="M72.688,39.445v6.245H22.64l-1.532-4.212H8.486L6.953,45.69H0.75v-6.245c0-1.203,0.975-2.179,2.179-2.179
			h67.579C71.711,37.267,72.688,38.242,72.688,39.445z"/>
	</g>
	<g>
		<polygon fill="#CED5E0" points="38.323,45.689 22.638,45.689 24.17,41.479 36.791,41.479 		"/>
	</g>
	<g>
		<rect x="11.227" y="47.917" fill="#FFFFFF" width="49.103" height="5.073"/>
	</g>
	<g>
		<path fill="#324A5E" d="M12.875,49.23h0.294v1.01h0.007c0.047-0.084,0.12-0.158,0.211-0.208c0.087-0.05,0.19-0.083,0.301-0.083
			c0.217,0,0.564,0.133,0.564,0.691v0.963h-0.294v-0.93c0-0.261-0.098-0.48-0.375-0.48c-0.19,0-0.341,0.133-0.394,0.294
			c-0.017,0.04-0.021,0.083-0.021,0.14v0.977h-0.294V49.23z"/>
		<path fill="#324A5E" d="M15.074,49.521v0.466h0.421v0.223h-0.421v0.873c0,0.2,0.057,0.313,0.221,0.313
			c0.076,0,0.133-0.01,0.17-0.02l0.014,0.22c-0.057,0.023-0.147,0.041-0.261,0.041c-0.137,0-0.247-0.044-0.317-0.124
			c-0.084-0.087-0.114-0.23-0.114-0.421v-0.883h-0.25v-0.223h0.25v-0.389L15.074,49.521z"/>
		<path fill="#324A5E" d="M16.182,49.521v0.466h0.421v0.223h-0.421v0.873c0,0.2,0.057,0.313,0.221,0.313
			c0.077,0,0.134-0.01,0.171-0.02l0.013,0.22c-0.057,0.023-0.146,0.041-0.261,0.041c-0.137,0-0.247-0.044-0.317-0.124
			c-0.083-0.087-0.113-0.23-0.113-0.421v-0.883h-0.251v-0.223h0.251v-0.389L16.182,49.521z"/>
		<path fill="#324A5E" d="M16.936,50.514c0-0.207-0.007-0.375-0.014-0.527h0.265l0.013,0.276h0.007
			c0.12-0.196,0.311-0.313,0.575-0.313c0.391,0,0.685,0.33,0.685,0.821c0,0.582-0.354,0.869-0.735,0.869
			c-0.214,0-0.4-0.094-0.497-0.254h-0.007v0.879h-0.291V50.514z M17.227,50.945c0,0.043,0.007,0.083,0.013,0.119
			c0.054,0.205,0.231,0.345,0.441,0.345c0.311,0,0.491-0.254,0.491-0.625c0-0.324-0.17-0.602-0.481-0.602
			c-0.2,0-0.388,0.144-0.444,0.364c-0.01,0.037-0.02,0.08-0.02,0.12V50.945z"/>
		<path fill="#324A5E" d="M18.771,50.253c0-0.124,0.083-0.211,0.2-0.211s0.193,0.087,0.197,0.211c0,0.117-0.077,0.207-0.2,0.207
			C18.851,50.46,18.771,50.37,18.771,50.253z M18.771,51.433c0-0.124,0.083-0.21,0.2-0.21s0.193,0.086,0.197,0.21
			c0,0.116-0.077,0.207-0.2,0.207C18.851,51.64,18.771,51.549,18.771,51.433z"/>
		<path fill="#324A5E" d="M19.286,51.737l0.933-2.423h0.227l-0.936,2.423H19.286z"/>
		<path fill="#324A5E" d="M20.435,51.737l0.933-2.423h0.227l-0.936,2.423H20.435z"/>
		<path fill="#324A5E" d="M22.656,49.986l0.214,0.821c0.047,0.181,0.091,0.348,0.12,0.515h0.011c0.036-0.164,0.09-0.337,0.144-0.512
			l0.264-0.824h0.247l0.251,0.809c0.061,0.193,0.107,0.363,0.144,0.527h0.01c0.027-0.164,0.07-0.334,0.124-0.524l0.23-0.812h0.291
			l-0.521,1.617h-0.268l-0.247-0.772c-0.057-0.181-0.104-0.341-0.144-0.531h-0.007c-0.04,0.194-0.09,0.36-0.146,0.534l-0.261,0.77
			h-0.268l-0.488-1.617H22.656z"/>
		<path fill="#324A5E" d="M25.16,49.986l0.214,0.821c0.047,0.181,0.091,0.348,0.12,0.515h0.011c0.036-0.164,0.09-0.337,0.144-0.512
			l0.264-0.824h0.247l0.251,0.809c0.061,0.193,0.107,0.363,0.144,0.527h0.01c0.027-0.164,0.07-0.334,0.124-0.524l0.23-0.812h0.291
			l-0.521,1.617H26.42l-0.247-0.772c-0.057-0.181-0.104-0.341-0.144-0.531h-0.007c-0.04,0.194-0.09,0.36-0.146,0.534l-0.261,0.77
			h-0.268l-0.488-1.617H25.16z"/>
		<path fill="#324A5E" d="M27.665,49.986l0.214,0.821c0.047,0.181,0.09,0.348,0.12,0.515h0.01c0.037-0.164,0.091-0.337,0.144-0.512
			l0.265-0.824h0.247l0.251,0.809c0.06,0.193,0.106,0.363,0.144,0.527h0.01c0.026-0.164,0.07-0.334,0.124-0.524l0.23-0.812h0.29
			l-0.521,1.617h-0.268l-0.247-0.772c-0.058-0.181-0.104-0.341-0.145-0.531h-0.006c-0.04,0.194-0.091,0.36-0.147,0.534l-0.261,0.77
			h-0.268l-0.487-1.617H27.665z"/>
		<path fill="#324A5E" d="M29.811,51.429c0-0.123,0.084-0.21,0.2-0.21c0.117,0,0.197,0.087,0.197,0.21c0,0.12-0.076,0.211-0.2,0.211
			C29.891,51.64,29.811,51.549,29.811,51.429z"/>
	</g>
	<path fill="#FFFFFF" d="M60.82,92.763c-0.589-4.139-2.214-7.944-4.612-11.14l2.767-3.526l-4.131-4.131l-3.526,2.767
		c-3.195-2.397-7-4.023-11.14-4.612l-0.538-4.453h-5.842l-0.538,4.453c-4.139,0.589-7.944,2.215-11.14,4.611l-3.527-2.767
		l-4.131,4.131l2.767,3.527c-2.397,3.195-4.023,7-4.612,11.14l-4.453,0.538v5.842l4.453,0.538c0.589,4.14,2.214,7.944,4.612,11.14
		l-2.767,3.527l4.131,4.131l3.527-2.766c3.195,2.396,7,4.022,11.139,4.611l0.538,4.453h5.842l0.538-4.453
		c4.139-0.589,7.944-2.215,11.139-4.612l3.527,2.768l4.131-4.131l-2.767-3.527c2.397-3.195,4.023-7.001,4.612-11.141l4.453-0.538
		v-5.841L60.82,92.763z M36.718,113.081c-9.311,0-16.859-7.548-16.859-16.859c0-9.311,7.548-16.858,16.859-16.858
		s16.859,7.548,16.859,16.858C53.577,105.533,46.029,113.081,36.718,113.081z"/>
	<g>
		<path fill="#E6E9EE" d="M35.199,123.196l-0.516-4.267l-1.201-0.171c-3.768-0.536-7.369-2.027-10.413-4.311l-0.97-0.728
			l-3.379,2.65l-2.149-2.15l2.65-3.379l-0.728-0.97c-2.284-3.045-3.775-6.646-4.312-10.414l-0.171-1.201l-4.266-0.516v-3.04
			l4.266-0.515l0.171-1.201c0.536-3.769,2.027-7.369,4.312-10.414l0.728-0.971l-2.65-3.378l2.149-2.148l3.379,2.649l0.97-0.728
			c3.044-2.284,6.646-3.775,10.414-4.311l1.201-0.172l0.516-4.266h3.039l0.516,4.266l1.201,0.172
			c3.768,0.535,7.369,2.026,10.414,4.311l0.97,0.728l3.378-2.649l2.149,2.149l-2.65,3.378l0.728,0.971
			c2.284,3.044,3.775,6.646,4.311,10.413l0.171,1.2l4.266,0.517v3.039l-4.266,0.517l-0.171,1.201
			c-0.536,3.768-2.027,7.368-4.312,10.414l-0.728,0.97l2.65,3.379l-2.149,2.149l-3.379-2.65l-0.97,0.728
			c-3.044,2.283-6.646,3.774-10.413,4.311l-1.201,0.171l-0.516,4.267H35.199z M36.718,77.782c-4.926,0-9.556,1.918-13.039,5.401
			c-3.483,3.482-5.401,8.112-5.401,13.038c0,10.168,8.272,18.44,18.439,18.44s18.44-8.272,18.44-18.44
			C55.158,86.055,46.886,77.782,36.718,77.782z"/>
	</g>
	<g>
		<path fill="#231F20" d="M117.979,13.184c-0.192,0-0.384-0.073-0.53-0.22c-0.293-0.293-0.293-0.769,0-1.061l1.268-1.267
			c0.293-0.293,0.768-0.293,1.061,0c0.293,0.292,0.293,0.768,0,1.06l-1.268,1.268C118.363,13.11,118.172,13.184,117.979,13.184z"/>
	</g>
	<g>
		<path fill="#231F20" d="M114.012,17.151c-0.191,0-0.383-0.073-0.529-0.22c-0.293-0.293-0.293-0.768,0-1.061l1.268-1.268
			c0.293-0.293,0.768-0.293,1.061,0s0.293,0.768,0,1.061l-1.268,1.268C114.396,17.078,114.204,17.151,114.012,17.151z"/>
	</g>
	<g>
		<path fill="#231F20" d="M119.247,17.151c-0.192,0-0.384-0.073-0.53-0.22l-1.268-1.268c-0.293-0.293-0.293-0.769,0-1.061
			c0.293-0.293,0.768-0.293,1.061,0l1.268,1.268c0.293,0.293,0.293,0.768,0,1.061C119.631,17.078,119.439,17.151,119.247,17.151z"/>
	</g>
	<g>
		<path fill="#231F20" d="M115.279,13.184c-0.191,0-0.383-0.073-0.529-0.22l-1.268-1.268c-0.293-0.292-0.293-0.768,0-1.06
			c0.293-0.293,0.768-0.293,1.061,0l1.268,1.267c0.293,0.292,0.293,0.768,0,1.061C115.664,13.11,115.472,13.184,115.279,13.184z"/>
	</g>
	<g>
		<line fill="none" x1="123.215" y1="101.688" x2="121.947" y2="102.956"/>
	</g>
	<g>
		<line fill="none" x1="119.247" y1="105.656" x2="117.98" y2="106.923"/>
	</g>
	<g>
		<line fill="none" x1="123.215" y1="106.923" x2="121.947" y2="105.656"/>
	</g>
	<g>
		<line fill="none" x1="119.247" y1="102.955" x2="117.98" y2="101.688"/>
	</g>
	<g>
		<path fill="#231F20" d="M13.981,23.789c-0.192,0-0.384-0.073-0.53-0.219c-0.293-0.293-0.293-0.768,0-1.062l1.267-1.268
			c0.293-0.292,0.768-0.292,1.061,0c0.293,0.293,0.293,0.768,0,1.062l-1.267,1.268C14.365,23.716,14.173,23.789,13.981,23.789z"/>
	</g>
	<g>
		<path fill="#231F20" d="M10.014,27.758c-0.192,0-0.384-0.074-0.53-0.221c-0.293-0.293-0.293-0.768,0-1.061l1.268-1.268
			c0.293-0.293,0.768-0.293,1.061,0s0.293,0.768,0,1.061l-1.268,1.268C10.397,27.684,10.206,27.758,10.014,27.758z"/>
	</g>
	<g>
		<path fill="#231F20" d="M15.249,27.758c-0.192,0-0.384-0.074-0.53-0.221l-1.267-1.268c-0.293-0.293-0.293-0.768,0-1.061
			s0.768-0.293,1.061,0l1.267,1.268c0.293,0.293,0.293,0.769,0,1.061C15.632,27.684,15.44,27.758,15.249,27.758z"/>
	</g>
	<g>
		<path fill="#231F20" d="M11.281,23.789c-0.192,0-0.384-0.073-0.53-0.219l-1.268-1.268c-0.293-0.294-0.293-0.768,0-1.062
			c0.293-0.292,0.768-0.292,1.061,0l1.268,1.268c0.293,0.294,0.293,0.769,0,1.062C11.665,23.716,11.473,23.789,11.281,23.789z"/>
	</g>
	<path fill="#E6E9EE" d="M104.506,21.772V6.249c0-1.201-0.974-2.176-2.176-2.176H34.848c-1.202,0-2.176,0.975-2.176,2.176v15.523
		H104.506z"/>
	<path fill="#54C0EB" d="M104.506,6.246v6.236H54.531L53,8.276H40.397l-1.53,4.206h-6.194V6.246c0-1.202,0.974-2.176,2.176-2.176
		h67.482C103.532,4.07,104.506,5.044,104.506,6.246z"/>
	<circle fill="#FF7058" cx="98.68" cy="8.351" r="2.004"/>
	<circle fill="#FFD05B" cx="93.154" cy="8.351" r="2.004"/>
	<circle fill="#E6E9EE" cx="87.705" cy="8.351" r="2.004"/>
	<polygon fill="#CED5E0" points="70.191,12.481 54.529,12.481 56.059,8.277 68.662,8.277 	"/>
	<rect x="43.134" y="14.706" fill="#FFFFFF" width="49.033" height="5.065"/>
	<path fill="#324A5E" d="M44.78,16.014h0.294v1.01h0.007c0.047-0.084,0.12-0.158,0.211-0.208c0.087-0.05,0.19-0.083,0.301-0.083
		c0.217,0,0.564,0.133,0.564,0.691v0.963h-0.294v-0.93c0-0.261-0.098-0.481-0.375-0.481c-0.19,0-0.341,0.135-0.394,0.294
		c-0.017,0.041-0.021,0.084-0.021,0.141v0.977H44.78V16.014z"/>
	<path fill="#324A5E" d="M46.977,16.304v0.466h0.421v0.223h-0.421v0.873c0,0.2,0.057,0.313,0.221,0.313
		c0.076,0,0.133-0.01,0.17-0.02l0.014,0.22c-0.057,0.024-0.147,0.041-0.261,0.041c-0.137,0-0.247-0.044-0.317-0.124
		c-0.084-0.087-0.114-0.23-0.114-0.421v-0.883h-0.25V16.77h0.25v-0.389L46.977,16.304z"/>
	<path fill="#324A5E" d="M48.083,16.304v0.466h0.421v0.223h-0.421v0.873c0,0.2,0.057,0.313,0.221,0.313
		c0.076,0,0.133-0.01,0.17-0.02l0.014,0.22c-0.057,0.024-0.147,0.041-0.261,0.041c-0.137,0-0.247-0.044-0.317-0.124
		c-0.084-0.087-0.114-0.23-0.114-0.421v-0.883h-0.25V16.77h0.25v-0.389L48.083,16.304z"/>
	<path fill="#324A5E" d="M48.835,17.297c0-0.207-0.007-0.375-0.014-0.527h0.265l0.013,0.276h0.007
		c0.12-0.196,0.311-0.313,0.575-0.313c0.391,0,0.685,0.33,0.685,0.821c0,0.582-0.354,0.869-0.735,0.869
		c-0.214,0-0.4-0.094-0.497-0.254h-0.007v0.879h-0.291V17.297z M49.126,17.729c0,0.043,0.007,0.083,0.013,0.119
		c0.054,0.205,0.231,0.345,0.441,0.345c0.311,0,0.491-0.254,0.491-0.625c0-0.324-0.17-0.602-0.481-0.602
		c-0.2,0-0.388,0.145-0.444,0.364c-0.01,0.037-0.02,0.08-0.02,0.12V17.729z"/>
	<path fill="#324A5E" d="M50.667,17.036c0-0.124,0.084-0.211,0.2-0.211c0.117,0,0.194,0.087,0.197,0.211
		c0,0.117-0.076,0.207-0.2,0.207C50.747,17.243,50.667,17.153,50.667,17.036z M50.667,18.216c0-0.124,0.084-0.211,0.2-0.211
		c0.117,0,0.194,0.087,0.197,0.211c0,0.116-0.076,0.207-0.2,0.207C50.747,18.423,50.667,18.332,50.667,18.216z"/>
	<path fill="#324A5E" d="M51.182,18.52l0.933-2.422h0.228l-0.936,2.422H51.182z"/>
	<path fill="#324A5E" d="M52.328,18.52l0.933-2.422h0.228l-0.936,2.422H52.328z"/>
	<path fill="#324A5E" d="M54.548,16.77l0.214,0.821c0.047,0.181,0.091,0.348,0.12,0.515h0.011c0.036-0.164,0.09-0.338,0.144-0.512
		L55.3,16.77h0.247l0.251,0.809c0.061,0.193,0.107,0.363,0.144,0.527h0.01c0.027-0.164,0.07-0.334,0.124-0.524l0.23-0.812h0.291
		l-0.521,1.617h-0.268l-0.247-0.772c-0.057-0.181-0.104-0.341-0.144-0.531H55.41c-0.04,0.194-0.09,0.361-0.146,0.534l-0.261,0.77
		h-0.268l-0.488-1.617H54.548z"/>
	<path fill="#324A5E" d="M57.049,16.77l0.214,0.821c0.047,0.181,0.09,0.348,0.12,0.515h0.01c0.037-0.164,0.091-0.338,0.144-0.512
		l0.265-0.824h0.247l0.251,0.809c0.06,0.193,0.106,0.363,0.144,0.527h0.01c0.026-0.164,0.07-0.334,0.124-0.524l0.23-0.812h0.29
		l-0.521,1.617h-0.268l-0.247-0.772c-0.058-0.181-0.104-0.341-0.145-0.531h-0.006c-0.04,0.194-0.091,0.361-0.147,0.534l-0.261,0.77
		h-0.268l-0.487-1.617H57.049z"/>
	<path fill="#324A5E" d="M59.549,16.77l0.214,0.821c0.047,0.181,0.091,0.348,0.12,0.515h0.011c0.036-0.164,0.09-0.338,0.144-0.512
		l0.264-0.824h0.247l0.251,0.809c0.061,0.193,0.107,0.363,0.144,0.527h0.01c0.027-0.164,0.07-0.334,0.124-0.524l0.23-0.812h0.291
		l-0.521,1.617h-0.268l-0.247-0.772c-0.057-0.181-0.104-0.341-0.144-0.531h-0.007c-0.04,0.194-0.09,0.361-0.146,0.534l-0.261,0.77
		h-0.268l-0.488-1.617H59.549z"/>
	<path fill="#324A5E" d="M61.692,18.212c0-0.123,0.083-0.21,0.2-0.21s0.197,0.087,0.197,0.21c0,0.12-0.077,0.211-0.2,0.211
		C61.772,18.423,61.692,18.332,61.692,18.212z"/>
	<path fill="#FFFFFF" d="M104.503,75.707H50.857c3.339,0,6.057,2.699,6.057,6.058v4.56h47.589v11.867h-65.77
		c-3.349,0-6.057-2.708-6.057-6.057V33.723h71.827V75.707z"/>
	<path fill="#E6E9EE" d="M56.913,81.764v4.557h71.837v-4.557c0-3.347-2.714-6.06-6.061-6.06H50.853
		C54.198,75.704,56.913,78.41,56.913,81.764z"/>
	<path fill="#FFFFFF" d="M56.914,86.324v-4.559c0-3.348-2.714-6.062-6.062-6.062l0,0c-3.348,0-6.062,2.714-6.062,6.062v10.369
		c0,1.675-0.68,3.19-1.773,4.284c-1.093,1.093-2.61,1.772-4.284,1.772h71.836c3.345,0,6.058-2.712,6.058-6.057v-5.811H56.914z"/>
	<path fill="#231F20" d="M122.689,74.954h-17.434V6.25c0-1.613-1.312-2.926-2.926-2.926H34.848c-1.613,0-2.926,1.31-2.926,2.92
		v30.276H2.929C1.314,36.521,0,37.832,0,39.444V130h73.438V98.944l37.132-0.003c3.753,0,6.808-3.054,6.808-6.807V87.07H129.5v-5.307
		C129.5,78.009,126.444,74.954,122.689,74.954z M33.422,6.244c0-0.783,0.64-1.42,1.426-1.42h67.482c0.787,0,1.426,0.639,1.426,1.426
		v68.704H50.853l0,0h-0.001c-3.756,0-6.812,3.056-6.812,6.812v10.369c0,1.419-0.552,2.752-1.553,3.754
		c-1.002,1.002-2.335,1.553-3.754,1.553v0.003h-0.001c-2.928,0-5.31-2.381-5.31-5.308L33.422,6.244z M55.618,111.284l2.356,3.004
		l-3.19,3.19l-3.004-2.356c-0.267-0.209-0.641-0.213-0.913-0.01c-3.157,2.368-6.89,3.914-10.794,4.47
		c-0.336,0.047-0.598,0.314-0.639,0.652l-0.458,3.793h-4.512l-0.458-3.793c-0.041-0.338-0.303-0.605-0.639-0.652
		c-3.906-0.557-7.638-2.102-10.794-4.47c-0.272-0.203-0.646-0.199-0.913,0.01l-3.004,2.356l-3.19-3.191l2.356-3.004
		c0.209-0.267,0.213-0.642,0.01-0.913c-2.368-3.155-3.914-6.889-4.469-10.795c-0.048-0.337-0.315-0.599-0.653-0.64l-3.792-0.458
		v-4.512l3.792-0.458c0.337-0.042,0.605-0.304,0.653-0.64c0.556-3.906,2.101-7.64,4.469-10.796c0.204-0.271,0.2-0.646-0.01-0.913
		l-2.356-3.003l3.19-3.19l3.004,2.355c0.267,0.21,0.641,0.214,0.913,0.011c2.764-2.074,5.974-3.5,9.352-4.198v6.169
		c-7.381,2.096-12.812,8.875-12.812,16.919c0,9.71,7.899,17.61,17.609,17.61c8.781,0,16.055-6.47,17.37-14.888h6.616
		c-0.324,0.052-0.58,0.305-0.626,0.631c-0.555,3.905-2.101,7.639-4.469,10.796C55.405,110.643,55.409,111.017,55.618,111.284z
		 M36.718,112.332c-8.882,0-16.109-7.228-16.109-16.11c0-7.209,4.77-13.302,11.312-15.35v11.265c0,3.754,3.055,6.808,6.81,6.808
		h13.847C51.28,106.533,44.671,112.332,36.718,112.332z M71.938,128.5H1.5V39.444c0-0.785,0.641-1.424,1.429-1.424h28.994l0,33.575
		c-3.516,0.682-6.87,2.111-9.787,4.195l-3.08-2.416c-0.299-0.234-0.725-0.209-0.993,0.061l-4.131,4.131
		c-0.269,0.268-0.294,0.694-0.06,0.992l2.416,3.079c-2.215,3.101-3.701,6.69-4.325,10.448l-3.888,0.471
		c-0.377,0.045-0.66,0.364-0.66,0.744v5.842c0,0.379,0.283,0.699,0.66,0.744l3.888,0.471c0.624,3.758,2.11,7.348,4.325,10.447
		l-2.416,3.08c-0.234,0.298-0.208,0.726,0.06,0.993l4.131,4.131c0.269,0.27,0.695,0.294,0.993,0.061l3.08-2.416
		c3.1,2.215,6.689,3.701,10.447,4.325l0.47,3.888c0.045,0.378,0.365,0.661,0.745,0.661h5.842c0.379,0,0.699-0.283,0.745-0.661
		l0.47-3.888c3.757-0.624,7.347-2.11,10.447-4.325l3.08,2.416c0.298,0.232,0.724,0.208,0.993-0.061l4.131-4.13
		c0.269-0.268,0.294-0.695,0.06-0.993l-2.416-3.08c2.215-3.102,3.701-6.69,4.325-10.448l3.888-0.471
		c0.377-0.045,0.661-0.365,0.661-0.744v-0.198h5.914V128.5z M115.877,92.135c0,2.926-2.381,5.307-5.308,5.307H43
		c0.19-0.153,0.373-0.316,0.547-0.492c1.285-1.285,1.993-2.995,1.993-4.814V81.766c0-2.929,2.383-5.312,5.312-5.312
		c2.929,0,5.312,2.383,5.312,5.312v5.309h59.713V92.135z M128,85.57l-70.336,0.004v-3.809c0-2.147-1.001-4.062-2.559-5.312
		l0.007,0.001h67.577c2.928,0,5.311,2.382,5.311,5.31V85.57z"/>
	<path fill="#FFD05B" d="M54.944,88.294V81.76c0-2.261-1.832-4.093-4.092-4.093l0,0c-2.26,0-4.092,1.832-4.092,4.093v10.375
		c0,1.497-0.404,2.896-1.123,4.087h64.932c2.257,0,4.087-1.829,4.087-4.087v-3.841H54.944z"/>
	<circle fill="#84DBFF" cx="124.195" cy="32.227" r="2.618"/>
	<circle fill="#FFD05B" cx="17.866" cy="11.166" r="1.864"/>
	<circle fill="#E6E9EE" cx="112.148" cy="58.735" r="1.863"/>
	<circle fill="#FF7058" cx="75.147" cy="113.081" r="1.864"/>
	<g>
		<path fill="#231F20" d="M90.729,63.528v-1.5c1.625,0,2.946-1.321,2.946-2.946v-7.283c0-1.171,0.475-2.316,1.302-3.145l0.738-0.737
			l-0.738-0.737c-0.84-0.839-1.302-1.955-1.302-3.144v-7.284c0-1.625-1.321-2.945-2.946-2.945v-1.5c2.451,0,4.446,1.993,4.446,4.445
			v7.284c0,0.776,0.314,1.535,0.862,2.083l1.799,1.798l-1.799,1.798c-0.548,0.549-0.862,1.308-0.862,2.084v7.283
			C95.175,61.534,93.18,63.528,90.729,63.528z"/>
	</g>
	<g>
		<path fill="#231F20" d="M48.661,63.528c-2.452,0-4.446-1.994-4.446-4.446v-7.283c0-0.776-0.314-1.536-0.863-2.084l-1.798-1.798
			l1.798-1.798c0.548-0.548,0.863-1.307,0.863-2.083v-7.284c0-2.452,1.995-4.445,4.446-4.445v1.5c-1.625,0-2.946,1.32-2.946,2.945
			v7.284c0,1.188-0.462,2.305-1.302,3.144l-0.737,0.737l0.737,0.737c0.84,0.84,1.302,1.956,1.302,3.145v7.283
			c0,1.625,1.322,2.946,2.946,2.946V63.528z"/>
	</g>
	<g>
		<g>
			<rect x="51.146" y="38.302" fill="#231F20" width="3.287" height="1.5"/>
		</g>
		<g>
			<rect x="57.782" y="38.302" fill="#231F20" width="4.26" height="1.5"/>
		</g>
		<g>
			<rect x="65.399" y="38.302" fill="#231F20" width="22.845" height="1.5"/>
		</g>
	</g>
	<g>
		<g>
			<rect x="77.344" y="41.848" fill="#231F20" width="10.9" height="1.5"/>
		</g>
		<g>
			<rect x="69.734" y="41.848" fill="#231F20" width="4.26" height="1.5"/>
		</g>
		<g>
			<rect x="51.146" y="41.848" fill="#231F20" width="15.231" height="1.5"/>
		</g>
	</g>
	<g>
		<g>
			<rect x="51.146" y="45.395" fill="#231F20" width="5.413" height="1.5"/>
		</g>
		<g>
			<rect x="59.907" y="45.395" fill="#231F20" width="4.26" height="1.5"/>
		</g>
		<g>
			<rect x="67.525" y="45.395" fill="#231F20" width="20.719" height="1.5"/>
		</g>
	</g>
	<g>
		<g>
			<rect x="80.626" y="48.94" fill="#231F20" width="7.618" height="1.5"/>
		</g>
		<g>
			<rect x="73.018" y="48.94" fill="#231F20" width="4.26" height="1.5"/>
		</g>
		<g>
			<rect x="51.146" y="48.94" fill="#231F20" width="18.514" height="1.5"/>
		</g>
	</g>
	<g>
		<g>
			<rect x="51.146" y="52.487" fill="#231F20" width="7.618" height="1.5"/>
		</g>
		<g>
			<rect x="62.112" y="52.487" fill="#231F20" width="4.259" height="1.5"/>
		</g>
		<g>
			<rect x="69.73" y="52.487" fill="#231F20" width="18.514" height="1.5"/>
		</g>
	</g>
	<g>
		<g>
			<rect x="82.76" y="56.033" fill="#231F20" width="5.484" height="1.5"/>
		</g>
		<g>
			<rect x="75.152" y="56.033" fill="#231F20" width="4.26" height="1.5"/>
		</g>
		<g>
			<rect x="51.146" y="56.033" fill="#231F20" width="20.647" height="1.5"/>
		</g>
	</g>
	<g>
		<g>
			<line fill="#FFFFFF" x1="88.453" y1="113.734" x2="97.02" y2="113.734"/>
			<path fill="#231F20" d="M97.02,114.484h-8.566c-0.414,0-0.75-0.336-0.75-0.75s0.336-0.75,0.75-0.75h8.566
				c0.414,0,0.75,0.336,0.75,0.75S97.434,114.484,97.02,114.484z"/>
		</g>
		<g>
			<line fill="#FFFFFF" x1="96.197" y1="116.853" x2="100.389" y2="116.853"/>
			<path fill="#231F20" d="M100.389,117.604h-4.191c-0.414,0-0.75-0.337-0.75-0.75c0-0.414,0.336-0.75,0.75-0.75h4.191
				c0.414,0,0.75,0.336,0.75,0.75C101.139,117.267,100.803,117.604,100.389,117.604z"/>
		</g>
		<g>
			<line fill="#FFFFFF" x1="100.905" y1="113.734" x2="104.898" y2="113.734"/>
			<path fill="#231F20" d="M104.898,114.484h-3.993c-0.414,0-0.75-0.336-0.75-0.75s0.336-0.75,0.75-0.75h3.993
				c0.414,0,0.75,0.336,0.75,0.75S105.312,114.484,104.898,114.484z"/>
		</g>
		<g>
			<line fill="#FFFFFF" x1="92.325" y1="116.853" x2="93.142" y2="116.853"/>
			<path fill="#231F20" d="M93.142,117.604h-0.816c-0.414,0-0.75-0.337-0.75-0.75c0-0.414,0.336-0.75,0.75-0.75h0.816
				c0.414,0,0.75,0.336,0.75,0.75C93.892,117.267,93.556,117.604,93.142,117.604z"/>
		</g>
	</g>
</g>
<g>
	<path fill="#F15A24" d="M58.669,27.011h1.606v1.819h1.755v-1.819h1.612v5.197H62.03v-2.103h-1.755v2.103h-1.606V27.011z"/>
	<path fill="#F15A24" d="M64.345,27.011h4.881v1.283h-1.638v3.914h-1.605v-3.914h-1.638V27.011z"/>
	<path fill="#F15A24" d="M69.935,27.011h2.112l0.814,3.162l0.809-3.162h2.11v5.197h-1.314v-3.963l-1.015,3.963h-1.189l-1.012-3.963
		v3.963h-1.315V27.011z"/>
	<path fill="#F15A24" d="M76.805,27.011h1.606v3.917h2.506v1.28h-4.112V27.011z"/>
</g>
</svg>
