<?xml version="1.0" encoding="utf-8"?>
<!-- Generator: Adobe Illustrator 15.0.0, SVG Export Plug-In . SVG Version: 6.00 Build 0)  -->
<!DOCTYPE svg PUBLIC "-//W3C//DTD SVG 1.1//EN" "http://www.w3.org/Graphics/SVG/1.1/DTD/svg11.dtd">
<svg version="1.1" id="Layer_1" xmlns="http://www.w3.org/2000/svg" xmlns:xlink="http://www.w3.org/1999/xlink" x="0px" y="0px"
	 width="130px" height="130px" viewBox="0 0 130 130" enable-background="new 0 0 130 130" xml:space="preserve">
<g>
	<path fill="#FFFFFF" d="M10.312,114.123h57.243v7.906H10.312c-2.183,0-3.953-1.77-3.953-3.953l0,0
		C6.359,115.894,8.129,114.123,10.312,114.123z"/>
	<path fill="#FFFFFF" d="M10.312,114.123h3.353v7.906h-3.353c-2.183,0-3.953-1.77-3.953-3.953l0,0
		C6.359,115.894,8.129,114.123,10.312,114.123z"/>
	<polygon fill="#FFFFFF" points="67.555,122.029 77.179,118.076 67.555,114.123 	"/>
	<g>
		<path fill="#231F20" d="M124.553,8.136c-0.192,0-0.384-0.073-0.53-0.22c-0.293-0.292-0.293-0.768,0-1.061l1.311-1.311
			c0.293-0.293,0.768-0.293,1.061,0c0.293,0.292,0.293,0.768,0,1.061l-1.311,1.311C124.937,8.062,124.745,8.136,124.553,8.136z"/>
	</g>
	<g>
		<path fill="#231F20" d="M120.448,12.239c-0.192,0-0.384-0.073-0.53-0.22c-0.293-0.293-0.293-0.768,0-1.061l1.312-1.311
			c0.294-0.293,0.769-0.292,1.061,0c0.293,0.293,0.293,0.768,0,1.061l-1.312,1.311C120.832,12.166,120.64,12.239,120.448,12.239z"/>
	</g>
	<g>
		<path fill="#231F20" d="M125.863,12.239c-0.192,0-0.384-0.073-0.53-0.22l-1.311-1.311c-0.293-0.293-0.293-0.768,0-1.061
			s0.768-0.293,1.061,0l1.311,1.311c0.293,0.293,0.293,0.768,0,1.061C126.247,12.166,126.056,12.239,125.863,12.239z"/>
	</g>
	<g>
		<path fill="#231F20" d="M121.76,8.135c-0.191,0-0.384-0.073-0.53-0.219l-1.312-1.311c-0.293-0.293-0.293-0.768,0-1.061
			c0.292-0.292,0.767-0.293,1.061,0l1.312,1.311c0.293,0.293,0.293,0.768,0,1.061C122.144,8.062,121.952,8.135,121.76,8.135z"/>
	</g>
	<g>
		<path fill="#231F20" d="M54.164,101.517c-0.192,0-0.384-0.073-0.53-0.219c-0.293-0.293-0.293-0.769,0-1.061l1.312-1.312
			c0.293-0.294,0.768-0.292,1.061,0c0.293,0.293,0.293,0.768,0,1.061l-1.312,1.312C54.548,101.443,54.355,101.517,54.164,101.517z"
			/>
	</g>
	<g>
		<path fill="#231F20" d="M50.061,105.621c-0.192,0-0.384-0.073-0.53-0.22c-0.293-0.293-0.293-0.768,0-1.061l1.311-1.311
			c0.293-0.293,0.768-0.293,1.061,0c0.293,0.292,0.293,0.768,0,1.06l-1.311,1.312C50.444,105.548,50.253,105.621,50.061,105.621z"/>
	</g>
	<g>
		<path fill="#231F20" d="M55.476,105.621c-0.192,0-0.384-0.073-0.53-0.22l-1.312-1.312c-0.293-0.292-0.293-0.768,0-1.06
			c0.293-0.293,0.768-0.293,1.061,0l1.312,1.311c0.293,0.293,0.293,0.768,0,1.061C55.859,105.548,55.668,105.621,55.476,105.621z"/>
	</g>
	<g>
		<path fill="#231F20" d="M51.371,101.517c-0.192,0-0.384-0.073-0.53-0.219l-1.311-1.312c-0.293-0.293-0.293-0.768,0-1.061
			c0.294-0.294,0.769-0.292,1.061,0l1.311,1.312c0.293,0.293,0.293,0.768,0,1.061C51.755,101.443,51.562,101.517,51.371,101.517z"/>
	</g>
	<g>
		<path fill="#231F20" d="M11.556,10.188c-0.192,0-0.384-0.073-0.53-0.22c-0.293-0.293-0.293-0.768,0-1.061l1.312-1.311
			c0.293-0.293,0.768-0.292,1.061,0c0.293,0.293,0.293,0.768,0,1.061l-1.312,1.311C11.939,10.114,11.747,10.188,11.556,10.188z"/>
	</g>
	<g>
		<path fill="#231F20" d="M7.452,14.292c-0.192,0-0.384-0.073-0.53-0.22c-0.293-0.292-0.293-0.768,0-1.061L8.232,11.7
			c0.293-0.293,0.768-0.293,1.061,0c0.293,0.292,0.293,0.768,0,1.061l-1.311,1.311C7.836,14.218,7.645,14.292,7.452,14.292z"/>
	</g>
	<g>
		<path fill="#231F20" d="M12.867,14.292c-0.192,0-0.384-0.073-0.53-0.22l-1.312-1.311c-0.293-0.292-0.293-0.768,0-1.061
			s0.768-0.293,1.061,0l1.312,1.311c0.293,0.292,0.293,0.768,0,1.061C13.251,14.218,13.06,14.292,12.867,14.292z"/>
	</g>
	<g>
		<path fill="#231F20" d="M8.763,10.188c-0.192,0-0.384-0.073-0.53-0.22L6.922,8.657c-0.293-0.293-0.293-0.768,0-1.061
			c0.294-0.293,0.769-0.292,1.061,0l1.311,1.311c0.293,0.293,0.293,0.768,0,1.061C9.146,10.114,8.954,10.188,8.763,10.188z"/>
	</g>
	<polygon fill="#E6E9EE" points="25.646,22.877 11.696,22.877 25.646,79.426 	"/>
	<polygon fill="#E6E9EE" points="76.521,79.426 46.859,79.426 51.152,84.772 72.229,84.772 	"/>
	<g>
		<polygon fill="#E6E9EE" points="97.734,22.877 111.685,22.877 97.734,79.426 		"/>
	</g>
	<g>
		<path fill="#FFFFFF" d="M97.734,71.583V3.185c0-1.206-0.978-2.183-2.184-2.183H27.83c-1.206,0-2.184,0.972-2.184,2.178
			c0,3.498,0,49.353,0,68.403H97.734z"/>
	</g>
	<g>
		<path fill="#E6E9EE" d="M97.734,18.762V3.185c0-1.206-0.978-2.183-2.184-2.183H27.83c-1.206,0-2.183,0.978-2.183,2.183v15.578
			H97.734z"/>
	</g>
	<g>
		<path fill="#54C0EB" d="M97.734,3.181V9.44H47.583l-1.536-4.221H33.398L31.863,9.44h-6.217V3.181c0-1.206,0.978-2.183,2.184-2.183
			h67.721C96.757,0.998,97.734,1.976,97.734,3.181z"/>
	</g>
	<g>
		<polygon fill="#CED5E0" points="63.299,9.439 47.581,9.439 49.116,5.22 61.763,5.22 		"/>
	</g>
	<g>
		<rect x="36.146" y="11.671" fill="#FFFFFF" width="49.206" height="5.084"/>
	</g>
	<g>
		<path fill="#324A5E" d="M37.799,12.98h0.295v1.014H38.1c0.047-0.084,0.121-0.158,0.213-0.208c0.086-0.05,0.191-0.084,0.301-0.084
			c0.219,0,0.568,0.134,0.568,0.695v0.967h-0.295v-0.933c0-0.262-0.098-0.483-0.377-0.483c-0.191,0-0.342,0.134-0.396,0.295
			c-0.016,0.04-0.02,0.084-0.02,0.141v0.98h-0.295V12.98z"/>
		<path fill="#324A5E" d="M40.002,13.272v0.467h0.424v0.225h-0.424v0.876c0,0.202,0.059,0.316,0.223,0.316
			c0.076,0,0.135-0.01,0.172-0.02l0.012,0.221c-0.057,0.023-0.146,0.041-0.262,0.041c-0.137,0-0.248-0.044-0.318-0.125
			c-0.084-0.087-0.113-0.231-0.113-0.423v-0.886h-0.252v-0.225h0.252v-0.39L40.002,13.272z"/>
		<path fill="#324A5E" d="M41.113,13.272v0.467h0.422v0.225h-0.422v0.876c0,0.202,0.057,0.316,0.221,0.316
			c0.078,0,0.135-0.01,0.172-0.02l0.014,0.221c-0.057,0.023-0.148,0.041-0.262,0.041c-0.139,0-0.248-0.044-0.318-0.125
			c-0.084-0.087-0.115-0.231-0.115-0.423v-0.886h-0.252v-0.225h0.252v-0.39L41.113,13.272z"/>
		<path fill="#324A5E" d="M41.867,14.27c0-0.208-0.006-0.376-0.014-0.53h0.266l0.014,0.278h0.006
			c0.121-0.198,0.312-0.315,0.578-0.315c0.393,0,0.688,0.332,0.688,0.826c0,0.584-0.355,0.873-0.738,0.873
			c-0.215,0-0.402-0.094-0.5-0.255H42.16v0.883h-0.293V14.27z M42.16,14.703c0,0.043,0.006,0.083,0.014,0.121
			c0.053,0.205,0.23,0.346,0.443,0.346c0.311,0,0.492-0.255,0.492-0.627c0-0.326-0.17-0.604-0.482-0.604
			c-0.201,0-0.391,0.145-0.447,0.366c-0.01,0.037-0.02,0.081-0.02,0.121V14.703z"/>
		<path fill="#324A5E" d="M43.707,14.008c0-0.125,0.084-0.212,0.201-0.212s0.193,0.087,0.197,0.212c0,0.117-0.076,0.208-0.201,0.208
			C43.787,14.216,43.707,14.125,43.707,14.008z M43.707,15.192c0-0.124,0.084-0.211,0.201-0.211s0.193,0.087,0.197,0.211
			c0,0.118-0.076,0.208-0.201,0.208C43.787,15.401,43.707,15.31,43.707,15.192z"/>
		<path fill="#324A5E" d="M44.223,15.498l0.938-2.434h0.227l-0.939,2.434H44.223z"/>
		<path fill="#324A5E" d="M45.373,15.498l0.938-2.434h0.227l-0.939,2.434H45.373z"/>
		<path fill="#324A5E" d="M47.6,13.739l0.215,0.826c0.047,0.181,0.092,0.349,0.121,0.517h0.01c0.037-0.165,0.092-0.339,0.145-0.514
			l0.266-0.829h0.248l0.252,0.812c0.061,0.195,0.107,0.366,0.145,0.531h0.01c0.027-0.165,0.07-0.336,0.125-0.527l0.23-0.815h0.293
			l-0.523,1.625h-0.27l-0.248-0.775c-0.057-0.181-0.104-0.342-0.145-0.534h-0.006c-0.041,0.194-0.092,0.362-0.148,0.537
			l-0.262,0.772h-0.268l-0.49-1.625H47.6z"/>
		<path fill="#324A5E" d="M50.109,13.739l0.215,0.826c0.047,0.181,0.092,0.349,0.121,0.517h0.01
			c0.037-0.165,0.092-0.339,0.145-0.514l0.266-0.829h0.248l0.252,0.812c0.061,0.195,0.107,0.366,0.145,0.531h0.01
			c0.027-0.165,0.07-0.336,0.125-0.527l0.23-0.815h0.293l-0.523,1.625h-0.27l-0.248-0.775c-0.057-0.181-0.104-0.342-0.145-0.534
			h-0.006c-0.041,0.194-0.092,0.362-0.148,0.537l-0.262,0.772h-0.268l-0.49-1.625H50.109z"/>
		<path fill="#324A5E" d="M52.619,13.739l0.215,0.826c0.047,0.181,0.09,0.349,0.121,0.517h0.01c0.037-0.165,0.09-0.339,0.145-0.514
			l0.266-0.829h0.248l0.252,0.812c0.061,0.195,0.107,0.366,0.145,0.531h0.01c0.027-0.165,0.07-0.336,0.123-0.527l0.232-0.815h0.291
			l-0.523,1.625h-0.268l-0.248-0.775c-0.059-0.181-0.105-0.342-0.145-0.534h-0.008c-0.039,0.194-0.09,0.362-0.146,0.537
			l-0.262,0.772h-0.27l-0.49-1.625H52.619z"/>
		<path fill="#324A5E" d="M54.77,15.189c0-0.125,0.084-0.212,0.201-0.212s0.199,0.087,0.199,0.212c0,0.121-0.078,0.211-0.201,0.211
			C54.85,15.401,54.77,15.31,54.77,15.189z"/>
	</g>
	<g>
		<rect x="31.172" y="22.773" fill="#FFD05B" width="61.037" height="21.684"/>
	</g>
	<g>
		<rect x="33.478" y="49.706" fill="#231F20" width="24.268" height="1.5"/>
	</g>
	<g>
		<rect x="65.636" y="49.706" fill="#231F20" width="24.268" height="1.5"/>
	</g>
	<g>
		<rect x="33.478" y="54.846" fill="#231F20" width="24.268" height="1.5"/>
	</g>
	<g>
		<rect x="65.636" y="54.846" fill="#231F20" width="24.268" height="1.5"/>
	</g>
	<g>
		<rect x="33.478" y="59.985" fill="#231F20" width="24.268" height="1.5"/>
	</g>
	<g>
		<rect x="65.636" y="59.985" fill="#231F20" width="24.268" height="1.5"/>
	</g>
	<g>
		<rect x="33.478" y="65.125" fill="#231F20" width="24.268" height="1.5"/>
	</g>
	<g>
		<rect x="65.636" y="65.125" fill="#231F20" width="24.268" height="1.5"/>
	</g>
	<g>
		<rect x="33.478" y="70.265" fill="#231F20" width="16.583" height="1.5"/>
	</g>
	<g>
		<rect x="65.636" y="70.265" fill="#231F20" width="16.583" height="1.5"/>
	</g>
	<path fill="#FFFFFF" d="M91.132,128.998h30.94c2.659,0,4.815-2.156,4.815-4.815V74.657c0-2.66-2.156-4.816-4.815-4.816h-30.94
		c-2.659,0-4.815,2.156-4.815,4.816v49.525C86.316,126.842,88.473,128.998,91.132,128.998z"/>
	<g>
		<path fill="#231F20" d="M77.464,117.383l-9.624-3.954c-0.008-0.003-0.018,0-0.025-0.003c-0.082-0.03-0.168-0.053-0.26-0.053
			H10.312c-2.594,0-4.703,2.11-4.703,4.704c0,2.593,2.109,4.703,4.703,4.703h57.243c0.097,0,0.193-0.02,0.285-0.057l9.624-3.953
			c0.281-0.115,0.465-0.39,0.465-0.693C77.929,117.772,77.745,117.499,77.464,117.383z M12.915,121.28h-2.604
			c-1.767,0-3.203-1.438-3.203-3.203c0-1.767,1.437-3.203,3.203-3.203h2.604V121.28z M66.805,121.28h-52.39v-2.453h52.39V121.28z
			 M66.805,117.327h-52.39v-2.454h52.39V117.327z M68.305,120.911v-5.669l6.9,2.835L68.305,120.911z"/>
		<path fill="#231F20" d="M122.072,69.091h-8.101v-44.24c0-1.502-1.222-2.724-2.724-2.724H98.484V3.185
			c0-1.618-1.316-2.934-2.934-2.934H27.83c-1.617,0-2.934,1.314-2.934,2.929v18.947H12.133c-1.502,0-2.724,1.222-2.724,2.724v53.825
			H3.111c-0.414,0-0.75,0.336-0.75,0.75v3.735c0,4.249,3.457,7.707,7.707,7.707h75.498v33.313c0,3.069,2.497,5.566,5.565,5.566
			h30.94c3.068,0,5.565-2.497,5.565-5.566V74.657C127.638,71.588,125.141,69.091,122.072,69.091z M87.066,117.513V78.018h39.071
			v39.495H87.066z M98.484,23.627h12.764c0.675,0,1.224,0.549,1.224,1.224v44.24H98.484V23.627z M122.072,70.591
			c2.241,0,4.065,1.824,4.065,4.066v1.86H87.066v-1.86c0-2.242,1.824-4.066,4.065-4.066H122.072z M26.396,3.18
			c0-0.788,0.644-1.429,1.434-1.429h67.721c0.79,0,1.434,0.643,1.434,1.434v65.906h-5.853c-3.068,0-5.565,2.497-5.565,5.566v4.019
			h-59.17V3.18z M10.909,24.851c0-0.675,0.549-1.224,1.224-1.224h12.764v55.049H10.909V24.851z M10.068,89.368
			c-3.423,0-6.207-2.784-6.207-6.207v-2.985h81.705v9.192H10.068z M122.072,128.248h-30.94c-2.241,0-4.065-1.824-4.065-4.066v-5.169
			h39.071v5.169C126.138,126.424,124.313,128.248,122.072,128.248z"/>
	</g>
	<g>
		<line fill="#FFFFFF" x1="100.12" y1="73.83" x2="113.084" y2="73.83"/>
		<path fill="#231F20" d="M113.084,74.58H100.12c-0.414,0-0.75-0.336-0.75-0.75s0.336-0.75,0.75-0.75h12.964
			c0.414,0,0.75,0.336,0.75,0.75S113.498,74.58,113.084,74.58z"/>
	</g>
	<circle fill="#FFFFFF" cx="106.602" cy="123.392" r="2.66"/>
	<path fill="#231F20" d="M106.603,126.801c-1.88,0-3.41-1.529-3.41-3.409s1.53-3.41,3.41-3.41s3.409,1.53,3.409,3.41
		S108.482,126.801,106.603,126.801z M106.603,121.481c-1.054,0-1.91,0.857-1.91,1.91s0.856,1.909,1.91,1.909
		c1.053,0,1.909-0.856,1.909-1.909S107.655,121.481,106.603,121.481z"/>
	<rect x="90.049" y="80.823" fill="#84DBFF" width="33.107" height="12.54"/>
	<line fill="#FFFFFF" x1="90.049" y1="96.905" x2="123.156" y2="96.905"/>
	<rect x="90.049" y="96.155" fill="#231F20" width="33.107" height="1.5"/>
	<line fill="#FFFFFF" x1="90.049" y1="101.493" x2="123.156" y2="101.493"/>
	<rect x="90.049" y="100.743" fill="#231F20" width="33.107" height="1.5"/>
	<line fill="#FFFFFF" x1="90.049" y1="106.082" x2="123.156" y2="106.082"/>
	<rect x="90.049" y="105.332" fill="#231F20" width="33.107" height="1.5"/>
	<line fill="#FFFFFF" x1="90.049" y1="110.671" x2="113.222" y2="110.671"/>
	<rect x="90.049" y="109.921" fill="#231F20" width="23.173" height="1.5"/>
</g>
</svg>
