<?xml version="1.0" encoding="utf-8"?>
<!-- Generator: Adobe Illustrator 15.0.0, SVG Export Plug-In . SVG Version: 6.00 Build 0)  -->
<!DOCTYPE svg PUBLIC "-//W3C//DTD SVG 1.1//EN" "http://www.w3.org/Graphics/SVG/1.1/DTD/svg11.dtd">
<svg version="1.1" id="Layer_1" xmlns="http://www.w3.org/2000/svg" xmlns:xlink="http://www.w3.org/1999/xlink" x="0px" y="0px"
	 width="130px" height="130px" viewBox="0 0 130 130" enable-background="new 0 0 130 130" xml:space="preserve">
<g>
	<path fill="#231F20" d="M120.923,2.787c-0.192,0-0.385-0.073-0.531-0.22c-0.293-0.293-0.293-0.768,0-1.061l1.287-1.287
		c0.293-0.293,0.768-0.293,1.061,0s0.293,0.768,0,1.061l-1.287,1.287C121.306,2.714,121.114,2.787,120.923,2.787z"/>
</g>
<g>
	<path fill="#231F20" d="M116.894,6.815c-0.191,0-0.383-0.073-0.529-0.22c-0.293-0.293-0.293-0.768,0-1.061l1.286-1.287
		c0.293-0.293,0.768-0.293,1.061,0s0.293,0.768,0,1.061l-1.286,1.287C117.278,6.742,117.086,6.815,116.894,6.815z"/>
</g>
<g>
	<path fill="#231F20" d="M122.21,6.815c-0.192,0-0.385-0.073-0.531-0.22l-1.287-1.287c-0.293-0.293-0.293-0.768,0-1.061
		s0.768-0.293,1.061,0l1.287,1.287c0.293,0.293,0.293,0.768,0,1.061C122.593,6.742,122.401,6.815,122.21,6.815z"/>
</g>
<g>
	<path fill="#231F20" d="M118.181,2.787c-0.191,0-0.384-0.073-0.53-0.22l-1.286-1.287c-0.293-0.293-0.293-0.768,0-1.061
		s0.768-0.293,1.061,0l1.286,1.287c0.293,0.293,0.293,0.768,0,1.061C118.564,2.714,118.372,2.787,118.181,2.787z"/>
</g>
<g>
	<path fill="#231F20" d="M11.112,13.435c-0.192,0-0.384-0.073-0.53-0.22c-0.293-0.293-0.293-0.768,0-1.061l1.287-1.287
		c0.293-0.293,0.768-0.293,1.061,0s0.293,0.768,0,1.061l-1.287,1.287C11.496,13.361,11.304,13.435,11.112,13.435z"/>
</g>
<g>
	<path fill="#231F20" d="M7.083,17.463c-0.192,0-0.384-0.073-0.53-0.22c-0.293-0.293-0.293-0.768,0-1.061l1.287-1.287
		c0.293-0.293,0.768-0.293,1.061,0s0.293,0.768,0,1.061l-1.287,1.287C7.467,17.39,7.275,17.463,7.083,17.463z"/>
</g>
<g>
	<path fill="#231F20" d="M12.399,17.463c-0.192,0-0.384-0.073-0.53-0.22l-1.287-1.287c-0.293-0.293-0.293-0.768,0-1.061
		s0.768-0.293,1.061,0l1.287,1.287c0.293,0.293,0.293,0.768,0,1.061C12.783,17.39,12.591,17.463,12.399,17.463z"/>
</g>
<g>
	<path fill="#231F20" d="M8.37,13.435c-0.192,0-0.384-0.073-0.53-0.22l-1.287-1.287c-0.293-0.293-0.293-0.768,0-1.061
		s0.768-0.293,1.061,0L8.9,12.154c0.293,0.293,0.293,0.768,0,1.061C8.754,13.361,8.562,13.435,8.37,13.435z"/>
</g>
<g>
	<path fill="#231F20" d="M72.89,129.5H48.498c-0.414,0-0.75-0.336-0.75-0.75s0.336-0.75,0.75-0.75H72.89
		c0.414,0,0.75,0.336,0.75,0.75S73.304,129.5,72.89,129.5z"/>
</g>
<g>
	<path fill="#231F20" d="M81.002,129.5h-4.338c-0.414,0-0.75-0.336-0.75-0.75s0.336-0.75,0.75-0.75h4.338
		c0.414,0,0.75,0.336,0.75,0.75S81.416,129.5,81.002,129.5z"/>
</g>
<g>
	<path fill="#231F20" d="M105.691,124.514H81.299c-0.414,0-0.75-0.336-0.75-0.75s0.336-0.75,0.75-0.75h24.393
		c0.414,0,0.75,0.336,0.75,0.75S106.105,124.514,105.691,124.514z"/>
</g>
<g>
	<path fill="#231F20" d="M113.804,124.514h-4.337c-0.414,0-0.75-0.336-0.75-0.75s0.336-0.75,0.75-0.75h4.337
		c0.414,0,0.75,0.336,0.75,0.75S114.218,124.514,113.804,124.514z"/>
</g>
<g>
	<path fill="#231F20" d="M18.432,126.014h-5.324c-0.414,0-0.75-0.336-0.75-0.75s0.336-0.75,0.75-0.75h5.324
		c0.414,0,0.75,0.336,0.75,0.75S18.846,126.014,18.432,126.014z"/>
</g>
<g>
	<path fill="#231F20" d="M61.37,126.014H23.883c-0.414,0-0.75-0.336-0.75-0.75s0.336-0.75,0.75-0.75H61.37
		c0.414,0,0.75,0.336,0.75,0.75S61.784,126.014,61.37,126.014z"/>
</g>
<polygon fill="#CED5E0" points="76.848,112.652 74.413,104.637 56.513,104.637 55.001,109.611 "/>
<rect x="17.398" y="36.861" fill="#84DBFF" width="96.128" height="51.617"/>
<circle fill="#CED5E0" cx="65.463" cy="96.555" r="3.931"/>
<rect x="1.62" y="69.395" fill="#FFFFFF" width="40.785" height="41.199"/>
<path fill="#E6E9EE" d="M1.62,110.594v6.307c0,1.932,1.567,3.5,3.5,3.5h33.785c1.933,0,3.5-1.568,3.5-3.5v-6.307H1.62z"/>
<path fill="#E6E9EE" d="M42.405,69.395v-2.627c0-1.932-1.567-3.5-3.5-3.5H5.12c-1.933,0-3.5,1.568-3.5,3.5v2.627H42.405z"/>
<path fill="#FFFFFF" d="M124.38,120.398h-19.719c-1.932,0-3.5-1.566-3.5-3.5V81.717c0-1.934,1.568-3.5,3.5-3.5h19.719
	c1.934,0,3.5,1.566,3.5,3.5v35.182C127.88,118.832,126.313,120.398,124.38,120.398z"/>
<path fill="#E6E9EE" d="M101.161,111.916v4.59c0,2.15,1.744,3.893,3.894,3.893h18.933c2.15,0,3.893-1.742,3.893-3.893v-4.59H101.161
	z"/>
<path fill="#E6E9EE" d="M127.88,85.602v-3.492c0-2.15-1.742-3.893-3.893-3.893h-18.933c-2.149,0-3.894,1.742-3.894,3.893v3.492
	H127.88z"/>
<path fill="#231F20" d="M128.75,119.65h-1.157c0.638-0.744,1.037-1.697,1.037-2.752V81.717c0-2.344-1.906-4.25-4.25-4.25h-5.104
	V35.678c0-2.518-2.049-4.566-4.566-4.566H16.216c-2.518,0-4.567,2.049-4.567,4.566v26.84H5.12c-2.343,0-4.25,1.906-4.25,4.25V116.9
	c0,1.053,0.399,2.006,1.037,2.75H0.75c-0.414,0-0.75,0.336-0.75,0.75s0.336,0.75,0.75,0.75h128c0.414,0,0.75-0.336,0.75-0.75
	S129.164,119.65,128.75,119.65z M41.655,116.9c0,1.516-1.233,2.75-2.75,2.75H5.12c-1.517,0-2.75-1.234-2.75-2.75v-5.557h39.285
	V116.9z M41.655,109.844H2.37V70.145h39.285V109.844z M41.655,68.645H2.37v-1.877c0-1.516,1.233-2.75,2.75-2.75h33.785
	c1.517,0,2.75,1.234,2.75,2.75V68.645z M79.988,116.096c2.156,0,3.973,1.508,4.434,3.553H46.503
	c0.461-2.045,2.277-3.553,4.435-3.553H79.988z M54.271,114.596l2.797-9.209h16.788l2.798,9.209H54.271z M43.155,103.887V89.225
	h57.256v14.662H43.155z M55.5,105.387l-2.797,9.209h-1.766c-2.984,0-5.474,2.17-5.958,5.055h-2.86
	c0.637-0.744,1.037-1.697,1.037-2.75v-11.514H55.5z M85.946,119.65c-0.484-2.885-2.975-5.055-5.958-5.055h-1.767l-2.798-9.209
	h24.987v11.512c0,1.055,0.4,2.008,1.038,2.752H85.946z M100.411,81.717v6.008H43.155V66.768c0-2.344-1.907-4.25-4.25-4.25H13.149
	v-26.84c0-1.69,1.376-3.066,3.067-3.066h98.494c1.69,0,3.066,1.376,3.066,3.066v41.789h-13.115
	C102.318,77.467,100.411,79.373,100.411,81.717z M127.13,116.506c0,1.732-1.41,3.143-3.143,3.143h-18.933
	c-1.733,0-3.144-1.41-3.144-3.143v-3.84h25.219V116.506z M127.13,111.166h-25.219V86.352h25.219V111.166z M127.13,84.852h-25.219
	v-2.742c0-1.732,1.41-3.143,3.144-3.143h18.933c1.732,0,3.143,1.41,3.143,3.143V84.852z"/>
<g>
	<line fill="#E6E9EE" x1="14.725" y1="66.332" x2="17.42" y2="66.332"/>
	<path fill="#231F20" d="M17.42,67.082h-2.695c-0.414,0-0.75-0.336-0.75-0.75s0.336-0.75,0.75-0.75h2.695
		c0.414,0,0.75,0.336,0.75,0.75S17.834,67.082,17.42,67.082z"/>
</g>
<g>
	<line fill="#E6E9EE" x1="20.562" y1="66.332" x2="29.3" y2="66.332"/>
	<path fill="#231F20" d="M29.3,67.082h-8.739c-0.414,0-0.75-0.336-0.75-0.75s0.336-0.75,0.75-0.75H29.3
		c0.414,0,0.75,0.336,0.75,0.75S29.714,67.082,29.3,67.082z"/>
</g>
<g>
	<line fill="#E6E9EE" x1="110.134" y1="81.908" x2="111.757" y2="81.908"/>
	<path fill="#231F20" d="M111.757,82.658h-1.623c-0.414,0-0.75-0.336-0.75-0.75s0.336-0.75,0.75-0.75h1.623
		c0.414,0,0.75,0.336,0.75,0.75S112.171,82.658,111.757,82.658z"/>
</g>
<g>
	<line fill="#E6E9EE" x1="113.647" y1="81.908" x2="118.908" y2="81.908"/>
	<path fill="#231F20" d="M118.908,82.658h-5.261c-0.414,0-0.75-0.336-0.75-0.75s0.336-0.75,0.75-0.75h5.261
		c0.414,0,0.75,0.336,0.75,0.75S119.322,82.658,118.908,82.658z"/>
</g>
<circle fill="#ACB3BA" cx="22.012" cy="115.496" r="1.847"/>
<circle fill="#ACB3BA" cx="114.521" cy="116.158" r="1.847"/>
<g>
	<path fill="#231F20" d="M127.463,55.377c-0.192,0-0.384-0.073-0.53-0.22c-0.293-0.293-0.293-0.768,0-1.061l1.287-1.287
		c0.293-0.293,0.768-0.293,1.061,0s0.293,0.768,0,1.061l-1.287,1.287C127.847,55.304,127.655,55.377,127.463,55.377z"/>
</g>
<g>
	<path fill="#231F20" d="M123.435,59.406c-0.191,0-0.384-0.074-0.53-0.221c-0.293-0.293-0.293-0.768,0-1.061l1.287-1.287
		c0.293-0.293,0.768-0.293,1.061,0s0.293,0.768,0,1.061l-1.287,1.287C123.818,59.332,123.626,59.406,123.435,59.406z"/>
</g>
<g>
	<path fill="#231F20" d="M128.75,59.406c-0.192,0-0.384-0.074-0.53-0.221l-1.287-1.287c-0.293-0.293-0.293-0.768,0-1.061
		s0.768-0.293,1.061,0l1.287,1.287c0.293,0.293,0.293,0.768,0,1.061C129.134,59.332,128.942,59.406,128.75,59.406z"/>
</g>
<g>
	<path fill="#231F20" d="M124.722,55.377c-0.192,0-0.385-0.073-0.531-0.22l-1.286-1.287c-0.293-0.293-0.293-0.768,0-1.061
		s0.768-0.293,1.061,0l1.286,1.287c0.293,0.293,0.293,0.768,0,1.061C125.104,55.304,124.913,55.377,124.722,55.377z"/>
</g>
<g>
	<path fill="#FFFFFF" d="M38.153,44.964h-8.092c-0.414,0-0.75-0.336-0.75-0.75s0.336-0.75,0.75-0.75h8.092
		c0.414,0,0.75,0.336,0.75,0.75S38.567,44.964,38.153,44.964z"/>
</g>
<g>
	<path fill="#FFFFFF" d="M41.335,47.909h-3.958c-0.414,0-0.75-0.336-0.75-0.75s0.336-0.75,0.75-0.75h3.958
		c0.414,0,0.75,0.336,0.75,0.75S41.749,47.909,41.335,47.909z"/>
</g>
<g>
	<path fill="#FFFFFF" d="M45.595,44.964h-3.772c-0.414,0-0.75-0.336-0.75-0.75s0.336-0.75,0.75-0.75h3.772
		c0.414,0,0.75,0.336,0.75,0.75S46.009,44.964,45.595,44.964z"/>
</g>
<g>
	<path fill="#FFFFFF" d="M34.49,47.909h-0.771c-0.414,0-0.75-0.336-0.75-0.75s0.336-0.75,0.75-0.75h0.771
		c0.414,0,0.75,0.336,0.75,0.75S34.904,47.909,34.49,47.909z"/>
</g>
<g>
	<path fill="#FFFFFF" d="M97.485,67.525h-8.093c-0.414,0-0.75-0.336-0.75-0.75s0.336-0.75,0.75-0.75h8.093
		c0.414,0,0.75,0.336,0.75,0.75S97.899,67.525,97.485,67.525z"/>
</g>
<g>
	<path fill="#FFFFFF" d="M100.667,70.471h-3.958c-0.414,0-0.75-0.336-0.75-0.75s0.336-0.75,0.75-0.75h3.958
		c0.414,0,0.75,0.336,0.75,0.75S101.081,70.471,100.667,70.471z"/>
</g>
<g>
	<path fill="#FFFFFF" d="M104.927,67.525h-3.771c-0.414,0-0.75-0.336-0.75-0.75s0.336-0.75,0.75-0.75h3.771
		c0.414,0,0.75,0.336,0.75,0.75S105.341,67.525,104.927,67.525z"/>
</g>
<g>
	<path fill="#FFFFFF" d="M93.822,70.471H93.05c-0.414,0-0.75-0.336-0.75-0.75s0.336-0.75,0.75-0.75h0.772
		c0.414,0,0.75,0.336,0.75,0.75S94.236,70.471,93.822,70.471z"/>
</g>
<circle fill="#FFD05B" cx="116.217" cy="16.746" r="2.691"/>
<circle fill="#FF7058" cx="21.276" cy="21.141" r="2.12"/>
<g>
	<path fill="#FFFFFF" d="M84.332,51.054l1.938,0.586c-0.13,0.543-0.335,0.998-0.615,1.362c-0.279,0.365-0.627,0.64-1.042,0.825
		s-0.943,0.278-1.585,0.278c-0.777,0-1.413-0.113-1.906-0.339s-0.919-0.624-1.277-1.193c-0.357-0.569-0.537-1.298-0.537-2.186
		c0-1.184,0.315-2.094,0.945-2.73c0.63-0.636,1.521-0.954,2.674-0.954c0.901,0,1.609,0.182,2.126,0.547s0.899,0.924,1.149,1.68
		l-1.953,0.435c-0.068-0.218-0.14-0.377-0.215-0.479c-0.123-0.169-0.274-0.299-0.453-0.391c-0.18-0.091-0.38-0.137-0.602-0.137
		c-0.501,0-0.885,0.202-1.152,0.605c-0.201,0.299-0.303,0.769-0.303,1.409c0,0.793,0.121,1.337,0.361,1.631
		c0.241,0.294,0.58,0.441,1.016,0.441c0.424,0,0.744-0.119,0.96-0.356S84.234,51.506,84.332,51.054z"/>
	<path fill="#FFFFFF" d="M87.32,46.825h2.908l1.122,4.355l1.114-4.355h2.906v7.158h-1.811v-5.459l-1.396,5.459h-1.64l-1.394-5.459
		v5.459H87.32V46.825z"/>
	<path fill="#FFFFFF" d="M96.396,51.615l2.105-0.132c0.045,0.342,0.138,0.602,0.277,0.781c0.229,0.29,0.554,0.435,0.977,0.435
		c0.316,0,0.56-0.074,0.73-0.222s0.256-0.32,0.256-0.515c0-0.186-0.081-0.352-0.244-0.498c-0.162-0.146-0.54-0.285-1.133-0.415
		c-0.97-0.218-1.661-0.508-2.074-0.869c-0.417-0.361-0.625-0.822-0.625-1.382c0-0.368,0.105-0.715,0.319-1.042
		s0.534-0.584,0.962-0.771s1.015-0.281,1.76-0.281c0.915,0,1.613,0.17,2.093,0.51s0.766,0.881,0.856,1.624l-2.084,0.122
		c-0.056-0.322-0.172-0.557-0.35-0.703s-0.422-0.22-0.734-0.22c-0.258,0-0.451,0.055-0.582,0.164
		c-0.13,0.109-0.195,0.242-0.195,0.398c0,0.114,0.055,0.216,0.162,0.308c0.104,0.094,0.352,0.182,0.742,0.264
		c0.967,0.208,1.658,0.419,2.077,0.632s0.723,0.478,0.913,0.793s0.285,0.669,0.285,1.06c0,0.459-0.127,0.882-0.381,1.27
		s-0.608,0.681-1.064,0.881c-0.455,0.2-1.029,0.3-1.723,0.3c-1.218,0-2.061-0.234-2.529-0.703S96.459,52.338,96.396,51.615z"/>
</g>
<text transform="matrix(1 0 0 1 36.6265 21.1411)" fill="#CCCCCC" font-family="'Arial-Black'" font-size="10">WORDPRES</text>
</svg>
